WreatheSystem-Regular.sfdir
StartChar: uni0005
Encoding: 5 5 8
Width: 790
Flags: W
LayerCount: 2
Fore
SplineSet
606 20 m 1,0,1
 602 33 602 33 587.5 37.5 c 128,-1,2
 573 42 573 42 567 28 c 1,3,-1
 553 35 l 1,4,5
 559 50 559 50 575.5 55 c 128,-1,6
 592 60 592 60 606 52 c 0,7,8
 609 50 609 50 614.5 45 c 128,-1,9
 620 40 620 40 623 38 c 1,10,11
 652 92 652 92 627 140 c 0,12,13
 615 163 615 163 593 169.5 c 128,-1,14
 571 176 571 176 552 157 c 0,15,16
 535 138 535 138 530 109.5 c 128,-1,17
 525 81 525 81 535 57 c 0,18,19
 552 11 552 11 592 15 c 0,20,21
 595 15 595 15 606 20 c 1,0,1
287 403 m 1,22,-1
 325 403 l 1,23,-1
 342 402 l 1,24,-1
 353 390 l 1,25,-1
 377 361 l 1,26,-1
 455 270 l 1,27,-1
 455 348 l 2,28,29
 455 350 455 350 455.5 358.5 c 128,-1,30
 456 367 456 367 455.5 372.5 c 128,-1,31
 455 378 455 378 453 382 c 128,-1,32
 451 386 451 386 449 388.5 c 128,-1,33
 447 391 447 391 442.5 391.5 c 128,-1,34
 438 392 438 392 436 392 c 2,35,-1
 429 392 l 1,36,-1
 429 403 l 1,37,-1
 504 403 l 1,38,-1
 504 393 l 1,39,40
 492 393 492 393 489 391 c 0,41,42
 485 389 485 389 482 385.5 c 128,-1,43
 479 382 479 382 478.5 376.5 c 128,-1,44
 478 371 478 371 477.5 367 c 128,-1,45
 477 363 477 363 477.5 356.5 c 128,-1,46
 478 350 478 350 478 348 c 2,47,-1
 478 213 l 1,48,49
 459 213 459 213 457 214 c 0,50,51
 453 216 453 216 448.5 221 c 128,-1,52
 444 226 444 226 439 233 c 128,-1,53
 434 240 434 240 432 242 c 2,54,-1
 374 310 l 1,55,-1
 364 320 l 2,56,57
 357 327 357 327 352 333.5 c 128,-1,58
 347 340 347 340 345 346 c 1,59,-1
 344 346 l 1,60,-1
 344 268 l 2,61,62
 344 266 344 266 343.5 257.5 c 128,-1,63
 343 249 343 249 343.5 243.5 c 128,-1,64
 344 238 344 238 346 234 c 0,65,66
 350 227 350 227 355 225 c 128,-1,67
 360 223 360 223 370 223 c 1,68,-1
 370 213 l 1,69,-1
 295 213 l 1,70,-1
 295 223 l 1,71,72
 316 223 316 223 321 237 c 0,73,74
 322 239 322 239 322 270 c 2,75,-1
 322 339 l 2,76,77
 322 342 322 342 322.5 350 c 128,-1,78
 323 358 323 358 323 364.5 c 128,-1,79
 323 371 323 371 321 375 c 0,80,81
 312 393 312 393 287 392 c 1,82,-1
 287 403 l 1,22,-1
693 2 m 1,83,84
 686 -13 686 -13 669 -17.5 c 128,-1,85
 652 -22 652 -22 638 -13 c 0,86,87
 636 -12 636 -12 629.5 -5 c 128,-1,88
 623 2 623 2 619.5 2.5 c 128,-1,89
 616 3 616 3 608 0.5 c 128,-1,90
 600 -2 600 -2 598 -2 c 0,91,92
 574 -5 574 -5 554 1 c 0,93,94
 527 10 527 10 510.5 35 c 128,-1,95
 494 60 494 60 493.5 87.5 c 128,-1,96
 493 115 493 115 505 142 c 0,97,98
 523 176 523 176 562.5 186 c 128,-1,99
 602 196 602 196 635 174 c 0,100,101
 667 152 667 152 673 107 c 0,102,103
 678 73 678 73 662 42 c 0,104,105
 657 33 657 33 648 23 c 0,106,107
 642 16 642 16 642 14 c 0,108,109
 644 2 644 2 658.5 0.5 c 128,-1,110
 673 -1 673 -1 679 9 c 1,111,-1
 693 2 l 1,83,84
111 618 m 1,112,-1
 229 618 l 1,113,-1
 258 618 l 1,114,-1
 270 617 l 1,115,-1
 275 603 l 1,116,-1
 286 567 l 1,117,118
 273 567 273 567 271 568 c 2,119,-1
 266 578 l 2,120,121
 256 597 256 597 249 599 c 0,122,123
 246 600 246 600 224 600 c 2,124,-1
 172 600 l 1,125,-1
 172 532 l 1,126,-1
 213 532 l 2,127,128
 229 532 229 532 235 541 c 0,129,130
 238 545 238 545 237 558 c 1,131,-1
 251 558 l 1,132,-1
 251 488 l 1,133,-1
 237 488 l 1,134,135
 237 501 237 501 235 506 c 0,136,137
 229 515 229 515 213 514 c 2,138,-1
 172 514 l 1,139,-1
 172 446 l 1,140,-1
 224 446 l 2,141,142
 246 446 246 446 249 447 c 0,143,144
 257 450 257 450 266 469 c 2,145,-1
 271 478 l 2,146,147
 272 479 272 479 285 479 c 1,148,-1
 274 443 l 1,149,-1
 269 429 l 1,150,-1
 258 428 l 1,151,-1
 228 428 l 1,152,-1
 111 428 l 1,153,-1
 111 438 l 1,154,155
 131 438 131 438 136 451 c 0,156,157
 138 456 138 456 138 462.5 c 128,-1,158
 138 469 138 469 137.5 478.5 c 128,-1,159
 137 488 137 488 137 491 c 2,160,-1
 137 562 l 2,161,162
 137 564 137 564 137.5 572 c 128,-1,163
 138 580 138 580 137.5 585.5 c 128,-1,164
 137 591 137 591 136 595 c 0,165,166
 133 603 133 603 127 605.5 c 128,-1,167
 121 608 121 608 111 608 c 1,168,-1
 111 618 l 1,112,-1
EndSplineSet
EndChar
StartChar: uni0011
Encoding: 17 17 17
Width: 790
Flags: W
LayerCount: 2
Fore
SplineSet
469 254 m 1,0,1
 474 245 474 245 475 245 c 1,2,3
 475 242 475 242 463 232 c 0,4,5
 442 214 442 214 417 212 c 0,6,7
 363 208 363 208 332.5 253 c 128,-1,8
 302 298 302 298 323 347 c 0,9,10
 334 372 334 372 356.5 387.5 c 128,-1,11
 379 403 379 403 406 404 c 0,12,13
 422 404 422 404 433 400 c 0,14,15
 435 399 435 399 438.5 397.5 c 128,-1,16
 442 396 442 396 445 395 c 128,-1,17
 448 394 448 394 451 394 c 0,18,19
 457 395 457 395 457 404 c 1,20,-1
 471 404 l 1,21,-1
 471 339 l 1,22,-1
 457 339 l 1,23,24
 457 369 457 369 429.5 381 c 128,-1,25
 402 393 402 393 380 375 c 0,26,27
 357 357 357 357 352 324.5 c 128,-1,28
 347 292 347 292 360 267 c 0,29,30
 381 224 381 224 421 230 c 0,31,32
 439 233 439 233 454 242 c 0,33,34
 456 243 456 243 461 247.5 c 128,-1,35
 466 252 466 252 469 254 c 1,0,1
548 138 m 1,36,37
 577 138 577 138 590 167 c 0,38,39
 590 168 590 168 592.5 176.5 c 128,-1,40
 595 185 595 185 597 187 c 0,41,42
 598 188 598 188 615 188 c 1,43,-1
 615 53 l 2,44,45
 615 51 615 51 614.5 43 c 128,-1,46
 614 35 614 35 614 29.5 c 128,-1,47
 614 24 614 24 616 18 c 128,-1,48
 618 12 618 12 621 10 c 128,-1,49
 624 8 624 8 638 8 c 1,50,-1
 638 -2 l 1,51,-1
 564 -2 l 1,52,-1
 564 8 l 1,53,54
 580 8 580 8 584 12 c 0,55,56
 586 16 586 16 586.5 21 c 128,-1,57
 587 26 587 26 586.5 34.5 c 128,-1,58
 586 43 586 43 586 44 c 2,59,-1
 586 123 l 1,60,-1
 548 123 l 1,61,-1
 548 138 l 1,36,37
170 600 m 2,62,-1
 170 446 l 1,63,-1
 178 446 l 1,64,-1
 186 446 l 1,65,-1
 194 446 l 2,66,67
 200 446 200 446 202.5 446.5 c 128,-1,68
 205 447 205 447 209.5 448.5 c 128,-1,69
 214 450 214 450 217 452 c 2,70,-1
 224 455 l 2,71,72
 228 457 228 457 231 460 c 0,73,74
 252 479 252 479 252 520 c 0,75,76
 252 572 252 572 224 592 c 0,77,78
 219 595 219 595 214.5 597 c 128,-1,79
 210 599 210 599 203 599.5 c 128,-1,80
 196 600 196 600 193 600.5 c 128,-1,81
 190 601 190 601 180.5 600.5 c 128,-1,82
 171 600 171 600 170 600 c 2,62,-1
107 618 m 1,83,-1
 185 618 l 2,84,85
 230 618 230 618 249 606 c 0,86,87
 275 590 275 590 283 560 c 128,-1,88
 291 530 291 530 286 496 c 0,89,90
 280 457 280 457 253 441 c 0,91,92
 232 428 232 428 185 428 c 2,93,-1
 107 428 l 1,94,-1
 107 438 l 1,95,96
 128 438 128 438 133 451 c 0,97,98
 134 455 134 455 134.5 461 c 128,-1,99
 135 467 135 467 134.5 474.5 c 128,-1,100
 134 482 134 482 134 484 c 2,101,-1
 134 557 l 2,102,103
 134 560 134 560 134.5 569 c 128,-1,104
 135 578 135 578 134.5 584.5 c 128,-1,105
 134 591 134 591 132 596 c 0,106,107
 129 604 129 604 123.5 606 c 128,-1,108
 118 608 118 608 107 608 c 1,109,-1
 107 618 l 1,83,-1
EndSplineSet
EndChar
StartChar: uni0013
Encoding: 19 19 19
Width: 790
Flags: W
LayerCount: 2
Fore
SplineSet
469 254 m 1,0,1
 474 245 474 245 475 245 c 1,2,3
 475 242 475 242 463 232 c 0,4,5
 442 214 442 214 417 212 c 0,6,7
 363 208 363 208 332.5 253 c 128,-1,8
 302 298 302 298 323 347 c 0,9,10
 334 372 334 372 356.5 387.5 c 128,-1,11
 379 403 379 403 406 404 c 0,12,13
 422 404 422 404 433 400 c 0,14,15
 435 399 435 399 438.5 397.5 c 128,-1,16
 442 396 442 396 445 395 c 128,-1,17
 448 394 448 394 451 394 c 0,18,19
 457 395 457 395 457 404 c 1,20,-1
 471 404 l 1,21,-1
 471 339 l 1,22,-1
 457 339 l 1,23,24
 457 369 457 369 429.5 381 c 128,-1,25
 402 393 402 393 380 375 c 0,26,27
 357 357 357 357 352 324.5 c 128,-1,28
 347 292 347 292 360 267 c 0,29,30
 381 224 381 224 421 230 c 0,31,32
 439 233 439 233 454 242 c 0,33,34
 456 243 456 243 461 247.5 c 128,-1,35
 466 252 466 252 469 254 c 1,0,1
553 146 m 1,36,37
 532 156 532 156 555 176 c 0,38,39
 568 187 568 187 580 188 c 0,40,41
 597 190 597 190 612.5 183.5 c 128,-1,42
 628 177 628 177 636 164 c 0,43,44
 646 149 646 149 641 125.5 c 128,-1,45
 636 102 636 102 617 96 c 1,46,-1
 617 94 l 1,47,48
 639 88 639 88 645.5 63 c 128,-1,49
 652 38 652 38 639 20 c 0,50,51
 622 -5 622 -5 584 -2 c 0,52,53
 559 0 559 0 546 16 c 0,54,55
 539 25 539 25 540 29 c 0,56,57
 541 30 541 30 550 36 c 1,58,59
 553 25 553 25 561 19 c 0,60,61
 568 14 568 14 577 12 c 0,62,63
 596 7 596 7 609 22 c 128,-1,64
 622 37 622 37 619.5 57.5 c 128,-1,65
 617 78 617 78 599 84 c 0,66,67
 592 87 592 87 569 87 c 1,68,-1
 569 99 l 1,69,70
 587 99 587 99 596 104 c 0,71,72
 608 111 608 111 612.5 126.5 c 128,-1,73
 617 142 617 142 611 155 c 0,74,75
 605 169 605 169 591 171 c 128,-1,76
 577 173 577 173 566 163 c 0,77,78
 559 156 559 156 553 146 c 1,36,37
170 600 m 2,79,-1
 170 446 l 1,80,-1
 178 446 l 1,81,-1
 186 446 l 1,82,-1
 194 446 l 2,83,84
 200 446 200 446 202.5 446.5 c 128,-1,85
 205 447 205 447 209.5 448.5 c 128,-1,86
 214 450 214 450 217 452 c 2,87,-1
 224 455 l 2,88,89
 228 457 228 457 231 460 c 0,90,91
 252 479 252 479 252 520 c 0,92,93
 252 572 252 572 224 592 c 0,94,95
 219 595 219 595 214.5 597 c 128,-1,96
 210 599 210 599 203 599.5 c 128,-1,97
 196 600 196 600 193 600.5 c 128,-1,98
 190 601 190 601 180.5 600.5 c 128,-1,99
 171 600 171 600 170 600 c 2,79,-1
107 618 m 1,100,-1
 185 618 l 2,101,102
 230 618 230 618 249 606 c 0,103,104
 275 590 275 590 283 560 c 128,-1,105
 291 530 291 530 286 496 c 0,106,107
 280 457 280 457 253 441 c 0,108,109
 232 428 232 428 185 428 c 2,110,-1
 107 428 l 1,111,-1
 107 438 l 1,112,113
 128 438 128 438 133 451 c 0,114,115
 134 455 134 455 134.5 461 c 128,-1,116
 135 467 135 467 134.5 474.5 c 128,-1,117
 134 482 134 482 134 484 c 2,118,-1
 134 557 l 2,119,120
 134 560 134 560 134.5 569 c 128,-1,121
 135 578 135 578 134.5 584.5 c 128,-1,122
 134 591 134 591 132 596 c 0,123,124
 129 604 129 604 123.5 606 c 128,-1,125
 118 608 118 608 107 608 c 1,126,-1
 107 618 l 1,100,-1
EndSplineSet
EndChar
StartChar: uni001C
Encoding: 28 28 28
Width: 790
Flags: W
LayerCount: 2
Fore
SplineSet
522 296 m 1,0,-1
 535 296 l 1,1,-1
 535 230 l 1,2,-1
 522 230 l 1,3,4
 515 266 515 266 497 274 c 0,5,6
 483 282 483 282 465 276 c 128,-1,7
 447 270 447 270 450 251 c 0,8,9
 451 245 451 245 456.5 239 c 128,-1,10
 462 233 462 233 464.5 231.5 c 128,-1,11
 467 230 467 230 476 224 c 0,12,13
 481 221 481 221 500 210.5 c 128,-1,14
 519 200 519 200 527.5 193.5 c 128,-1,15
 536 187 536 187 543 173.5 c 128,-1,16
 550 160 550 160 546 144 c 0,17,18
 540 122 540 122 520 112 c 128,-1,19
 500 102 500 102 475 105 c 0,20,21
 472 105 472 105 466.5 107 c 128,-1,22
 461 109 461 109 456 110.5 c 128,-1,23
 451 112 451 112 446 112.5 c 128,-1,24
 441 113 441 113 438 111 c 128,-1,25
 435 109 435 109 435 104 c 1,26,-1
 421 104 l 1,27,-1
 421 170 l 1,28,-1
 435 170 l 1,29,30
 436 153 436 153 445 140 c 128,-1,31
 454 127 454 127 469 123 c 0,32,33
 485 119 485 119 500.5 125 c 128,-1,34
 516 131 516 131 515 148 c 128,-1,35
 514 165 514 165 484 181 c 0,36,37
 481 183 481 183 472.5 188 c 128,-1,38
 464 193 464 193 460 195 c 128,-1,39
 456 197 456 197 448 202.5 c 128,-1,40
 440 208 440 208 436.5 211.5 c 128,-1,41
 433 215 433 215 428 221.5 c 128,-1,42
 423 228 423 228 421.5 233.5 c 128,-1,43
 420 239 420 239 420 246 c 128,-1,44
 420 253 420 253 422 261 c 0,45,46
 428 280 428 280 445.5 288.5 c 128,-1,47
 463 297 463 297 484 295 c 0,48,49
 493 294 493 294 507 290 c 0,50,51
 515 287 515 287 517 287 c 0,52,53
 520 288 520 288 522 296 c 1,0,-1
221 510 m 1,54,-1
 338 510 l 1,55,-1
 368 510 l 1,56,-1
 380 509 l 1,57,-1
 385 495 l 1,58,-1
 396 459 l 1,59,-1
 381 459 l 1,60,61
 374 484 374 484 359 491 c 0,62,63
 357 492 357 492 337 492 c 2,64,-1
 282 492 l 1,65,-1
 282 424 l 2,66,67
 285 424 285 424 297 423 c 128,-1,68
 309 422 309 422 316.5 422 c 128,-1,69
 324 422 324 422 333 425 c 128,-1,70
 342 428 342 428 345 434 c 0,71,72
 347 437 347 437 347 451 c 1,73,-1
 361 451 l 1,74,-1
 361 380 l 1,75,-1
 347 380 l 1,76,77
 347 393 347 393 345 397 c 0,78,79
 342 403 342 403 333 405.5 c 128,-1,80
 324 408 324 408 316.5 408.5 c 128,-1,81
 309 409 309 409 297 408 c 128,-1,82
 285 407 285 407 282 407 c 2,83,-1
 282 358 l 2,84,85
 282 339 282 339 291 333 c 0,86,87
 295 330 295 330 308 331 c 1,88,-1
 308 321 l 1,89,-1
 221 321 l 1,90,-1
 221 331 l 1,91,92
 241 331 241 331 246 344 c 0,93,94
 248 348 248 348 248 353.5 c 128,-1,95
 248 359 248 359 247.5 367 c 128,-1,96
 247 375 247 375 247 377 c 2,97,-1
 247 448 l 2,98,99
 247 451 247 451 247.5 460 c 128,-1,100
 248 469 248 469 248 475.5 c 128,-1,101
 248 482 248 482 246 487 c 0,102,103
 241 500 241 500 221 500 c 1,104,-1
 221 510 l 1,54,-1
EndSplineSet
EndChar
StartChar: percent
Encoding: 37 37 36
Width: 731
Flags: W
LayerCount: 2
Fore
SplineSet
538 257 m 0,0,1
 486 245 486 245 472 175 c 0,2,3
 458 108 458 108 490 50 c 0,4,5
 522 -11 522 -11 580 2 c 0,6,7
 609 9 609 9 625.5 34.5 c 128,-1,8
 642 60 642 60 643.5 92 c 128,-1,9
 645 124 645 124 639.5 156 c 128,-1,10
 634 188 634 188 623 211 c 0,11,12
 609 237 609 237 587 250 c 128,-1,13
 565 263 565 263 538 257 c 0,0,1
542 275 m 0,14,15
 625 289 625 289 668 221 c 0,16,17
 706 163 706 163 690 92 c 0,18,19
 674 17 674 17 610 -8 c 0,20,21
 596 -14 596 -14 580 -17 c 0,22,23
 494 -31 494 -31 450 37 c 0,24,25
 412 95 412 95 428 166 c 0,26,27
 444 241 444 241 508 266 c 0,28,29
 524 272 524 272 542 275 c 0,14,15
162 560 m 0,30,31
 132 554 132 554 115.5 528.5 c 128,-1,32
 99 503 99 503 96 471.5 c 128,-1,33
 93 440 93 440 98 408.5 c 128,-1,34
 103 377 103 377 113 355 c 0,35,36
 127 327 127 327 150 312 c 128,-1,37
 173 297 173 297 201 304 c 0,38,39
 229 310 229 310 245 335.5 c 128,-1,40
 261 361 261 361 263.5 392.5 c 128,-1,41
 266 424 266 424 261 455 c 128,-1,42
 256 486 256 486 246 509 c 0,43,44
 234 536 234 536 211.5 551 c 128,-1,45
 189 566 189 566 162 560 c 0,30,31
162 578 m 0,46,47
 244 592 244 592 288 526 c 0,48,49
 326 469 326 469 311 396 c 0,50,51
 296 320 296 320 232 293 c 0,52,53
 218 288 218 288 204 285 c 0,54,55
 119 270 119 270 75 337 c 0,56,57
 37 394 37 394 50 464 c 0,58,59
 64 540 64 540 130 569 c 0,60,61
 144 575 144 575 162 578 c 0,46,47
155 -40 m 1,62,63
 164 -15 164 -15 181 12 c 128,-1,64
 198 39 198 39 221 71 c 128,-1,65
 244 103 244 103 254 119 c 0,66,67
 366 296 366 296 448 442 c 0,68,69
 454 454 454 454 470 488.5 c 128,-1,70
 486 523 486 523 501 548.5 c 128,-1,71
 516 574 516 574 533 587 c 0,72,73
 538 591 538 591 545 592.5 c 128,-1,74
 552 594 552 594 562.5 595.5 c 128,-1,75
 573 597 573 597 577 597 c 1,76,77
 525 500 525 500 416 325 c 2,78,-1
 278 101 l 2,79,80
 273 93 273 93 262 70.5 c 128,-1,81
 251 48 251 48 241 30.5 c 128,-1,82
 231 13 231 13 218 -5.5 c 128,-1,83
 205 -24 205 -24 188.5 -33.5 c 128,-1,84
 172 -43 172 -43 155 -40 c 1,62,63
EndSplineSet
EndChar
StartChar: comma
Encoding: 44 44 43
Width: 186
Flags: W
LayerCount: 2
Fore
SplineSet
29 -96 m 1,0,-1
 37 -107 l 1,1,-1
 29 -96 l 1,0,-1
88 109 m 1,2,3
 93 108 93 108 97 105.5 c 128,-1,4
 101 103 101 103 102 101 c 2,5,-1
 108 94 l 1,6,-1
 115 88 l 2,7,8
 118 84 118 84 126 79 c 128,-1,9
 134 74 134 74 140 69 c 128,-1,10
 146 64 146 64 148 57 c 128,-1,11
 150 50 150 50 143.5 37 c 128,-1,12
 137 24 137 24 137 22 c 0,13,14
 114 -73 114 -73 37 -107 c 1,15,-1
 29 -89 l 1,16,17
 60 -71 60 -71 77.5 -47.5 c 128,-1,18
 95 -24 95 -24 81 3 c 0,19,20
 77 10 77 10 62 25.5 c 128,-1,21
 47 41 47 41 44 55 c 1,22,23
 72 70 72 70 88 109 c 1,2,3
EndSplineSet
EndChar
StartChar: two
Encoding: 50 50 49
Width: 391
Flags: W
LayerCount: 2
Fore
SplineSet
73 274 m 1,0,1
 65 297 65 297 99 323 c 0,2,3
 126 344 126 344 164 350 c 128,-1,4
 202 356 202 356 235 345 c 0,5,6
 276 333 276 333 291 297 c 128,-1,7
 306 261 306 261 285 224 c 0,8,9
 267 192 267 192 239 162.5 c 128,-1,10
 211 133 211 133 171.5 101 c 128,-1,11
 132 69 132 69 114 51 c 1,12,-1
 227 46 l 1,13,-1
 312 48 l 1,14,-1
 356 102 l 1,15,-1
 371 95 l 1,16,17
 369 91 369 91 362 76 c 128,-1,18
 355 61 355 61 352 53.5 c 128,-1,19
 349 46 349 46 341.5 32.5 c 128,-1,20
 334 19 334 19 327.5 10.5 c 128,-1,21
 321 2 321 2 313.5 -6.5 c 128,-1,22
 306 -15 306 -15 297 -19 c 1,23,24
 291 -12 291 -12 284 -8 c 128,-1,25
 277 -4 277 -4 267.5 -2.5 c 128,-1,26
 258 -1 258 -1 252 -0.5 c 128,-1,27
 246 0 246 0 233.5 -0.5 c 128,-1,28
 221 -1 221 -1 216 -1 c 2,29,-1
 25 -1 l 1,30,31
 31 10 31 10 42.5 20.5 c 128,-1,32
 54 31 54 31 70 43 c 128,-1,33
 86 55 86 55 92 59 c 0,34,35
 93 60 93 60 106.5 72 c 128,-1,36
 120 84 120 84 122.5 86 c 128,-1,37
 125 88 125 88 137 99 c 128,-1,38
 149 110 149 110 153 114 c 128,-1,39
 157 118 157 118 168 128 c 128,-1,40
 179 138 179 138 183 143.5 c 128,-1,41
 187 149 187 149 195 159 c 128,-1,42
 203 169 203 169 207.5 176.5 c 128,-1,43
 212 184 212 184 217 193.5 c 128,-1,44
 222 203 222 203 226 212 c 0,45,46
 242 254 242 254 222 293 c 128,-1,47
 202 332 202 332 154 325 c 0,48,49
 139 322 139 322 123.5 313.5 c 128,-1,50
 108 305 108 305 100.5 298 c 128,-1,51
 93 291 93 291 77 274 c 1,52,-1
 73 274 l 1,0,1
EndSplineSet
EndChar
StartChar: three
Encoding: 51 51 50
Width: 294
Flags: W
LayerCount: 2
Fore
SplineSet
44 290 m 1,0,1
 77 319 77 319 110 330 c 0,2,3
 161 347 161 347 202.5 321.5 c 128,-1,4
 244 296 244 296 238 242 c 0,5,6
 234 212 234 212 208.5 181.5 c 128,-1,7
 183 151 183 151 154 139 c 1,8,-1
 154 132 l 1,9,10
 199 112 199 112 226.5 71.5 c 128,-1,11
 254 31 254 31 253 -17.5 c 128,-1,12
 252 -66 252 -66 219 -103 c 0,13,14
 187 -141 187 -141 141.5 -163 c 128,-1,15
 96 -185 96 -185 33 -203 c 1,16,-1
 29 -188 l 1,17,18
 38 -183 38 -183 60 -172 c 2,19,-1
 96 -155 l 2,20,21
 110 -148 110 -148 129.5 -135.5 c 128,-1,22
 149 -123 149 -123 161.5 -112.5 c 128,-1,23
 174 -102 174 -102 185.5 -86 c 128,-1,24
 197 -70 197 -70 200 -54.5 c 128,-1,25
 203 -39 203 -39 199.5 -19.5 c 128,-1,26
 196 0 196 0 183 22 c 0,27,28
 169 45 169 45 150 60 c 0,29,30
 117 88 117 88 96 90 c 0,31,32
 88 90 88 90 80.5 88 c 128,-1,33
 73 86 73 86 68 84 c 128,-1,34
 63 82 63 82 56.5 83.5 c 128,-1,35
 50 85 50 85 44 91 c 1,36,37
 50 94 50 94 73.5 107 c 128,-1,38
 97 120 97 120 106 126 c 2,39,-1
 132 145 l 2,40,41
 149 157 149 157 160.5 169.5 c 128,-1,42
 172 182 172 182 181 197 c 0,43,44
 199 227 199 227 189.5 259.5 c 128,-1,45
 180 292 180 292 147 306 c 0,46,47
 130 314 130 314 111.5 306 c 128,-1,48
 93 298 93 298 75.5 289.5 c 128,-1,49
 58 281 58 281 44 286 c 1,50,-1
 44 290 l 1,0,1
EndSplineSet
EndChar
StartChar: nine
Encoding: 57 57 56
Width: 411
Flags: W
LayerCount: 2
Fore
SplineSet
290 55 m 1,0,1
 259 22 259 22 235 10 c 0,2,3
 179 -16 179 -16 122 15 c 128,-1,4
 65 46 65 46 47 105 c 0,5,6
 33 151 33 151 45.5 199.5 c 128,-1,7
 58 248 58 248 92 281 c 0,8,9
 132 320 132 320 180.5 325.5 c 128,-1,10
 229 331 229 331 269 309 c 128,-1,11
 309 287 309 287 338.5 245 c 128,-1,12
 368 203 368 203 373 153 c 0,13,14
 381 86 381 86 361 25.5 c 128,-1,15
 341 -35 341 -35 300 -80.5 c 128,-1,16
 259 -126 259 -126 205 -159 c 128,-1,17
 151 -192 151 -192 88 -210 c 1,18,-1
 81 -196 l 1,19,20
 133 -169 133 -169 168.5 -143.5 c 128,-1,21
 204 -118 204 -118 238.5 -84 c 128,-1,22
 273 -50 273 -50 292.5 -6 c 128,-1,23
 312 38 312 38 319 91 c 0,24,25
 323 123 323 123 314 164 c 128,-1,26
 305 205 305 205 284 241.5 c 128,-1,27
 263 278 263 278 231.5 294.5 c 128,-1,28
 200 311 200 311 158 293 c 0,29,30
 95 265 95 265 94 189 c 0,31,32
 92 122 92 122 135 73 c 0,33,34
 184 18 184 18 246 45 c 0,35,36
 263 52 263 52 279 66 c 1,37,-1
 283 66 l 1,38,-1
 290 58 l 1,39,-1
 290 55 l 1,0,1
EndSplineSet
EndChar
StartChar: less
Encoding: 60 60 59
Width: 351
Flags: W
LayerCount: 2
Fore
SplineSet
317 0 m 1,0,-1
 40 130 l 1,1,-1
 40 162 l 1,2,-1
 317 292 l 1,3,-1
 317 251 l 1,4,-1
 90 147 l 1,5,-1
 90 146 l 1,6,-1
 317 40 l 1,7,-1
 317 0 l 1,0,-1
EndSplineSet
Substitution2: "'rtla' Right to Left Alternates lookup 0 subtable" greater
EndChar
StartChar: L
Encoding: 76 76 75
Width: 518
Flags: W
LayerCount: 2
Fore
SplineSet
37 584 m 0,0,1
 38 584 38 584 50.5 583 c 128,-1,2
 63 582 63 582 87 580.5 c 128,-1,3
 111 579 111 579 136 579 c 0,4,5
 165 579 165 579 188.5 580.5 c 128,-1,6
 212 582 212 582 223 583.5 c 128,-1,7
 234 585 234 585 235 585 c 0,8,9
 243 585 243 585 243 576 c 0,10,11
 243 569 243 569 242 567.5 c 128,-1,12
 241 566 241 566 236 565 c 0,13,14
 197 561 197 561 183.5 553 c 128,-1,15
 170 545 170 545 168 521 c 0,16,17
 153 329 153 329 159 72 c 0,18,19
 160 48 160 48 171 38.5 c 128,-1,20
 182 29 182 29 216 28 c 0,21,22
 283 25 283 25 325 29 c 0,23,24
 410 37 410 37 442.5 58 c 128,-1,25
 475 79 475 79 486 116 c 0,26,27
 488 123 488 123 496 121 c 0,28,29
 505 118 505 118 503 110 c 0,30,31
 478 12 478 12 463 -13 c 1,32,33
 442 -6 442 -6 363 -3 c 0,34,35
 190 0 190 0 132 0 c 2,36,-1
 31 0 l 2,37,38
 23 0 23 0 24 9 c 0,39,40
 24 16 24 16 25 17.5 c 128,-1,41
 26 19 26 19 31 20 c 0,42,43
 69 26 69 26 79 35.5 c 128,-1,44
 89 45 89 45 90 78 c 0,45,46
 99 389 99 389 94 512 c 0,47,48
 93 532 93 532 90 542.5 c 128,-1,49
 87 553 87 553 77 558 c 128,-1,50
 67 563 67 563 62 564 c 2,51,-1
 37 566 l 2,52,53
 30 566 30 566 31 577 c 0,54,55
 32 584 32 584 37 584 c 0,0,1
EndSplineSet
EndChar
StartChar: Y
Encoding: 89 89 88
Width: 619
Flags: W
LayerCount: 2
Fore
SplineSet
18 594 m 0,0,1
 20 594 20 594 39 593 c 2,2,-1
 86 590 l 2,3,4
 113 589 113 589 136 589 c 0,5,6
 157 589 157 589 178 589.5 c 128,-1,7
 199 590 199 590 211.5 591 c 128,-1,8
 224 592 224 592 226 592 c 0,9,10
 233 592 233 592 233 584 c 0,11,12
 233 575 233 575 228 576 c 0,13,14
 174 577 174 577 174 555 c 0,15,16
 174 543 174 543 182 528 c 0,17,18
 240 443 240 443 342 307 c 1,19,20
 433 441 433 441 466 499 c 0,21,22
 485 530 485 530 485 541 c 128,-1,23
 485 552 485 552 468.5 564 c 128,-1,24
 452 576 452 576 421 578 c 0,25,26
 412 578 412 578 415 589 c 0,27,28
 419 597 419 597 422 596 c 0,29,30
 467 586 467 586 529 586 c 0,31,32
 549 586 549 586 566.5 587 c 128,-1,33
 584 588 584 588 593 589.5 c 128,-1,34
 602 591 602 591 603 591 c 0,35,36
 611 591 611 591 609 583 c 0,37,38
 608 576 608 576 602 576 c 0,39,40
 548 568 548 568 511 516 c 0,41,42
 415 381 415 381 356 281 c 1,43,44
 356 75 356 75 358 52 c 0,45,46
 359 37 359 37 363.5 31.5 c 128,-1,47
 368 26 368 26 379 22 c 0,48,49
 385 20 385 20 407 15.5 c 128,-1,50
 429 11 429 11 433 10 c 0,51,52
 439 8 439 8 438 1 c 0,53,54
 437 -5 437 -5 436 -7 c 128,-1,55
 435 -9 435 -9 432 -8 c 0,56,57
 400 0 400 0 319 0 c 0,58,59
 265 0 265 0 217 -9 c 0,60,61
 213 -10 213 -10 211.5 -8.5 c 128,-1,62
 210 -7 210 -7 210 -2 c 0,63,64
 210 7 210 7 215 9 c 0,65,66
 246 13 246 13 255 15 c 0,67,68
 265 19 265 19 270.5 21.5 c 128,-1,69
 276 24 276 24 282 33.5 c 128,-1,70
 288 43 288 43 288 58 c 0,71,72
 292 145 292 145 288 268 c 1,73,74
 267 308 267 308 202.5 397.5 c 128,-1,75
 138 487 138 487 97 534 c 0,76,77
 74 560 74 560 58 568 c 128,-1,78
 42 576 42 576 19 576 c 0,79,80
 11 576 11 576 11 584 c 0,81,82
 11 594 11 594 18 594 c 0,0,1
EndSplineSet
EndChar
StartChar: d
Encoding: 100 100 99
Width: 440
Flags: W
LayerCount: 2
Fore
SplineSet
89 283 m 0,0,1
 119 308 119 308 157 323 c 0,2,3
 193 339 193 339 229 338 c 0,4,5
 241 337 241 337 261 334 c 0,6,7
 267 333 267 333 278 330 c 2,8,-1
 296 325 l 2,9,10
 297 325 297 325 298.5 324.5 c 128,-1,11
 300 324 300 324 301 324 c 0,12,13
 304 324 304 324 305.5 326 c 128,-1,14
 307 328 307 328 307 330 c 0,15,16
 307 331 307 331 307.5 332.5 c 128,-1,17
 308 334 308 334 308 335 c 0,18,19
 311 403 311 403 310 457 c 0,20,21
 308 508 308 508 306 533 c 0,22,23
 306 542 306 542 305 545 c 0,24,25
 304 551 304 551 302 556 c 0,26,27
 299 562 299 562 292 563 c 2,28,-1
 286 563 l 2,29,30
 282 563 282 563 281 562 c 2,31,-1
 269 560 l 2,32,33
 261 558 261 558 258.5 558 c 128,-1,34
 256 558 256 558 254 559 c 0,35,36
 251 560 251 560 250.5 562.5 c 128,-1,37
 250 565 250 565 250.5 567 c 128,-1,38
 251 569 251 569 254 572 c 0,39,40
 256 573 256 573 264 576 c 0,41,42
 278 582 278 582 306 595 c 0,43,44
 336 610 336 610 362 626 c 0,45,46
 363 627 363 627 365 627 c 2,47,-1
 367 627 l 1,48,-1
 368 626 l 1,49,-1
 370 626 l 2,50,51
 371 626 371 626 372 625 c 0,52,53
 375 622 375 622 375 620 c 2,54,-1
 376 619 l 1,55,-1
 376 617 l 1,56,-1
 376 616 l 1,57,-1
 375 614 l 1,58,59
 365 538 365 538 362 474 c 0,60,61
 360 429 360 429 358.5 376.5 c 128,-1,62
 357 324 357 324 355.5 261 c 128,-1,63
 354 198 354 198 354 164 c 0,64,65
 352 119 352 119 354 81 c 0,66,67
 355 62 355 62 361 25 c 0,68,69
 361 24 361 24 361.5 22 c 128,-1,70
 362 20 362 20 362 19 c 0,71,72
 362 17 362 17 364 13 c 0,73,74
 365 10 365 10 369 10 c 2,75,-1
 371 10 l 1,76,-1
 373 10 l 1,77,-1
 412 22 l 1,78,-1
 416 22 l 1,79,-1
 419 22 l 2,80,81
 421 22 421 22 422 21 c 0,82,83
 424 19 424 19 424 18 c 2,84,-1
 424 14 l 2,85,86
 424 12 424 12 423 11 c 0,87,88
 422 11 422 11 422 10 c 2,89,-1
 420 9 l 2,90,91
 419 8 419 8 416 9 c 2,92,-1
 320 -24 l 2,93,94
 318 -25 318 -25 315 -25 c 128,-1,95
 312 -25 312 -25 310 -23 c 128,-1,96
 308 -21 308 -21 307 -19 c 128,-1,97
 306 -17 306 -17 306 -13 c 2,98,-1
 303 11 l 2,99,100
 301 36 301 36 302 47 c 1,101,-1
 275 33 l 2,102,103
 231 10 231 10 196 3 c 0,104,105
 151 -6 151 -6 112 9 c 0,106,107
 69 26 69 26 45 69 c 0,108,109
 14 124 14 124 29 190 c 0,110,111
 42 245 42 245 89 283 c 0,0,1
163 307 m 0,112,113
 141 300 141 300 125 290 c 0,114,115
 92 269 92 269 78 241 c 0,116,117
 66 215 66 215 69 182 c 0,118,119
 70 156 70 156 81 126 c 0,120,121
 91 97 91 97 112 76 c 0,122,123
 149 36 149 36 199 33 c 0,124,125
 236 31 236 31 268 45 c 0,126,127
 284 52 284 52 302 64 c 1,128,129
 300 90 300 90 302 116 c 0,130,131
 304 175 304 175 304 205 c 2,132,-1
 304 260 l 1,133,-1
 304 269 l 2,134,135
 304 275 304 275 303 278 c 0,136,137
 302 282 302 282 299 285 c 0,138,139
 297 287 297 287 290 289 c 2,140,-1
 256 299 l 2,141,142
 218 308 218 308 210 309 c 0,143,144
 183 312 183 312 163 307 c 0,112,113
EndSplineSet
EndChar
StartChar: e
Encoding: 101 101 100
Width: 338
Flags: W
LayerCount: 2
Fore
SplineSet
48 247 m 0,0,1
 74 294 74 294 126 319 c 0,2,3
 158 334 158 334 191 331 c 0,4,5
 232 327 232 327 266 296 c 0,6,7
 284 280 284 280 297 257 c 0,8,9
 301 251 301 251 302 251 c 2,10,-1
 308 245 l 2,11,12
 309 244 309 244 310.5 243 c 128,-1,13
 312 242 312 242 313 242 c 0,14,15
 316 241 316 241 317 238 c 2,16,-1
 317 235 l 2,17,18
 317 233 317 233 316 233 c 2,19,-1
 314 231 l 1,20,-1
 311 231 l 1,21,-1
 250 218 l 1,22,-1
 78 184 l 1,23,24
 75 145 75 145 87 111 c 0,25,26
 96 87 96 87 112 66 c 0,27,28
 127 47 127 47 151 35 c 0,29,30
 178 22 178 22 210 24 c 0,31,32
 234 25 234 25 268 39 c 0,33,34
 293 50 293 50 304 58 c 1,35,-1
 310 50 l 1,36,37
 286 32 286 32 258 17 c 0,38,39
 220 -3 220 -3 176 -6 c 0,40,41
 131 -9 131 -9 94 14 c 0,42,43
 57 38 57 38 39 82 c 0,44,45
 24 119 24 119 26 168 c 0,46,47
 29 214 29 214 48 247 c 0,0,1
211 294 m 0,48,49
 182 315 182 315 153 314 c 0,50,51
 131 314 131 314 114 299 c 0,52,53
 99 286 99 286 93 268 c 0,54,55
 88 256 88 256 83 235 c 0,56,57
 80 223 80 223 78 198 c 1,58,-1
 222 229 l 2,59,60
 224 229 224 229 227 230 c 128,-1,61
 230 231 230 231 232 231 c 2,62,-1
 241 234 l 2,63,64
 244 235 244 235 245 238 c 0,65,66
 247 242 247 242 247 243 c 2,67,-1
 247 248 l 2,68,69
 247 249 247 249 245 252 c 0,70,71
 233 278 233 278 211 294 c 0,48,49
EndSplineSet
EndChar
StartChar: f
Encoding: 102 102 101
Width: 282
Flags: W
LayerCount: 2
Fore
SplineSet
93 455 m 0,0,1
 100 494 100 494 116 522 c 0,2,3
 134 550 134 550 180 583 c 0,4,5
 224 615 224 615 253 622 c 0,6,7
 279 628 279 628 308 623 c 0,8,9
 334 618 334 618 352 610 c 0,10,11
 356 609 356 609 358 606 c 0,12,13
 362 602 362 602 363 599 c 0,14,15
 365 593 365 593 364 591 c 2,16,-1
 360 583 l 1,17,-1
 354 574 l 2,18,19
 353 572 353 572 349.5 568 c 128,-1,20
 346 564 346 564 343 563 c 2,21,-1
 336 563 l 2,22,23
 334 563 334 563 328 565 c 0,24,25
 309 572 309 572 271 583 c 0,26,27
 259 587 259 587 244 589 c 0,28,29
 228 591 228 591 216 588 c 0,30,31
 200 584 200 584 184 569 c 0,32,33
 172 557 172 557 164 539 c 0,34,35
 151 510 151 510 144 446 c 0,36,37
 138 399 138 399 138 352 c 2,38,-1
 138 333 l 1,39,-1
 256 333 l 1,40,-1
 260 333 l 2,41,42
 261 333 261 333 263 331 c 128,-1,43
 265 329 265 329 265 328 c 128,-1,44
 265 327 265 327 265.5 326 c 128,-1,45
 266 325 266 325 266 324 c 2,46,-1
 266 315 l 2,47,48
 266 314 266 314 265 312 c 2,49,-1
 263 310 l 2,50,51
 262 309 262 309 260 309 c 2,52,-1
 257 309 l 1,53,-1
 139 311 l 1,54,55
 139 233 139 233 138 195 c 0,56,57
 136 113 136 113 143 47 c 0,58,59
 144 44 144 44 144 38.5 c 128,-1,60
 144 33 144 33 145 30 c 0,61,62
 145 26 145 26 146 25 c 2,63,-1
 148 20 l 2,64,65
 149 19 149 19 153 17 c 0,66,67
 155 16 155 16 159 16 c 128,-1,68
 163 16 163 16 169.5 15.5 c 128,-1,69
 176 15 176 15 179 15 c 0,70,71
 184 15 184 15 192 14 c 128,-1,72
 200 13 200 13 205 13 c 0,73,74
 208 13 208 13 214 11 c 2,75,-1
 216 9 l 2,76,77
 217 8 217 8 217 5 c 128,-1,78
 217 2 217 2 216 1 c 2,79,-1
 214 -2 l 2,80,81
 213 -3 213 -3 210 -3 c 2,82,-1
 205 -3 l 2,83,84
 161 0 161 0 116 0 c 0,85,86
 68 0 68 0 30 -4 c 1,87,-1
 27 -4 l 2,88,89
 25 -4 25 -4 25 -3 c 0,90,91
 23 -1 23 -1 23 0 c 2,92,-1
 23 3 l 1,93,-1
 23 6 l 2,94,95
 23 8 23 8 24 9 c 2,96,-1
 26 11 l 1,97,-1
 29 11 l 1,98,-1
 43 13 l 2,99,100
 53 15 53 15 62 19 c 0,101,102
 71 24 71 24 77 33 c 0,103,104
 80 39 80 39 81 52 c 0,105,106
 82 59 82 59 82 72 c 128,-1,107
 82 85 82 85 82.5 111.5 c 128,-1,108
 83 138 83 138 83 151 c 2,109,-1
 83 305 l 1,110,111
 68 310 68 310 45 310 c 2,112,-1
 25 310 l 1,113,-1
 25 331 l 1,114,-1
 84 331 l 1,115,-1
 85 366 l 2,116,117
 87 418 87 418 93 455 c 0,0,1
EndSplineSet
EndChar
StartChar: h
Encoding: 104 104 103
Width: 455
Flags: W
LayerCount: 2
Fore
SplineSet
173 308 m 0,0,1
 210 325 210 325 242 333 c 0,2,3
 284 343 284 343 311 334 c 0,4,5
 328 328 328 328 340 316 c 0,6,7
 354 302 354 302 361 287 c 0,8,9
 370 267 370 267 373 241 c 0,10,11
 373 240 373 240 376 194 c 0,12,13
 377 165 377 165 377 107 c 0,14,15
 377 86 377 86 375 46 c 0,16,17
 375 39 375 39 376 37 c 2,18,-1
 377 34 l 2,19,20
 378 30 378 30 379 28 c 0,21,22
 382 24 382 24 387 23 c 0,23,24
 393 21 393 21 396 21 c 2,25,-1
 430 15 l 1,26,-1
 433 15 l 1,27,-1
 436 12 l 2,28,29
 438 10 438 10 438 9 c 2,30,-1
 438 6 l 2,31,32
 438 4 438 4 437 3 c 0,33,34
 437 2 437 2 436 2 c 2,35,-1
 435 0 l 2,36,37
 433 -2 433 -2 431 -2 c 2,38,-1
 428 -2 l 2,39,40
 385 0 385 0 362 0 c 0,41,42
 323 0 323 0 284 -3 c 2,43,-1
 282 -3 l 2,44,45
 280 -3 280 -3 279 -2 c 128,-1,46
 278 -1 278 -1 278 1 c 2,47,-1
 278 3 l 1,48,-1
 278 5 l 1,49,-1
 278 6 l 1,50,-1
 279 8 l 2,51,52
 279 9 279 9 281 9 c 2,53,-1
 282 9 l 1,54,-1
 283 9 l 1,55,-1
 300 14 l 2,56,57
 306 16 306 16 307.5 17 c 128,-1,58
 309 18 309 18 313 22 c 0,59,60
 314 23 314 23 316 28.5 c 128,-1,61
 318 34 318 34 318 36 c 0,62,63
 327 92 327 92 323 148 c 0,64,65
 321 200 321 200 319 226 c 0,66,67
 318 244 318 244 310 261 c 0,68,69
 302 279 302 279 287 288 c 0,70,71
 275 296 275 296 262 299 c 0,72,73
 257 300 257 300 234 300 c 0,74,75
 202 298 202 298 180 292 c 0,76,77
 153 285 153 285 133 274 c 1,78,79
 129 174 129 174 130 125 c 2,80,-1
 130 59 l 1,81,-1
 130 52 l 1,82,-1
 130 45 l 2,83,84
 130 37 130 37 133 32 c 0,85,86
 136 25 136 25 143 23 c 0,87,88
 150 19 150 19 156 18 c 2,89,-1
 184 13 l 2,90,91
 186 13 186 13 190 11 c 2,92,-1
 192 9 l 1,93,-1
 192 7 l 2,94,95
 192 5 192 5 191 4 c 2,96,-1
 189 2 l 1,97,-1
 188 2 l 2,98,99
 187 1 187 1 186 1 c 2,100,-1
 183 1 l 2,101,102
 158 2 158 2 109 2 c 0,103,104
 83 2 83 2 31 0 c 2,105,-1
 28 0 l 2,106,107
 27 0 27 0 27 2 c 2,108,-1
 26 3 l 1,109,-1
 26 4 l 1,110,-1
 26 6 l 1,111,-1
 26 9 l 2,112,113
 26 10 26 10 26.5 9.5 c 128,-1,114
 27 9 27 9 27 10 c 128,-1,115
 27 11 27 11 29 11 c 0,116,117
 30 11 30 11 30 11.5 c 128,-1,118
 30 12 30 12 31 12 c 2,119,-1
 47 17 l 2,120,121
 51 18 51 18 59 22 c 0,122,123
 65 25 65 25 67 30 c 0,124,125
 71 38 71 38 72 41.5 c 128,-1,126
 73 45 73 45 73 53 c 0,127,128
 77 128 77 128 80 279 c 0,129,130
 82 355 82 355 82 505 c 2,131,-1
 82 529 l 2,132,133
 82 544 82 544 78 555 c 0,134,135
 77 560 77 560 74 562 c 0,136,137
 69 567 69 567 66 568 c 128,-1,138
 63 569 63 569 58 569 c 0,139,140
 54 569 54 569 48 567 c 2,141,-1
 33 562 l 1,142,-1
 31 562 l 1,143,-1
 29 562 l 1,144,-1
 26 562 l 2,145,146
 25 562 25 562 24 563 c 128,-1,147
 23 564 23 564 23 567 c 2,148,-1
 23 570 l 1,149,-1
 26 573 l 1,150,-1
 31 576 l 1,151,-1
 74 594 l 2,152,153
 105 606 105 606 116 614 c 0,154,155
 125 619 125 619 136 629 c 0,156,157
 136 630 136 630 137 630 c 128,-1,158
 138 630 138 630 139 630.5 c 128,-1,159
 140 631 140 631 143 631 c 128,-1,160
 146 631 146 631 149 630 c 0,161,162
 151 629 151 629 153 625 c 2,163,-1
 153 621 l 1,164,-1
 153 620 l 1,165,-1
 152 618 l 2,166,167
 145 600 145 600 144 572 c 0,168,169
 138 487 138 487 136 444 c 0,170,171
 134 393 134 393 132 287 c 1,172,173
 149 298 149 298 173 308 c 0,0,1
EndSplineSet
EndChar
StartChar: k
Encoding: 107 107 106
Width: 436
Flags: W
LayerCount: 2
Fore
SplineSet
79 321 m 0,0,1
 79 419 79 419 77 519 c 0,2,3
 77 531 77 531 76 537 c 0,4,5
 74 546 74 546 70 553 c 0,6,7
 64 562 64 562 56 563 c 2,8,-1
 47 563 l 2,9,10
 44 563 44 563 39 562 c 2,11,-1
 29 559 l 2,12,13
 28 559 28 559 26 558 c 2,14,-1
 24 558 l 2,15,16
 23 558 23 558 21 560 c 0,17,18
 20 561 20 561 20 562 c 2,19,-1
 20 564 l 2,20,21
 20 565 20 565 22 567 c 0,22,23
 23 568 23 568 26 570 c 2,24,-1
 46 579 l 1,25,-1
 75 593 l 2,26,27
 108 609 108 609 131 626 c 0,28,29
 133 628 133 628 136 628 c 2,30,-1
 138 628 l 2,31,32
 139 628 139 628 140 627 c 0,33,34
 143 624 143 624 143 622 c 2,35,-1
 143 617 l 1,36,37
 132 520 132 520 130 405 c 2,38,-1
 127 217 l 2,39,40
 127 213 127 213 128 212 c 2,41,-1
 130 207 l 2,42,43
 132 206 132 206 137 206 c 0,44,45
 139 206 139 206 143 208 c 0,46,47
 169 223 169 223 190 239 c 0,48,49
 209 253 209 253 233 277 c 0,50,51
 237 281 237 281 242 288 c 128,-1,52
 247 295 247 295 247 302 c 0,53,54
 247 311 247 311 241 315 c 0,55,56
 240 316 240 316 234 319 c 0,57,58
 233 320 233 320 231 320 c 2,59,-1
 228 320 l 1,60,-1
 219 322 l 1,61,-1
 218 323 l 1,62,-1
 217 323 l 2,63,64
 216 323 216 323 216 324 c 0,65,66
 214 326 214 326 214 329 c 2,67,-1
 214 330 l 2,68,69
 215 331 215 331 215 332 c 128,-1,70
 215 333 215 333 215.5 334 c 128,-1,71
 216 335 216 335 218 335 c 2,72,-1
 220 335 l 2,73,74
 267 333 267 333 291 333 c 0,75,76
 348 333 348 333 376 334 c 2,77,-1
 379 334 l 2,78,79
 381 334 381 334 381 332 c 0,80,81
 381 331 381 331 381.5 331 c 128,-1,82
 382 331 382 331 382 330 c 2,83,-1
 382 329 l 1,84,-1
 381 327 l 1,85,-1
 381 324 l 1,86,-1
 379 322 l 1,87,-1
 377 320 l 1,88,-1
 374 320 l 2,89,90
 346 317 346 317 320 306 c 0,91,92
 304 299 304 299 272 277 c 2,93,-1
 193 221 l 1,94,-1
 191 220 l 1,95,-1
 189 219 l 2,96,97
 187 217 187 217 187 216 c 2,98,-1
 187 212 l 1,99,-1
 188 210 l 2,100,101
 189 208 189 208 190 208 c 2,102,-1
 287 112 l 1,103,-1
 377 29 l 2,104,105
 383 23 383 23 387 22 c 0,106,107
 395 18 395 18 398 17 c 2,108,-1
 411 14 l 2,109,110
 412 14 412 14 413 13.5 c 128,-1,111
 414 13 414 13 415 13 c 2,112,-1
 417 11 l 1,113,-1
 419 9 l 1,114,-1
 419 6 l 2,115,116
 419 4 419 4 418 3 c 2,117,-1
 415 0 l 2,118,119
 414 -1 414 -1 412 -1 c 2,120,-1
 408 -1 l 2,121,122
 378 2 378 2 348 2 c 0,123,124
 311 3 311 3 264 0 c 2,125,-1
 261 0 l 2,126,127
 259 0 259 0 259 2 c 2,128,-1
 259 4 l 1,129,-1
 259 5 l 1,130,-1
 258 6 l 1,131,-1
 258 9 l 2,132,133
 258 10 258 10 258.5 9.5 c 128,-1,134
 259 9 259 9 259 10 c 0,135,136
 259 12 259 12 260 12 c 2,137,-1
 263 12 l 1,138,-1
 281 15 l 2,139,140
 284 15 284 15 287 17 c 0,141,142
 288 17 288 17 290 19 c 0,143,144
 291 19 291 19 291 20 c 128,-1,145
 291 21 291 21 292 22 c 128,-1,146
 293 23 293 23 293 25 c 0,147,148
 293 28 293 28 292 28 c 0,149,150
 290 32 290 32 287 35 c 2,151,-1
 226 100 l 1,152,-1
 146 181 l 2,153,154
 143 184 143 184 141 184 c 0,155,156
 137 186 137 186 135 185 c 0,157,158
 132 183 132 183 130 181 c 0,159,160
 129 179 129 179 130 175 c 0,161,162
 129 136 129 136 130 98 c 2,163,-1
 132 37 l 2,164,165
 132 32 132 32 133 30 c 2,166,-1
 135 28 l 1,167,-1
 136 26 l 2,168,169
 137 24 137 24 141 22 c 0,170,171
 142 21 142 21 144 20 c 2,172,-1
 147 19 l 1,173,-1
 159 16 l 2,174,175
 161 15 161 15 166.5 14 c 128,-1,176
 172 13 172 13 174 13 c 2,177,-1
 177 13 l 1,178,-1
 179 11 l 2,179,180
 181 9 181 9 181 7 c 2,181,-1
 181 5 l 2,182,183
 181 3 181 3 180 2 c 128,-1,184
 179 1 179 1 178 1 c 2,185,-1
 175 1 l 2,186,187
 154 2 154 2 113 2 c 0,188,189
 85 2 85 2 28 -2 c 1,190,-1
 26 -2 l 2,191,192
 25 -2 25 -2 24 -1 c 2,193,-1
 22 1 l 1,194,-1
 22 4 l 2,195,196
 22 8 22 8 23 8.5 c 128,-1,197
 24 9 24 9 25 9 c 2,198,-1
 26 9 l 1,199,-1
 27 10 l 1,200,-1
 49 16 l 2,201,202
 52 17 52 17 60 21 c 0,203,204
 66 24 66 24 69 29 c 0,205,206
 71 33 71 33 73 41 c 0,207,208
 74 45 74 45 74 52 c 0,209,210
 79 187 79 187 79 321 c 0,0,1
EndSplineSet
EndChar
StartChar: l
Encoding: 108 108 107
Width: 236
Flags: W
LayerCount: 2
Fore
SplineSet
95 596 m 2,0,1
 136 617 136 617 149 626 c 0,2,3
 150 627 150 627 153 627 c 2,4,-1
 156 627 l 2,5,6
 157 627 157 627 158 626 c 0,7,8
 160 624 160 624 160 621 c 0,9,10
 160 620 160 620 159.5 618.5 c 128,-1,11
 159 617 159 617 159 616 c 0,12,13
 149 574 149 574 148 512 c 0,14,15
 148 495 148 495 147.5 459.5 c 128,-1,16
 147 424 147 424 147 406 c 0,17,18
 145 243 145 243 147 164 c 0,19,20
 147 130 147 130 148 63 c 0,21,22
 148 52 148 52 149 46.5 c 128,-1,23
 150 41 150 41 156 31 c 0,24,25
 160 24 160 24 169 21 c 0,26,27
 178 17 178 17 185 16 c 2,28,-1
 213 11 l 1,29,-1
 216 11 l 1,30,-1
 217 9 l 2,31,32
 218 8 218 8 218 7 c 2,33,-1
 218 4 l 1,34,-1
 218 1 l 1,35,-1
 216 -1 l 1,36,-1
 215 -2 l 1,37,-1
 212 -2 l 2,38,39
 157 0 157 0 130 0 c 0,40,41
 76 0 76 0 32 -4 c 1,42,-1
 29 -4 l 2,43,44
 27 -4 27 -4 26 -3 c 2,45,-1
 25 -1 l 2,46,47
 24 0 24 0 24 2 c 0,48,49
 24 6 24 6 25 7 c 2,50,-1
 26 9 l 1,51,-1
 27 9 l 1,52,-1
 29 9 l 1,53,-1
 40 13 l 2,54,55
 57 19 57 19 68 28 c 0,56,57
 78 37 78 37 85 54 c 0,58,59
 91 70 91 70 91 85 c 2,60,-1
 91 117 l 2,61,62
 93 264 93 264 93 337 c 2,63,-1
 93 479 l 2,64,65
 93 506 93 506 89 528 c 2,66,-1
 86 540 l 2,67,68
 84 544 84 544 78 549 c 0,69,70
 74 553 74 553 68 555 c 0,71,72
 64 556 64 556 56 556 c 2,73,-1
 45 556 l 1,74,-1
 43 556 l 2,75,76
 42 556 42 556 42 556.5 c 128,-1,77
 42 557 42 557 41 557 c 0,78,79
 38 558 38 558 37 561 c 0,80,81
 36 562 36 562 36 563 c 2,82,-1
 36 567 l 2,83,84
 36 568 36 568 38 570 c 0,85,86
 39 571 39 571 41 571 c 2,87,-1
 95 596 l 2,0,1
EndSplineSet
EndChar
StartChar: n
Encoding: 110 110 109
Width: 446
Flags: W
LayerCount: 2
Fore
SplineSet
176 292 m 0,0,1
 213 310 213 310 235 317 c 0,2,3
 286 331 286 331 320 318 c 0,4,5
 346 309 346 309 359 285 c 0,6,7
 366 276 366 276 369 261 c 0,8,9
 370 257 370 257 370.5 253 c 128,-1,10
 371 249 371 249 371.5 243.5 c 128,-1,11
 372 238 372 238 372 235 c 0,12,13
 374 201 374 201 375 133 c 0,14,15
 376 88 376 88 375 43 c 2,16,-1
 375 36 l 2,17,18
 375 33 375 33 377 29 c 0,19,20
 379 26 379 26 382 25 c 2,21,-1
 388 22 l 1,22,-1
 421 9 l 1,23,-1
 424 8 l 2,24,25
 427 7 427 7 427.5 6 c 128,-1,26
 428 5 428 5 428 2 c 2,27,-1
 428 -1 l 2,28,29
 428 -3 428 -3 427 -4 c 0,30,31
 426 -6 426 -6 424 -6 c 2,32,-1
 417 -6 l 1,33,34
 386 0 386 0 354 0 c 0,35,36
 309 0 309 0 271 -8 c 0,37,38
 270 -8 270 -8 268.5 -8.5 c 128,-1,39
 267 -9 267 -9 266 -9 c 0,40,41
 263 -9 263 -9 262 -8 c 0,42,43
 261 -8 261 -8 261 -7 c 128,-1,44
 261 -6 261 -6 260 -5 c 128,-1,45
 259 -4 259 -4 259 -2 c 0,46,47
 259 -1 259 -1 261 1 c 0,48,49
 261 2 261 2 262 2 c 2,50,-1
 263 4 l 2,51,52
 264 5 264 5 266 5 c 2,53,-1
 291 14 l 2,54,55
 299 17 299 17 303 21 c 0,56,57
 309 25 309 25 312 31 c 0,58,59
 316 38 316 38 317 44 c 0,60,61
 318 47 318 47 318 51 c 128,-1,62
 318 55 318 55 319 58 c 0,63,64
 324 101 324 101 323 134 c 0,65,66
 323 172 323 172 320 210 c 0,67,68
 318 231 318 231 315 240 c 0,69,70
 308 256 308 256 298.5 265.5 c 128,-1,71
 289 275 289 275 273 282 c 0,72,73
 264 286 264 286 244 287 c 0,74,75
 206 288 206 288 169 274 c 0,76,77
 152 267 152 267 134 257 c 1,78,-1
 131 70 l 1,79,-1
 131 51 l 2,80,81
 131 39 131 39 133 33 c 0,82,83
 136 24 136 24 144 18 c 0,84,85
 150 13 150 13 161 11 c 2,86,-1
 188 6 l 1,87,-1
 189 6 l 1,88,-1
 191 5 l 1,89,-1
 193 3 l 1,90,-1
 195 1 l 1,91,-1
 195 -2 l 1,92,-1
 195 -3 l 2,93,94
 194 -4 194 -4 194 -5 c 0,95,96
 194 -7 194 -7 192 -7 c 2,97,-1
 189 -7 l 1,98,-1
 186 -7 l 2,99,100
 176 -5 176 -5 155 -3 c 0,101,102
 126 0 126 0 66 -2 c 2,103,-1
 29 -3 l 1,104,-1
 26 -3 l 2,105,106
 25 -3 25 -3 24 -1 c 0,107,108
 23 0 23 0 23 3 c 2,109,-1
 23 6 l 2,110,111
 24 8 24 8 25.5 9.5 c 128,-1,112
 27 11 27 11 29 11 c 2,113,-1
 37 13 l 2,114,115
 48 17 48 17 54 20 c 0,116,117
 63 25 63 25 68 31 c 0,118,119
 72 36 72 36 76 47 c 0,120,121
 79 56 79 56 78 65 c 0,122,123
 81 106 81 106 81 147 c 0,124,125
 81 182 81 182 80 199 c 0,126,127
 78 229 78 229 76 245 c 0,128,129
 72 260 72 260 68 266 c 0,130,131
 64 271 64 271 60 273 c 0,132,133
 55 277 55 277 50 278 c 2,134,-1
 29 285 l 1,135,-1
 27 285 l 1,136,-1
 26 287 l 2,137,138
 25 287 25 287 26 288 c 2,139,-1
 26 290 l 1,140,-1
 27 291 l 2,141,142
 28 292 28 292 29 292 c 0,143,144
 61 303 61 303 77 310 c 0,145,146
 117 328 117 328 121 330 c 0,147,148
 123 332 123 332 125 332 c 0,149,150
 129 332 129 332 130 331 c 0,151,152
 132 329 132 329 131 327 c 0,153,154
 131 326 131 326 131.5 324.5 c 128,-1,155
 132 323 132 323 132 322 c 2,156,-1
 133 268 l 1,157,158
 153 281 153 281 176 292 c 0,0,1
EndSplineSet
EndChar
StartChar: u
Encoding: 117 117 116
Width: 449
Flags: W
LayerCount: 2
Fore
SplineSet
130 239 m 0,0,1
 128 213 128 213 128 163 c 128,-1,2
 128 113 128 113 133 89 c 0,3,4
 137 74 137 74 141 66 c 0,5,6
 148 54 148 54 156 47 c 0,7,8
 173 33 173 33 199 33 c 0,9,10
 222 32 222 32 253 43 c 0,11,12
 278 52 278 52 310 71 c 1,13,14
 312 115 312 115 314 200 c 0,15,16
 314 211 314 211 314.5 234 c 128,-1,17
 315 257 315 257 315 268 c 0,18,19
 315 278 315 278 313 284 c 0,20,21
 310 292 310 292 304 295 c 0,22,23
 299 299 299 299 290 301 c 2,24,-1
 274 301 l 1,25,-1
 267 301 l 1,26,-1
 264 301 l 1,27,-1
 263 301 l 1,28,-1
 261 302 l 1,29,-1
 260 302 l 1,30,-1
 259 303 l 1,31,-1
 259 304 l 1,32,-1
 259 306 l 1,33,-1
 260 310 l 1,34,-1
 261 311 l 1,35,-1
 261 312 l 2,36,37
 261 313 261 313 262 314 c 128,-1,38
 263 315 263 315 264 315 c 128,-1,39
 265 315 265 315 265 315.5 c 128,-1,40
 265 316 265 316 266 316 c 0,41,42
 284 319 284 319 318 326 c 0,43,44
 340 331 340 331 371 339 c 1,45,-1
 372 340 l 1,46,-1
 373 340 l 1,47,-1
 375 339 l 2,48,49
 376 338 376 338 376 337 c 2,50,-1
 376 334 l 1,51,-1
 376 330 l 2,52,53
 375 304 375 304 371 239.5 c 128,-1,54
 367 175 367 175 366 140 c 0,55,56
 364 106 364 106 367 79 c 0,57,58
 369 54 369 54 372 33 c 0,59,60
 372 32 372 32 372.5 31 c 128,-1,61
 373 30 373 30 373 29 c 0,62,63
 373 27 373 27 375 25.5 c 128,-1,64
 377 24 377 24 379 24 c 0,65,66
 380 24 380 24 381 24.5 c 128,-1,67
 382 25 382 25 383 25 c 2,68,-1
 423 33 l 1,69,-1
 425 33 l 2,70,71
 426 33 426 33 427 32 c 2,72,-1
 429 30 l 1,73,-1
 429 29 l 1,74,-1
 430 28 l 1,75,-1
 431 27 l 1,76,-1
 431 26 l 2,77,78
 431 25 431 25 430.5 25 c 128,-1,79
 430 25 430 25 430 24 c 0,80,81
 430 22 430 22 429 22 c 2,82,-1
 428 21 l 1,83,-1
 426 21 l 1,84,-1
 379 6 l 1,85,-1
 332 -9 l 2,86,87
 331 -9 331 -9 330 -9.5 c 128,-1,88
 329 -10 329 -10 328 -10 c 2,89,-1
 324 -10 l 1,90,-1
 321 -8 l 2,91,92
 319 -6 319 -6 320 -4 c 2,93,-1
 314 25 l 2,94,95
 312 37 312 37 310 54 c 1,96,97
 293 44 293 44 257 26 c 0,98,99
 204 1 204 1 175 -2 c 0,100,101
 158 -5 158 -5 141 -2 c 0,102,103
 122 1 122 1 109 10 c 0,104,105
 93 21 93 21 82 45 c 0,106,107
 74 64 74 64 73 88 c 0,108,109
 71 115 71 115 73 171 c 0,110,111
 74 198 74 198 74 253 c 0,112,113
 74 263 74 263 73 268 c 0,114,115
 71 277 71 277 66 283 c 0,116,117
 59 290 59 290 54 290 c 0,118,119
 45 292 45 292 38 290 c 2,120,-1
 29 289 l 1,121,-1
 27 289 l 2,122,123
 26 289 26 289 26 290 c 1,124,125
 25 290 25 290 25 291 c 2,126,-1
 25 292 l 1,127,-1
 24 293 l 1,128,-1
 23 294 l 1,129,-1
 23 296 l 2,130,131
 23 297 23 297 23.5 297 c 128,-1,132
 24 297 24 297 24 298 c 128,-1,133
 24 299 24 299 25 300 c 2,134,-1
 26 301 l 1,135,136
 56 311 56 311 83 322 c 0,137,138
 104 331 104 331 128 344 c 1,139,-1
 129 344 l 1,140,-1
 130 344 l 2,141,142
 132 344 132 344 134 342 c 2,143,-1
 135 342 l 1,144,-1
 136 341 l 2,145,146
 137 341 137 341 137 340 c 2,147,-1
 138 339 l 1,148,-1
 138 338 l 1,149,-1
 138 337 l 1,150,-1
 135 306 l 2,151,152
 136 306 136 306 130 239 c 0,0,1
EndSplineSet
EndChar
StartChar: v
Encoding: 118 118 117
Width: 370
Flags: W
LayerCount: 2
Fore
SplineSet
107 171 m 0,0,1
 91 212 91 212 55 291 c 0,2,3
 51 299 51 299 48 301.5 c 128,-1,4
 45 304 45 304 38 308 c 2,5,-1
 23 314 l 1,6,-1
 21 315 l 1,7,-1
 19 316 l 2,8,9
 16 319 16 319 16 320 c 2,10,-1
 16 321 l 2,11,12
 16 322 16 322 18 324 c 0,13,14
 19 325 19 325 20 325 c 2,15,-1
 23 325 l 2,16,17
 46 324 46 324 90 324 c 0,18,19
 116 324 116 324 164 328 c 1,20,-1
 167 328 l 2,21,22
 168 328 168 328 168 327.5 c 128,-1,23
 168 327 168 327 169 327 c 0,24,25
 171 327 171 327 171 325 c 2,26,-1
 172 324 l 1,27,-1
 172 323 l 2,28,29
 172 322 172 322 170 320 c 2,30,-1
 168 319 l 2,31,32
 166 318 166 318 164 318 c 2,33,-1
 139 313 l 2,34,35
 138 312 138 312 135 311 c 128,-1,36
 132 310 132 310 131 310 c 0,37,38
 127 309 127 309 125 304 c 0,39,40
 123 301 123 301 123 297 c 0,41,42
 123 291 123 291 124 288 c 0,43,44
 133 245 133 245 147 203 c 0,45,46
 159 165 159 165 178 116 c 2,47,-1
 199 64 l 1,48,-1
 219 108 l 2,49,50
 256 184 256 184 265 208 c 0,51,52
 275 239 275 239 282 268 c 0,53,54
 284 279 284 279 284 285 c 0,55,56
 284 294 284 294 280 301 c 0,57,58
 276 309 276 309 268 312 c 0,59,60
 263 315 263 315 252 317 c 2,61,-1
 242 319 l 1,62,-1
 240 319 l 1,63,-1
 238 320 l 2,64,65
 236 322 236 322 236 324 c 2,66,-1
 236 327 l 1,67,-1
 239 330 l 2,68,69
 240 331 240 331 242 331 c 2,70,-1
 245 331 l 2,71,72
 274 328 274 328 306 328 c 0,73,74
 327 328 327 328 349 331 c 2,75,-1
 353 331 l 1,76,-1
 354 330 l 2,77,78
 355 329 355 329 354 328 c 2,79,-1
 354 326 l 1,80,-1
 354 325 l 1,81,-1
 352 322 l 1,82,-1
 349 320 l 2,83,84
 331 309 331 309 321 296 c 0,85,86
 314 287 314 287 305 264 c 2,87,-1
 281 206 l 1,88,-1
 233 102 l 2,89,90
 216 65 216 65 197 16 c 2,91,-1
 185 -13 l 1,92,-1
 185 -14 l 2,93,94
 184 -15 184 -15 184 -16 c 128,-1,95
 184 -17 184 -17 183.5 -17 c 128,-1,96
 183 -17 183 -17 183 -18 c 0,97,98
 184 -20 184 -20 182 -20 c 2,99,-1
 181 -21 l 1,100,-1
 179 -21 l 1,101,-1
 176 -21 l 1,102,-1
 175 -21 l 1,103,-1
 174 -20 l 2,104,105
 172 -20 172 -20 172 -18 c 0,106,107
 172 -17 172 -17 171.5 -17 c 128,-1,108
 171 -17 171 -17 171 -16 c 128,-1,109
 171 -15 171 -15 170 -13 c 2,110,-1
 160 21 l 2,111,112
 134 102 134 102 107 171 c 0,0,1
EndSplineSet
EndChar
StartChar: x
Encoding: 120 120 119
Width: 395
Flags: W
LayerCount: 2
Fore
SplineSet
234 322 m 1,0,-1
 234 325 l 2,1,2
 234 326 234 326 236 328 c 0,3,4
 237 329 237 329 238 329 c 2,5,-1
 241 329 l 2,6,7
 260 327 260 327 298 327 c 0,8,9
 328 327 328 327 356 330 c 2,10,-1
 359 330 l 2,11,12
 362 330 362 330 363 329 c 0,13,14
 365 327 365 327 365 326 c 2,15,-1
 365 323 l 2,16,17
 365 322 365 322 363 320 c 0,18,19
 363 319 363 319 362 320 c 2,20,-1
 361 318 l 2,21,22
 360 318 360 318 357.5 317 c 128,-1,23
 355 316 355 316 354 316 c 0,24,25
 342 312 342 312 330 302 c 0,26,27
 322 296 322 296 311 284 c 2,28,-1
 271 239 l 1,29,-1
 220 181 l 1,30,-1
 263 106 l 1,31,-1
 302 37 l 2,32,33
 306 30 306 30 314 24 c 0,34,35
 321 19 321 19 330 17 c 2,36,-1
 357 12 l 1,37,-1
 359 12 l 2,38,39
 361 12 361 12 362 11 c 0,40,41
 364 9 364 9 364 6.5 c 128,-1,42
 364 4 364 4 363 3 c 0,43,44
 363 2 363 2 362 1 c 128,-1,45
 361 0 361 0 361 -1 c 128,-1,46
 361 -2 361 -2 359 -3 c 2,47,-1
 357 -4 l 1,48,-1
 355 -4 l 1,49,-1
 354 -4 l 2,50,51
 336 -2 336 -2 298 0 c 0,52,53
 257 2 257 2 216 -3 c 1,54,-1
 214 -3 l 1,55,-1
 213 -2 l 1,56,-1
 212 -2 l 2,57,58
 211 -2 211 -2 211 -1 c 128,-1,59
 211 0 211 0 210.5 0 c 128,-1,60
 210 0 210 0 210 1 c 2,61,-1
 210 3 l 1,62,-1
 210 6 l 2,63,64
 210 7 210 7 211 7 c 128,-1,65
 212 7 212 7 212 7.5 c 128,-1,66
 212 8 212 8 213 8 c 2,67,-1
 235 12 l 2,68,69
 237 12 237 12 239 14 c 2,70,-1
 241 16 l 2,71,72
 242 17 242 17 243 17 c 2,73,-1
 243 22 l 2,74,75
 243 25 243 25 242 26 c 0,76,77
 229 59 229 59 210 95 c 0,78,79
 202 110 202 110 185 138 c 1,80,81
 173 126 173 126 150 99 c 0,82,83
 134 79 134 79 114 50 c 0,84,85
 113 48 113 48 111 45 c 128,-1,86
 109 42 109 42 108 40 c 0,87,88
 106 36 106 36 106 27 c 0,89,90
 106 22 106 22 112 17 c 0,91,92
 115 14 115 14 123 12 c 2,93,-1
 140 9 l 1,94,-1
 141 8 l 1,95,-1
 143 8 l 2,96,97
 144 8 144 8 145 7 c 0,98,99
 147 5 147 5 147 2 c 2,100,-1
 146 1 l 1,101,-1
 146 -1 l 2,102,103
 146 -2 146 -2 145 -3 c 128,-1,104
 144 -4 144 -4 142 -4 c 2,105,-1
 139 -4 l 2,106,107
 120 -2 120 -2 83 -2 c 0,108,109
 58 -2 58 -2 33 -5 c 2,110,-1
 30 -5 l 2,111,112
 29 -5 29 -5 27 -3 c 0,113,114
 26 -2 26 -2 26 0 c 2,115,-1
 26 3 l 1,116,-1
 26 6 l 1,117,-1
 26 7 l 1,118,-1
 27 8 l 2,119,120
 27 10 27 10 28 9 c 2,121,-1
 29 9 l 2,122,123
 30 10 30 10 31 10 c 2,124,-1
 34 11 l 2,125,126
 36 12 36 12 41.5 14 c 128,-1,127
 47 16 47 16 49 17 c 0,128,129
 52 18 52 18 56 22 c 0,130,131
 57 23 57 23 59 24.5 c 128,-1,132
 61 26 61 26 62 27 c 2,133,-1
 175 158 l 1,134,135
 159 189 159 189 138 224 c 0,136,137
 117 256 117 256 110 268 c 0,138,139
 93 291 93 291 84 298 c 0,140,141
 76 306 76 306 67 308 c 0,142,143
 60 310 60 310 47 312 c 2,144,-1
 38 313 l 1,145,-1
 36 313 l 1,146,-1
 34 313 l 2,147,148
 32 313 32 313 32 315 c 2,149,-1
 32 317 l 1,150,-1
 32 320 l 1,151,-1
 32 322 l 2,152,153
 32 324 32 324 33 324 c 128,-1,154
 34 324 34 324 36 325 c 2,155,-1
 38 325 l 1,156,-1
 113 325 l 2,157,158
 134 325 134 325 180 327 c 2,159,-1
 182 327 l 1,160,-1
 184 325 l 2,161,162
 185 324 185 324 185 323 c 2,163,-1
 185 322 l 2,164,165
 186 321 186 321 186 320 c 1,166,167
 185 320 185 320 185 319 c 128,-1,168
 185 318 185 318 184.5 318 c 128,-1,169
 184 318 184 318 184 317 c 0,170,171
 184 315 184 315 183 315 c 2,172,-1
 181 315 l 1,173,-1
 169 314 l 2,174,175
 167 314 167 314 164 312 c 0,176,177
 162 311 162 311 160 307 c 0,178,179
 159 304 159 304 160 302 c 0,180,181
 161 301 161 301 161 298.5 c 128,-1,182
 161 296 161 296 162 295 c 2,183,-1
 179 258 l 1,184,-1
 210 197 l 1,185,-1
 263 260 l 2,186,187
 274 275 274 275 278 287 c 0,188,189
 279 290 279 290 279 296 c 0,190,191
 279 301 279 301 277 303 c 0,192,193
 274 308 274 308 270 309 c 0,194,195
 268 310 268 310 266.5 311 c 128,-1,196
 265 312 265 312 263 312 c 2,197,-1
 240 316 l 1,198,-1
 239 316 l 2,199,200
 238 317 238 317 237 317 c 128,-1,201
 236 317 236 317 235 318 c 128,-1,202
 234 319 234 319 234 320 c 2,203,-1
 234 322 l 1,0,-1
EndSplineSet
EndChar
StartChar: y
Encoding: 121 121 120
Width: 400
Flags: W
LayerCount: 2
Fore
SplineSet
96 326 m 0,0,1
 130 326 130 326 163 329 c 2,2,-1
 165 329 l 2,3,4
 166 329 166 329 166 328.5 c 128,-1,5
 166 328 166 328 167 328 c 0,6,7
 169 328 169 328 169 327 c 2,8,-1
 170 326 l 1,9,-1
 170 324 l 1,10,-1
 170 323 l 1,11,-1
 169 321 l 2,12,13
 169 320 169 320 167 320 c 0,14,15
 163 318 163 318 163 319 c 2,16,-1
 152 317 l 2,17,18
 148 317 148 317 145 315 c 2,19,-1
 139 312 l 2,20,21
 135 308 135 308 134 306 c 0,22,23
 132 302 132 302 132 299 c 0,24,25
 131 286 131 286 136 266 c 2,26,-1
 159 181 l 2,27,28
 178 114 178 114 201 41 c 1,29,30
 239 101 239 101 267 164 c 0,31,32
 279 191 279 191 300 248 c 1,33,-1
 305 265 l 2,34,35
 308 274 308 274 308 282 c 128,-1,36
 308 290 308 290 302 299 c 0,37,38
 297 305 297 305 287 309 c 0,39,40
 281 312 281 312 270 316 c 0,41,42
 264 318 264 318 251 320 c 2,43,-1
 249 320 l 1,44,-1
 247 322 l 2,45,46
 247 323 247 323 246.5 324 c 128,-1,47
 246 325 246 325 246 326 c 128,-1,48
 246 327 246 327 248 329 c 2,49,-1
 251 332 l 1,50,-1
 252 333 l 1,51,-1
 254 333 l 2,52,53
 255 333 255 333 255 332.5 c 128,-1,54
 255 332 255 332 256 332 c 0,55,56
 280 327 280 327 311 325 c 0,57,58
 350 323 350 323 378 327 c 1,59,-1
 381 327 l 1,60,-1
 384 327 l 2,61,62
 386 327 386 327 386 325 c 2,63,-1
 386 324 l 2,64,65
 387 323 387 323 387 322 c 128,-1,66
 387 321 387 321 386 320 c 2,67,-1
 384 318 l 2,68,69
 383 317 383 317 382 317 c 0,70,71
 380 316 380 316 379 316 c 128,-1,72
 378 316 378 316 376 315 c 128,-1,73
 374 314 374 314 373 314 c 128,-1,74
 372 314 372 314 370.5 313 c 128,-1,75
 369 312 369 312 368 312 c 0,76,77
 366 311 366 311 359 304 c 0,78,79
 346 290 346 290 337 269 c 2,80,-1
 214 24 l 2,81,82
 176 -51 176 -51 147 -128 c 0,83,84
 118 -202 118 -202 99 -276 c 1,85,-1
 99 -280 l 2,86,87
 99 -283 99 -283 98 -284 c 2,88,-1
 95 -286 l 1,89,-1
 94 -286 l 1,90,-1
 92 -286 l 2,91,92
 83 -285 83 -285 65 -285 c 0,93,94
 38 -285 38 -285 24 -286 c 2,95,-1
 21 -286 l 1,96,-1
 20 -285 l 1,97,-1
 18 -285 l 2,98,99
 17 -285 17 -285 17 -284 c 2,100,-1
 16 -282 l 1,101,-1
 16 -280 l 2,102,103
 16 -279 16 -279 18 -277 c 0,104,105
 19 -276 19 -276 20 -276 c 0,106,107
 22 -275 22 -275 23 -275 c 0,108,109
 51 -263 51 -263 70 -237 c 0,110,111
 83 -220 83 -220 99 -184 c 2,112,-1
 169 -29 l 1,113,114
 135 98 135 98 102 193 c 2,115,-1
 79 253 l 2,116,117
 70 276 70 276 60 295 c 0,118,119
 53 306 53 306 51 308 c 128,-1,120
 49 310 49 310 44 312 c 0,121,122
 43 312 43 312 40.5 313 c 128,-1,123
 38 314 38 314 37 315 c 2,124,-1
 25 318 l 2,125,126
 22 318 22 318 20 320 c 2,127,-1
 19 320 l 1,128,-1
 19 321 l 1,129,-1
 18 323 l 1,130,-1
 19 324 l 1,131,-1
 19 325 l 2,132,133
 19 327 19 327 21 327 c 2,134,-1
 23 327 l 1,135,-1
 26 327 l 2,136,137
 49 326 49 326 96 326 c 0,0,1
EndSplineSet
EndChar
StartChar: uni0080
Encoding: 128 128 127
Width: 790
Flags: W
LayerCount: 2
Fore
SplineSet
565 170 m 1,0,-1
 565 15 l 1,1,-1
 573 15 l 1,2,-1
 582 15 l 2,3,4
 584 15 584 15 589.5 15.5 c 128,-1,5
 595 16 595 16 598 16 c 2,6,-1
 605 18 l 2,7,8
 610 19 610 19 613 20.5 c 128,-1,9
 616 22 616 22 619.5 24 c 128,-1,10
 623 26 623 26 627 29 c 0,11,12
 648 48 648 48 648 90 c 0,13,14
 648 142 648 142 620 161 c 0,15,16
 615 164 615 164 610 166 c 128,-1,17
 605 168 605 168 598 169 c 128,-1,18
 591 170 591 170 588 170 c 2,19,-1
 576 170 l 1,20,-1
 565 170 l 1,0,-1
503 187 m 1,21,-1
 580 187 l 2,22,23
 625 187 625 187 644 176 c 0,24,25
 670 160 670 160 678.5 129.5 c 128,-1,26
 687 99 687 99 681 65 c 0,27,28
 675 26 675 26 649 10 c 0,29,30
 628 -3 628 -3 580 -2 c 2,31,-1
 503 -2 l 1,32,-1
 503 7 l 1,33,34
 524 7 524 7 528 20 c 0,35,36
 529 24 529 24 529.5 30 c 128,-1,37
 530 36 530 36 529.5 43.5 c 128,-1,38
 529 51 529 51 529 54 c 2,39,-1
 529 126 l 2,40,41
 529 129 529 129 529.5 138 c 128,-1,42
 530 147 530 147 530 154 c 128,-1,43
 530 161 530 161 528 165 c 0,44,45
 525 173 525 173 519.5 175 c 128,-1,46
 514 177 514 177 503 177 c 1,47,-1
 503 187 l 1,21,-1
388 353 m 1,48,-1
 363 294 l 1,49,-1
 412 294 l 1,50,-1
 397 332 l 1,51,-1
 388 353 l 1,48,-1
287 223 m 1,52,53
 300 223 300 223 304 225 c 128,-1,54
 308 227 308 227 311.5 230 c 128,-1,55
 315 233 315 233 318 238 c 2,56,-1
 322 246 l 2,57,58
 323 249 323 249 325.5 255.5 c 128,-1,59
 328 262 328 262 329 264 c 2,60,-1
 369 360 l 1,61,-1
 383 391 l 2,62,63
 387 401 387 401 389 402 c 0,64,65
 393 405 393 405 397.5 403.5 c 128,-1,66
 402 402 402 402 404 401.5 c 128,-1,67
 406 401 406 401 408 397 c 2,68,-1
 411 391 l 2,69,70
 412 389 412 389 414 384 c 128,-1,71
 416 379 416 379 417 377 c 2,72,-1
 457 282 l 1,73,-1
 469 252 l 2,74,75
 473 243 473 243 471 242 c 1,76,77
 480 224 480 224 504 223 c 1,78,-1
 504 213 l 1,79,-1
 416 213 l 1,80,-1
 416 223 l 1,81,-1
 428 223 l 2,82,83
 432 224 432 224 434 227 c 128,-1,84
 436 230 436 230 435 235 c 128,-1,85
 434 240 434 240 433 243 c 128,-1,86
 432 246 432 246 429.5 251.5 c 128,-1,87
 427 257 427 257 427 258 c 128,-1,88
 427 259 427 259 425 263.5 c 128,-1,89
 423 268 423 268 422 270 c 128,-1,90
 421 272 421 272 418.5 274.5 c 128,-1,91
 416 277 416 277 413 277 c 2,92,-1
 374 277 l 2,93,94
 360 277 360 277 358 276 c 0,95,96
 357 275 357 275 352 264 c 0,97,98
 351 263 351 263 348.5 257.5 c 128,-1,99
 346 252 346 252 345 248.5 c 128,-1,100
 344 245 344 245 342.5 240.5 c 128,-1,101
 341 236 341 236 342 232 c 128,-1,102
 343 228 343 228 346 226 c 0,103,104
 348 224 348 224 362 223 c 1,105,-1
 362 213 l 1,106,-1
 287 213 l 1,107,-1
 287 223 l 1,52,53
176 535 m 1,108,109
 202 532 202 532 209 532 c 0,110,111
 220 533 220 533 229 538 c 0,112,113
 243 545 243 545 246 561.5 c 128,-1,114
 249 578 249 578 237 589 c 0,115,116
 226 600 226 600 200 600 c 0,117,118
 179 600 179 600 177 596 c 0,119,120
 176 595 176 595 176 579 c 2,121,-1
 176 535 l 1,108,109
114 618 m 1,122,123
 198 618 198 618 211 617 c 0,124,125
 245 615 245 615 260 606 c 0,126,127
 281 593 281 593 281.5 565.5 c 128,-1,128
 282 538 282 538 261 525 c 0,129,130
 254 521 254 521 246 518.5 c 128,-1,131
 238 516 238 516 228 515 c 128,-1,132
 218 514 218 514 211 514 c 2,133,-1
 192 514 l 1,134,-1
 176 514 l 1,135,-1
 176 465 l 2,136,137
 176 446 176 446 185 440 c 0,138,139
 188 438 188 438 202 439 c 1,140,-1
 202 428 l 1,141,-1
 114 428 l 1,142,-1
 114 438 l 1,143,144
 134 438 134 438 139 451 c 0,145,146
 141 456 141 456 141.5 462.5 c 128,-1,147
 142 469 142 469 141.5 478.5 c 128,-1,148
 141 488 141 488 141 491 c 2,149,-1
 141 562 l 2,150,151
 141 564 141 564 141.5 572 c 128,-1,152
 142 580 142 580 141.5 585.5 c 128,-1,153
 141 591 141 591 139 595 c 0,154,155
 136 603 136 603 130.5 605.5 c 128,-1,156
 125 608 125 608 114 608 c 1,157,-1
 114 618 l 1,122,123
EndSplineSet
EndChar
StartChar: uni0087
Encoding: 135 135 134
Width: 790
Flags: W
LayerCount: 2
Fore
SplineSet
585 137 m 1,0,-1
 561 78 l 1,1,-1
 610 78 l 1,2,-1
 595 116 l 1,3,-1
 585 137 l 1,0,-1
347 277 m 1,4,5
 350 239 350 239 381 231 c 0,6,7
 398 227 398 227 413 233 c 128,-1,8
 428 239 428 239 427 256 c 0,9,10
 426 272 426 272 397 288 c 0,11,12
 394 290 394 290 387 294 c 128,-1,13
 380 298 380 298 376 300.5 c 128,-1,14
 372 303 372 303 365 307 c 128,-1,15
 358 311 358 311 354 314.5 c 128,-1,16
 350 318 350 318 345 323 c 128,-1,17
 340 328 340 328 337.5 332.5 c 128,-1,18
 335 337 335 337 333 343 c 128,-1,19
 331 349 331 349 331.5 355.5 c 128,-1,20
 332 362 332 362 334 368 c 0,21,22
 340 386 340 386 357.5 395.5 c 128,-1,23
 375 405 375 405 395 403 c 0,24,25
 407 402 407 402 419 397 c 0,26,27
 428 393 428 393 430 395 c 0,28,29
 432 396 432 396 434 404 c 1,30,-1
 447 404 l 1,31,-1
 447 338 l 1,32,-1
 434 338 l 1,33,34
 429 374 429 374 409 382 c 0,35,36
 395 389 395 389 377.5 383 c 128,-1,37
 360 377 360 377 362 359 c 0,38,39
 364 346 364 346 391 330 c 0,40,41
 396 327 396 327 403.5 323 c 128,-1,42
 411 319 411 319 416 316 c 2,43,-1
 428 308 l 2,44,45
 436 304 436 304 440.5 300 c 128,-1,46
 445 296 445 296 450 290 c 128,-1,47
 455 284 455 284 456.5 278.5 c 128,-1,48
 458 273 458 273 459.5 265.5 c 128,-1,49
 461 258 461 258 457 250 c 0,50,51
 451 229 451 229 430.5 219.5 c 128,-1,52
 410 210 410 210 387 213 c 0,53,54
 385 213 385 213 373 217 c 128,-1,55
 361 221 361 221 354.5 220.5 c 128,-1,56
 348 220 348 220 347 212 c 1,57,-1
 333 212 l 1,58,-1
 333 277 l 1,59,-1
 347 277 l 1,4,5
485 7 m 1,60,61
 497 7 497 7 505.5 13.5 c 128,-1,62
 514 20 514 20 517 26 c 128,-1,63
 520 32 520 32 526 46 c 2,64,-1
 568 147 l 1,65,-1
 580 176 l 2,66,67
 584 186 584 186 586 187 c 0,68,69
 590 189 590 189 593 189 c 128,-1,70
 596 189 596 189 598.5 187.5 c 128,-1,71
 601 186 601 186 603 184.5 c 128,-1,72
 605 183 605 183 606 180 c 2,73,-1
 609 175 l 2,74,75
 610 173 610 173 611.5 169 c 128,-1,76
 613 165 613 165 614 164 c 2,77,-1
 655 65 l 1,78,-1
 667 37 l 2,79,80
 671 28 671 28 669 26 c 0,81,82
 678 15 678 15 684 11.5 c 128,-1,83
 690 8 690 8 702 8 c 1,84,-1
 702 -2 l 1,85,-1
 613 -2 l 1,86,-1
 613 7 l 1,87,88
 624 7 624 7 628 9 c 0,89,90
 631 11 631 11 632.5 13.5 c 128,-1,91
 634 16 634 16 633 20.5 c 128,-1,92
 632 25 632 25 631 28 c 128,-1,93
 630 31 630 31 628 36 c 2,94,-1
 625 41 l 2,95,96
 625 42 625 42 623 47 c 2,97,-1
 620 54 l 2,98,99
 619 57 619 57 616.5 59.5 c 128,-1,100
 614 62 614 62 611 62 c 2,101,-1
 571 62 l 2,102,103
 557 62 557 62 555.5 60.5 c 128,-1,104
 554 59 554 59 550 49 c 2,105,-1
 546 42 l 2,106,107
 544 37 544 37 543 34 c 2,108,-1
 540 25 l 2,109,110
 539 20 539 20 540 16.5 c 128,-1,111
 541 13 541 13 544 10 c 0,112,113
 546 8 546 8 560 8 c 1,114,-1
 560 -2 l 1,115,-1
 485 -2 l 1,116,-1
 485 7 l 1,60,61
111 618 m 1,117,-1
 229 618 l 1,118,-1
 258 618 l 1,119,-1
 270 617 l 1,120,-1
 275 603 l 1,121,-1
 286 567 l 1,122,123
 273 567 273 567 271 568 c 2,124,-1
 266 578 l 2,125,126
 256 597 256 597 249 599 c 0,127,128
 246 600 246 600 224 600 c 2,129,-1
 172 600 l 1,130,-1
 172 532 l 1,131,-1
 213 532 l 2,132,133
 229 532 229 532 235 541 c 0,134,135
 238 545 238 545 237 558 c 1,136,-1
 251 558 l 1,137,-1
 251 488 l 1,138,-1
 237 488 l 1,139,140
 237 501 237 501 235 506 c 0,141,142
 229 515 229 515 213 514 c 2,143,-1
 172 514 l 1,144,-1
 172 446 l 1,145,-1
 224 446 l 2,146,147
 246 446 246 446 249 447 c 0,148,149
 257 450 257 450 266 469 c 2,150,-1
 271 478 l 2,151,152
 272 479 272 479 285 479 c 1,153,-1
 274 443 l 1,154,-1
 269 429 l 1,155,-1
 258 428 l 1,156,-1
 228 428 l 1,157,-1
 111 428 l 1,158,-1
 111 438 l 1,159,160
 131 438 131 438 136 451 c 0,161,162
 138 456 138 456 138 462.5 c 128,-1,163
 138 469 138 469 137.5 478.5 c 128,-1,164
 137 488 137 488 137 491 c 2,165,-1
 137 562 l 2,166,167
 137 564 137 564 137.5 572 c 128,-1,168
 138 580 138 580 137.5 585.5 c 128,-1,169
 137 591 137 591 136 595 c 0,170,171
 133 603 133 603 127 605.5 c 128,-1,172
 121 608 121 608 111 608 c 1,173,-1
 111 618 l 1,117,-1
EndSplineSet
EndChar
StartChar: uni0088
Encoding: 136 136 135
Width: 790
Flags: W
LayerCount: 2
Fore
SplineSet
305 352 m 1,0,-1
 315 389 l 1,1,-1
 320 402 l 1,2,-1
 330 403 l 1,3,-1
 359 403 l 1,4,-1
 472 403 l 1,5,-1
 486 352 l 1,6,7
 474 352 474 352 473 353 c 2,8,-1
 467 362 l 2,9,10
 459 377 459 377 453 382 c 0,11,12
 449 385 449 385 442.5 386 c 128,-1,13
 436 387 436 387 425.5 386 c 128,-1,14
 415 385 415 385 413 385 c 2,15,-1
 413 282 l 2,16,17
 413 278 413 278 412.5 268 c 128,-1,18
 412 258 412 258 412 250 c 128,-1,19
 412 242 412 242 414 236 c 128,-1,20
 416 230 416 230 420.5 227 c 128,-1,21
 425 224 425 224 428.5 223.5 c 128,-1,22
 432 223 432 223 439 223 c 1,23,-1
 439 213 l 1,24,-1
 351 213 l 1,25,-1
 351 223 l 1,26,27
 373 223 373 223 376 237 c 0,28,29
 378 243 378 243 378 251 c 128,-1,30
 378 259 378 259 377.5 269 c 128,-1,31
 377 279 377 279 377 283 c 2,32,-1
 377 385 l 2,33,34
 375 385 375 385 365.5 386 c 128,-1,35
 356 387 356 387 349.5 386 c 128,-1,36
 343 385 343 385 338 383 c 0,37,38
 331 378 331 378 323 362 c 0,39,40
 318 352 318 352 318 353 c 1,41,42
 316 352 316 352 305 352 c 1,0,-1
545 63 m 1,43,44
 552 27 552 27 570 19 c 0,45,46
 586 11 586 11 606.5 17 c 128,-1,47
 627 23 627 23 625 43 c 0,48,49
 624 48 624 48 621.5 52.5 c 128,-1,50
 619 57 619 57 613 61.5 c 128,-1,51
 607 66 607 66 605.5 67.5 c 128,-1,52
 604 69 604 69 596 73 c 0,53,54
 592 75 592 75 584.5 79.5 c 128,-1,55
 577 84 577 84 572 86.5 c 128,-1,56
 567 89 567 89 560 94 c 128,-1,57
 553 99 553 99 549 102.5 c 128,-1,58
 545 106 545 106 539.5 112 c 128,-1,59
 534 118 534 118 533 123 c 128,-1,60
 532 128 532 128 530 135.5 c 128,-1,61
 528 143 528 143 531 150 c 0,62,63
 536 170 536 170 554 179.5 c 128,-1,64
 572 189 572 189 594 188 c 0,65,66
 597 188 597 188 602.5 186.5 c 128,-1,67
 608 185 608 185 612.5 183 c 128,-1,68
 617 181 617 181 621.5 180.5 c 128,-1,69
 626 180 626 180 629 182 c 128,-1,70
 632 184 632 184 632 189 c 1,71,-1
 646 189 l 1,72,-1
 646 123 l 1,73,-1
 632 123 l 1,74,75
 630 159 630 159 604 168 c 0,76,77
 591 174 591 174 574.5 168.5 c 128,-1,78
 558 163 558 163 560 146 c 0,79,80
 561 132 561 132 588 116 c 2,81,-1
 602 108 l 1,82,-1
 618 100 l 1,83,-1
 632 90 l 2,84,85
 641 84 641 84 645 79 c 128,-1,86
 649 74 649 74 654 66 c 128,-1,87
 659 58 659 58 658 51 c 128,-1,88
 657 44 657 44 655 33 c 0,89,90
 648 13 648 13 628 4 c 128,-1,91
 608 -5 608 -5 586 -2 c 0,92,93
 579 -1 579 -1 561 4 c 0,94,95
 551 7 551 7 549 6 c 0,96,97
 546 5 546 5 545 -2 c 1,98,-1
 532 -2 l 1,99,-1
 532 63 l 1,100,-1
 545 63 l 1,43,44
98 618 m 1,101,-1
 185 618 l 1,102,-1
 185 608 l 1,103,104
 172 608 172 608 168 605 c 0,105,106
 159 598 159 598 159 579 c 2,107,-1
 159 532 l 1,108,-1
 236 532 l 1,109,-1
 236 582 l 2,110,111
 236 600 236 600 227 606 c 0,112,113
 224 608 224 608 209 608 c 1,114,-1
 209 618 l 1,115,-1
 298 618 l 1,116,-1
 298 608 l 1,117,118
 277 608 277 608 272 595 c 0,119,120
 271 591 271 591 271 585.5 c 128,-1,121
 271 580 271 580 271.5 572.5 c 128,-1,122
 272 565 272 565 272 562 c 2,123,-1
 272 490 l 2,124,125
 272 487 272 487 271 477.5 c 128,-1,126
 270 468 270 468 270.5 461.5 c 128,-1,127
 271 455 271 455 273 450 c 0,128,129
 276 442 276 442 281.5 440.5 c 128,-1,130
 287 439 287 439 298 439 c 1,131,-1
 298 428 l 1,132,-1
 209 428 l 1,133,-1
 209 438 l 1,134,135
 223 438 223 438 228 442 c 0,136,137
 235 448 235 448 236 466 c 2,138,-1
 236 514 l 1,139,-1
 159 514 l 1,140,-1
 159 465 l 2,141,142
 159 446 159 446 169 440 c 0,143,144
 172 438 172 438 185 439 c 1,145,-1
 185 428 l 1,146,-1
 98 428 l 1,147,-1
 98 438 l 1,148,149
 118 438 118 438 123 451 c 0,150,151
 125 456 125 456 125 462.5 c 128,-1,152
 125 469 125 469 124.5 478.5 c 128,-1,153
 124 488 124 488 124 491 c 2,154,-1
 124 562 l 2,155,156
 124 564 124 564 124.5 572 c 128,-1,157
 125 580 125 580 124.5 585.5 c 128,-1,158
 124 591 124 591 123 595 c 0,159,160
 120 603 120 603 114 605.5 c 128,-1,161
 108 608 108 608 98 608 c 1,162,-1
 98 618 l 1,101,-1
EndSplineSet
EndChar
StartChar: uni0089
Encoding: 137 137 136
Width: 790
Flags: W
LayerCount: 2
Fore
SplineSet
305 352 m 1,0,-1
 315 389 l 1,1,-1
 320 402 l 1,2,-1
 330 403 l 1,3,-1
 359 403 l 1,4,-1
 472 403 l 1,5,-1
 486 352 l 1,6,7
 474 352 474 352 473 353 c 2,8,-1
 467 362 l 2,9,10
 459 377 459 377 453 382 c 0,11,12
 449 385 449 385 442.5 386 c 128,-1,13
 436 387 436 387 425.5 386 c 128,-1,14
 415 385 415 385 413 385 c 2,15,-1
 413 282 l 2,16,17
 413 278 413 278 412.5 268 c 128,-1,18
 412 258 412 258 412 250 c 128,-1,19
 412 242 412 242 414 236 c 128,-1,20
 416 230 416 230 420.5 227 c 128,-1,21
 425 224 425 224 428.5 223.5 c 128,-1,22
 432 223 432 223 439 223 c 1,23,-1
 439 213 l 1,24,-1
 351 213 l 1,25,-1
 351 223 l 1,26,27
 373 223 373 223 376 237 c 0,28,29
 378 243 378 243 378 251 c 128,-1,30
 378 259 378 259 377.5 269 c 128,-1,31
 377 279 377 279 377 283 c 2,32,-1
 377 385 l 2,33,34
 375 385 375 385 365.5 386 c 128,-1,35
 356 387 356 387 349.5 386 c 128,-1,36
 343 385 343 385 338 383 c 0,37,38
 331 378 331 378 323 362 c 0,39,40
 318 352 318 352 318 353 c 1,41,42
 316 352 316 352 305 352 c 1,0,-1
562 187 m 1,43,-1
 650 187 l 1,44,-1
 650 178 l 1,45,46
 639 178 639 178 635 176 c 0,47,48
 629 174 629 174 626.5 167 c 128,-1,49
 624 160 624 160 623.5 155 c 128,-1,50
 623 150 623 150 623.5 139 c 128,-1,51
 624 128 624 128 624 127 c 0,52,53
 624 120 624 120 624.5 98.5 c 128,-1,54
 625 77 625 77 624.5 62 c 128,-1,55
 624 47 624 47 622 34 c 0,56,57
 617 5 617 5 592 -2 c 0,58,59
 586 -4 586 -4 571 -2 c 0,60,61
 558 -1 558 -1 547 7 c 128,-1,62
 536 15 536 15 536 27 c 0,63,64
 536 36 536 36 544.5 40 c 128,-1,65
 553 44 553 44 560 38 c 0,66,67
 564 35 564 35 566 27 c 128,-1,68
 568 19 568 19 571 16 c 0,69,70
 581 5 581 5 586 14 c 0,71,72
 589 19 589 19 589.5 25 c 128,-1,73
 590 31 590 31 589.5 41.5 c 128,-1,74
 589 52 589 52 589 53 c 2,75,-1
 589 129 l 2,76,77
 589 132 589 132 589.5 140 c 128,-1,78
 590 148 590 148 589.5 154 c 128,-1,79
 589 160 589 160 588 165 c 0,80,81
 585 173 585 173 579 175 c 0,82,83
 572 177 572 177 562 177 c 1,84,-1
 562 187 l 1,43,-1
98 618 m 1,85,-1
 185 618 l 1,86,-1
 185 608 l 1,87,88
 172 608 172 608 168 605 c 0,89,90
 159 598 159 598 159 579 c 2,91,-1
 159 532 l 1,92,-1
 236 532 l 1,93,-1
 236 582 l 2,94,95
 236 600 236 600 227 606 c 0,96,97
 224 608 224 608 209 608 c 1,98,-1
 209 618 l 1,99,-1
 298 618 l 1,100,-1
 298 608 l 1,101,102
 277 608 277 608 272 595 c 0,103,104
 271 591 271 591 271 585.5 c 128,-1,105
 271 580 271 580 271.5 572.5 c 128,-1,106
 272 565 272 565 272 562 c 2,107,-1
 272 490 l 2,108,109
 272 487 272 487 271 477.5 c 128,-1,110
 270 468 270 468 270.5 461.5 c 128,-1,111
 271 455 271 455 273 450 c 0,112,113
 276 442 276 442 281.5 440.5 c 128,-1,114
 287 439 287 439 298 439 c 1,115,-1
 298 428 l 1,116,-1
 209 428 l 1,117,-1
 209 438 l 1,118,119
 223 438 223 438 228 442 c 0,120,121
 235 448 235 448 236 466 c 2,122,-1
 236 514 l 1,123,-1
 159 514 l 1,124,-1
 159 465 l 2,125,126
 159 446 159 446 169 440 c 0,127,128
 172 438 172 438 185 439 c 1,129,-1
 185 428 l 1,130,-1
 98 428 l 1,131,-1
 98 438 l 1,132,133
 118 438 118 438 123 451 c 0,134,135
 125 456 125 456 125 462.5 c 128,-1,136
 125 469 125 469 124.5 478.5 c 128,-1,137
 124 488 124 488 124 491 c 2,138,-1
 124 562 l 2,139,140
 124 564 124 564 124.5 572 c 128,-1,141
 125 580 125 580 124.5 585.5 c 128,-1,142
 124 591 124 591 123 595 c 0,143,144
 120 603 120 603 114 605.5 c 128,-1,145
 108 608 108 608 98 608 c 1,146,-1
 98 618 l 1,85,-1
EndSplineSet
EndChar
StartChar: uni0094
Encoding: 148 148 147
Width: 790
Flags: W
LayerCount: 2
Fore
SplineSet
468 255 m 1,0,1
 469 254 469 254 470 252 c 2,2,-1
 474 248 l 2,3,4
 475 246 475 246 474 245 c 0,5,6
 474 242 474 242 463 232 c 0,7,8
 440 213 440 213 417 212 c 0,9,10
 384 211 384 211 360 225 c 0,11,12
 330 243 330 243 319 279.5 c 128,-1,13
 308 316 308 316 323 348 c 0,14,15
 334 373 334 373 355.5 387.5 c 128,-1,16
 377 402 377 402 404 404 c 0,17,18
 421 405 421 405 432 401 c 2,19,-1
 438 398 l 2,20,21
 442 396 442 396 445 395 c 128,-1,22
 448 394 448 394 451 394 c 0,23,24
 456 395 456 395 457 404 c 1,25,-1
 471 404 l 1,26,-1
 471 339 l 1,27,-1
 457 339 l 1,28,29
 457 363 457 363 437 377 c 128,-1,30
 417 391 417 391 395 383 c 0,31,32
 375 376 375 376 361 351 c 0,33,34
 348 326 348 326 351.5 296.5 c 128,-1,35
 355 267 355 267 374 246 c 0,36,37
 392 227 392 227 422 230 c 128,-1,38
 452 233 452 233 468 255 c 1,0,1
493 187 m 1,39,-1
 581 187 l 1,40,-1
 581 178 l 1,41,42
 568 178 568 178 564 175 c 0,43,44
 554 169 554 169 555 150 c 2,45,-1
 555 101 l 1,46,-1
 631 101 l 1,47,-1
 631 151 l 2,48,49
 631 169 631 169 622 175 c 0,50,51
 619 177 619 177 605 177 c 1,52,-1
 605 187 l 1,53,-1
 693 187 l 1,54,-1
 693 178 l 1,55,56
 672 178 672 178 668 165 c 0,57,58
 666 161 666 161 666 155 c 128,-1,59
 666 149 666 149 666.5 141.5 c 128,-1,60
 667 134 667 134 667 131 c 2,61,-1
 667 58 l 2,62,63
 667 55 667 55 666.5 46 c 128,-1,64
 666 37 666 37 666 30.5 c 128,-1,65
 666 24 666 24 668 20 c 0,66,67
 671 12 671 12 677 10 c 128,-1,68
 683 8 683 8 693 8 c 1,69,-1
 693 -2 l 1,70,-1
 605 -2 l 1,71,-1
 605 7 l 1,72,73
 619 7 619 7 624 11 c 0,74,75
 631 17 631 17 631 35 c 2,76,-1
 631 84 l 1,77,-1
 555 84 l 1,78,-1
 555 34 l 2,79,80
 555 15 555 15 564 10 c 0,81,82
 566 8 566 8 581 8 c 1,83,-1
 581 -2 l 1,84,-1
 493 -2 l 1,85,-1
 493 7 l 1,86,87
 513 7 513 7 518 20 c 0,88,89
 520 25 520 25 520.5 32 c 128,-1,90
 521 39 521 39 520 48 c 128,-1,91
 519 57 519 57 519 60 c 2,92,-1
 519 131 l 2,93,94
 519 133 519 133 519.5 141 c 128,-1,95
 520 149 520 149 520 154.5 c 128,-1,96
 520 160 520 160 518 165 c 0,97,98
 515 173 515 173 509.5 175 c 128,-1,99
 504 177 504 177 493 177 c 1,100,-1
 493 187 l 1,39,-1
271 470 m 2,101,102
 272 469 272 469 273.5 467 c 128,-1,103
 275 465 275 465 276 463 c 128,-1,104
 277 461 277 461 277 460 c 0,105,106
 277 457 277 457 265 447 c 0,107,108
 242 428 242 428 219 427 c 0,109,110
 186 426 186 426 163 440 c 0,111,112
 133 458 133 458 121.5 494.5 c 128,-1,113
 110 531 110 531 125 564 c 0,114,115
 136 589 136 589 157.5 603.5 c 128,-1,116
 179 618 179 618 207 619 c 0,117,118
 224 620 224 620 235 616 c 0,119,120
 237 615 237 615 240 614 c 2,121,-1
 248 610 l 2,122,123
 251 609 251 609 253 610 c 0,124,125
 258 611 258 611 259 619 c 1,126,-1
 273 619 l 1,127,-1
 273 555 l 1,128,-1
 259 555 l 1,129,130
 259 579 259 579 239 592.5 c 128,-1,131
 219 606 219 606 197 599 c 0,132,133
 177 592 177 592 163 566 c 0,134,135
 150 541 150 541 153.5 511.5 c 128,-1,136
 157 482 157 482 176 462 c 0,137,138
 194 443 194 443 224 446 c 128,-1,139
 254 449 254 449 270 470 c 1,140,-1
 271 470 l 2,101,102
EndSplineSet
EndChar
StartChar: uni0099
Encoding: 153 153 152
Width: 790
Flags: W
LayerCount: 2
Fore
SplineSet
338 127 m 1,0,1
 343 118 343 118 343 117 c 0,2,3
 343 114 343 114 331 104 c 0,4,5
 310 86 310 86 286 85 c 0,6,7
 251 83 251 83 223 103.5 c 128,-1,8
 195 124 195 124 187 155 c 128,-1,9
 179 186 179 186 191 221 c 0,10,11
 202 246 202 246 225 261 c 128,-1,12
 248 276 248 276 275 276 c 0,13,14
 292 276 292 276 301 273 c 0,15,16
 303 272 303 272 306.5 270.5 c 128,-1,17
 310 269 310 269 313.5 268 c 128,-1,18
 317 267 317 267 319 267 c 0,19,20
 325 268 325 268 325 276 c 1,21,-1
 339 276 l 1,22,-1
 339 212 l 1,23,-1
 325 212 l 1,24,25
 325 241 325 241 298 253.5 c 128,-1,26
 271 266 271 266 249 248 c 0,27,28
 226 230 226 230 220.5 197.5 c 128,-1,29
 215 165 215 165 228 140 c 0,30,31
 249 97 249 97 289 103 c 0,32,33
 307 106 307 106 322 115 c 0,34,35
 324 116 324 116 329.5 120.5 c 128,-1,36
 335 125 335 125 338 127 c 1,0,1
483 275 m 1,37,-1
 572 275 l 1,38,-1
 572 266 l 1,39,40
 551 266 551 266 547 252 c 0,41,42
 546 248 546 248 545.5 242.5 c 128,-1,43
 545 237 545 237 545.5 229.5 c 128,-1,44
 546 222 546 222 546 219 c 2,45,-1
 546 147 l 2,46,47
 546 144 546 144 545.5 135 c 128,-1,48
 545 126 545 126 545 119 c 128,-1,49
 545 112 545 112 547 107 c 0,50,51
 550 99 550 99 555.5 97.5 c 128,-1,52
 561 96 561 96 572 96 c 1,53,-1
 572 85 l 1,54,-1
 483 85 l 1,55,-1
 483 95 l 1,56,57
 504 95 504 95 509 108 c 0,58,59
 510 112 510 112 510.5 118 c 128,-1,60
 511 124 511 124 510.5 131.5 c 128,-1,61
 510 139 510 139 510 142 c 2,62,-1
 510 214 l 2,63,64
 510 217 510 217 510.5 226 c 128,-1,65
 511 235 511 235 510.5 241.5 c 128,-1,66
 510 248 510 248 508 253 c 0,67,68
 505 261 505 261 499.5 263 c 128,-1,69
 494 265 494 265 483 265 c 1,70,-1
 483 275 l 1,37,-1
620 430 m 1,71,72
 608 430 608 430 606 429 c 0,73,74
 596 426 596 426 593.5 414 c 128,-1,75
 591 402 591 402 593.5 390.5 c 128,-1,76
 596 379 596 379 593 369 c 0,77,78
 591 364 591 364 570 356 c 0,79,80
 544 345 544 345 514.5 349.5 c 128,-1,81
 485 354 485 354 465 373 c 0,82,83
 435 401 435 401 436 447 c 128,-1,84
 437 493 437 493 469 519 c 0,85,86
 502 546 502 546 546 539 c 0,87,88
 550 538 550 538 557.5 535 c 128,-1,89
 565 532 565 532 569 531 c 128,-1,90
 573 530 573 530 575 532.5 c 128,-1,91
 577 535 577 535 577 540 c 1,92,-1
 592 540 l 1,93,-1
 592 476 l 1,94,-1
 577 476 l 1,95,96
 577 507 577 507 549 518 c 128,-1,97
 521 529 521 529 498 509 c 0,98,99
 479 493 479 493 473 465 c 128,-1,100
 467 437 467 437 476.5 410 c 128,-1,101
 486 383 486 383 509 371 c 0,102,103
 513 369 513 369 517.5 368 c 128,-1,104
 522 367 522 367 525 366.5 c 128,-1,105
 528 366 528 366 533.5 366.5 c 128,-1,106
 539 367 539 367 541 367 c 128,-1,107
 543 367 543 367 550 368 c 128,-1,108
 557 369 557 369 558 369 c 1,109,110
 558 372 558 372 559 383.5 c 128,-1,111
 560 395 560 395 559.5 402 c 128,-1,112
 559 409 559 409 556.5 417 c 128,-1,113
 554 425 554 425 548 428 c 0,114,115
 545 430 545 430 532 430 c 1,116,-1
 532 440 l 1,117,-1
 620 440 l 1,118,-1
 620 430 l 1,71,72
216 413 m 1,119,120
 219 376 219 376 248 368 c 0,121,122
 261 363 261 363 278.5 368 c 128,-1,123
 296 373 296 373 296.5 389.5 c 128,-1,124
 297 406 297 406 274 420 c 0,125,126
 268 424 268 424 253.5 431.5 c 128,-1,127
 239 439 239 439 229 446 c 128,-1,128
 219 453 219 453 211 462 c 0,129,130
 192 487 192 487 207 512 c 128,-1,131
 222 537 222 537 251 540 c 0,132,133
 264 541 264 541 279 537 c 2,134,-1
 286 534 l 2,135,136
 293 531 293 531 296 530.5 c 128,-1,137
 299 530 299 530 301 534 c 128,-1,138
 303 538 303 538 304 539 c 128,-1,139
 305 540 305 540 316 540 c 1,140,-1
 316 474 l 1,141,-1
 303 474 l 1,142,143
 298 510 298 510 277 519 c 0,144,145
 263 526 263 526 246 519.5 c 128,-1,146
 229 513 229 513 231 495 c 0,147,148
 233 482 233 482 260 466 c 0,149,150
 265 463 265 463 272.5 459 c 128,-1,151
 280 455 280 455 285 452 c 2,152,-1
 298 444 l 2,153,154
 305 440 305 440 309.5 436 c 128,-1,155
 314 432 314 432 319 426 c 128,-1,156
 324 420 324 420 325.5 415 c 128,-1,157
 327 410 327 410 328.5 402 c 128,-1,158
 330 394 330 394 326 386 c 0,159,160
 320 365 320 365 299.5 355.5 c 128,-1,161
 279 346 279 346 256 349 c 0,162,163
 253 349 253 349 248 351 c 2,164,-1
 238 354 l 2,165,166
 233 356 233 356 228 356.5 c 128,-1,167
 223 357 223 357 220 355 c 128,-1,168
 217 353 217 353 216 348 c 1,169,-1
 202 348 l 1,170,-1
 202 413 l 1,171,-1
 216 413 l 1,119,120
EndSplineSet
EndChar
StartChar: uni009C
Encoding: 156 156 155
Width: 790
Flags: W
LayerCount: 2
Fore
SplineSet
392 244 m 1,0,-1
 403 280 l 1,1,-1
 408 294 l 1,2,-1
 419 295 l 1,3,-1
 448 295 l 1,4,-1
 560 295 l 1,5,-1
 574 244 l 1,6,7
 562 244 562 244 560 245 c 0,8,9
 555 248 555 248 550.5 259.5 c 128,-1,10
 546 271 546 271 541 275 c 0,11,12
 537 278 537 278 530 278.5 c 128,-1,13
 523 279 523 279 513 278 c 128,-1,14
 503 277 503 277 501 277 c 2,15,-1
 501 175 l 2,16,17
 501 171 501 171 500.5 160.5 c 128,-1,18
 500 150 500 150 500 142.5 c 128,-1,19
 500 135 500 135 502 128 c 0,20,21
 506 115 506 115 527 115 c 1,22,-1
 527 106 l 1,23,-1
 439 106 l 1,24,-1
 439 115 l 1,25,26
 461 115 461 115 464 128 c 0,27,28
 466 134 466 134 466 142 c 128,-1,29
 466 150 466 150 465.5 160.5 c 128,-1,30
 465 171 465 171 465 175 c 2,31,-1
 465 277 l 2,32,33
 463 277 463 277 453 278 c 128,-1,34
 443 279 443 279 436 278 c 128,-1,35
 429 277 429 277 425 275 c 0,36,37
 420 271 420 271 415 259.5 c 128,-1,38
 410 248 410 248 405 245 c 0,39,40
 404 244 404 244 392 244 c 1,0,-1
346 512 m 1,41,-1
 359 512 l 1,42,-1
 359 446 l 1,43,-1
 346 446 l 1,44,45
 339 482 339 482 322 489 c 0,46,47
 308 497 308 497 289.5 491 c 128,-1,48
 271 485 271 485 275 466 c 0,49,50
 276 460 276 460 281.5 454 c 128,-1,51
 287 448 287 448 289 446.5 c 128,-1,52
 291 445 291 445 301 439 c 2,53,-1
 324 426 l 2,54,55
 343 415 343 415 351.5 408.5 c 128,-1,56
 360 402 360 402 367 389 c 128,-1,57
 374 376 374 376 370 360 c 0,58,59
 364 338 364 338 344 328 c 128,-1,60
 324 318 324 318 300 320 c 0,61,62
 297 320 297 320 291.5 322 c 128,-1,63
 286 324 286 324 281 325.5 c 128,-1,64
 276 327 276 327 271 328 c 128,-1,65
 266 329 266 329 263 327 c 128,-1,66
 260 325 260 325 259 319 c 1,67,-1
 245 319 l 1,68,-1
 245 385 l 1,69,-1
 259 385 l 1,70,71
 260 368 260 368 269 355 c 128,-1,72
 278 342 278 342 294 339 c 0,73,74
 310 335 310 335 325 341 c 128,-1,75
 340 347 340 347 339 363 c 0,76,77
 339 371 339 371 333.5 378 c 128,-1,78
 328 385 328 385 323.5 388 c 128,-1,79
 319 391 319 391 309 396 c 0,80,81
 306 398 306 398 299 402 c 128,-1,82
 292 406 292 406 288 408.5 c 128,-1,83
 284 411 284 411 277 415 c 128,-1,84
 270 419 270 419 266 422.5 c 128,-1,85
 262 426 262 426 257 431 c 128,-1,86
 252 436 252 436 249.5 440.5 c 128,-1,87
 247 445 247 445 245 451 c 128,-1,88
 243 457 243 457 243.5 463.5 c 128,-1,89
 244 470 244 470 246 477 c 0,90,91
 252 496 252 496 269.5 504 c 128,-1,92
 287 512 287 512 308 511 c 0,93,94
 317 510 317 510 331 505 c 0,95,96
 339 502 339 502 342 502 c 0,97,98
 344 504 344 504 346 512 c 1,41,-1
EndSplineSet
EndChar
StartChar: macron
Encoding: 175 175 174
Width: 308
Flags: W
LayerCount: 2
Fore
SplineSet
29 484 m 1,0,-1
 282 484 l 1,1,-1
 282 451 l 1,2,-1
 29 451 l 1,3,-1
 29 484 l 1,0,-1
EndSplineSet
EndChar
StartChar: plusminus
Encoding: 177 177 176
Width: 616
Flags: W
LayerCount: 2
Fore
SplineSet
51 43 m 1,0,-1
 567 43 l 1,1,-1
 567 -1 l 1,2,-1
 51 -1 l 1,3,-1
 51 43 l 1,0,-1
286 624 m 1,4,-1
 328 624 l 1,5,-1
 328 408 l 1,6,-1
 567 408 l 1,7,-1
 567 364 l 1,8,-1
 328 364 l 1,9,-1
 328 151 l 1,10,-1
 286 151 l 1,11,-1
 286 364 l 1,12,-1
 47 364 l 1,13,-1
 47 408 l 1,14,-1
 286 408 l 1,15,-1
 286 624 l 1,4,-1
EndSplineSet
EndChar
StartChar: uni00B2
Encoding: 178 178 177
Width: 289
Flags: W
LayerCount: 2
Fore
SplineSet
40 534 m 1,0,1
 89 572 89 572 123 576 c 0,2,3
 172 582 172 582 208.5 555 c 128,-1,4
 245 528 245 528 231 480 c 0,5,6
 225 456 225 456 205 430.5 c 128,-1,7
 185 405 185 405 167 389 c 128,-1,8
 149 373 149 373 117 347.5 c 128,-1,9
 85 322 85 322 76 314 c 1,10,11
 87 314 87 314 108.5 313 c 128,-1,12
 130 312 130 312 142.5 311.5 c 128,-1,13
 155 311 155 311 173.5 312.5 c 128,-1,14
 192 314 192 314 204.5 319.5 c 128,-1,15
 217 325 217 325 230.5 335 c 128,-1,16
 244 345 244 345 253 361 c 1,17,-1
 275 350 l 1,18,-1
 219 269 l 1,19,-1
 170 278 l 1,20,-1
 15 274 l 1,21,-1
 11 278 l 1,22,23
 17 289 17 289 26 298 c 128,-1,24
 35 307 35 307 49 318.5 c 128,-1,25
 63 330 63 330 68 335 c 0,26,27
 135 398 135 398 164 440 c 0,28,29
 205 500 205 500 163 532 c 0,30,31
 133 554 133 554 94 540 c 0,32,33
 88 538 88 538 79 532.5 c 128,-1,34
 70 527 70 527 64.5 524 c 128,-1,35
 59 521 59 521 52 523 c 128,-1,36
 45 525 45 525 40 534 c 1,0,1
EndSplineSet
EndChar
StartChar: AE
Encoding: 198 198 191
Width: 930
Flags: W
LayerCount: 2
Fore
SplineSet
256 244 m 1,0,-1
 475 240 l 1,1,2
 475 258 475 258 476 318 c 128,-1,3
 477 378 477 378 476.5 408 c 128,-1,4
 476 438 476 438 471 484.5 c 128,-1,5
 466 531 466 531 456 567 c 1,6,7
 443 560 443 560 433 547 c 128,-1,8
 423 534 423 534 410 509.5 c 128,-1,9
 397 485 397 485 395 482 c 0,10,11
 381 459 381 459 348 409.5 c 128,-1,12
 315 360 315 360 291.5 320.5 c 128,-1,13
 268 281 268 281 256 244 c 1,0,-1
364 608 m 1,14,-1
 872 600 l 1,15,16
 870 495 870 495 839 485 c 1,17,18
 839 490 839 490 840.5 501.5 c 128,-1,19
 842 513 842 513 842 521.5 c 128,-1,20
 842 530 842 530 838 538 c 0,21,22
 833 549 833 549 823 557.5 c 128,-1,23
 813 566 813 566 797.5 570.5 c 128,-1,24
 782 575 782 575 769.5 577.5 c 128,-1,25
 757 580 757 580 735.5 580 c 128,-1,26
 714 580 714 580 704 579.5 c 128,-1,27
 694 579 694 579 673 577 c 128,-1,28
 652 575 652 575 650 575 c 0,29,30
 644 574 644 574 628 574 c 128,-1,31
 612 574 612 574 601.5 573.5 c 128,-1,32
 591 573 591 573 578 569.5 c 128,-1,33
 565 566 565 566 559 560 c 0,34,35
 553 555 553 555 549.5 546.5 c 128,-1,36
 546 538 546 538 545.5 529 c 128,-1,37
 545 520 545 520 545 510 c 2,38,-1
 545 493 l 2,39,40
 542 411 542 411 542 326 c 1,41,42
 628 322 628 322 712 322 c 0,43,44
 715 322 715 322 730 321.5 c 128,-1,45
 745 321 745 321 751.5 321.5 c 128,-1,46
 758 322 758 322 768 324 c 0,47,48
 779 326 779 326 786 332 c 0,49,50
 801 342 801 342 809 385 c 1,51,-1
 827 385 l 1,52,-1
 827 211 l 1,53,-1
 809 211 l 1,54,55
 806 262 806 262 787 279 c 0,56,57
 767 296 767 296 709 296 c 2,58,-1
 542 296 l 1,59,60
 542 159 542 159 545 110 c 0,61,62
 546 100 546 100 545 89 c 128,-1,63
 544 78 544 78 546 65 c 128,-1,64
 548 52 548 52 553 45 c 0,65,66
 563 28 563 28 623 28 c 0,67,68
 631 28 631 28 670 27 c 128,-1,69
 709 26 709 26 724 26.5 c 128,-1,70
 739 27 739 27 767 31.5 c 128,-1,71
 795 36 795 36 816 47 c 0,72,73
 851 64 851 64 868 88 c 0,74,75
 872 94 872 94 878.5 108.5 c 128,-1,76
 885 123 885 123 892 131.5 c 128,-1,77
 899 140 899 140 909 144 c 1,78,79
 904 27 904 27 869 3 c 0,80,81
 865 0 865 0 859.5 -1 c 128,-1,82
 854 -2 854 -2 850 -1.5 c 128,-1,83
 846 -1 846 -1 837.5 0.5 c 128,-1,84
 829 2 829 2 827 2 c 0,85,86
 818 3 818 3 746 3 c 0,87,88
 682 3 682 3 565 -2.5 c 128,-1,89
 448 -8 448 -8 405 -9 c 1,90,91
 407 4 407 4 430.5 17 c 128,-1,92
 454 30 454 30 460 44 c 0,93,94
 468 61 468 61 471.5 85.5 c 128,-1,95
 475 110 475 110 475.5 124 c 128,-1,96
 476 138 476 138 475.5 171.5 c 128,-1,97
 475 205 475 205 475 211 c 1,98,99
 447 211 447 211 391.5 213 c 128,-1,100
 336 215 336 215 308 215 c 2,101,-1
 294 215 l 1,102,-1
 278 215 l 2,103,104
 272 215 272 215 263 214.5 c 128,-1,105
 254 214 254 214 246.5 211.5 c 128,-1,106
 239 209 239 209 235 205 c 0,107,108
 226 198 226 198 218.5 187.5 c 128,-1,109
 211 177 211 177 201.5 158.5 c 128,-1,110
 192 140 192 140 190 137 c 0,111,112
 187 131 187 131 180 118 c 2,113,-1
 168 99 l 2,114,115
 164 92 164 92 158.5 80 c 128,-1,116
 153 68 153 68 152.5 60 c 128,-1,117
 152 52 152 52 154 43.5 c 128,-1,118
 156 35 156 35 164 28 c 128,-1,119
 172 21 172 21 185 16 c 0,120,121
 197 11 197 11 216 10 c 1,122,-1
 216 -5 l 1,123,-1
 8 -5 l 1,124,-1
 8 14 l 1,125,126
 32 18 32 18 53 29.5 c 128,-1,127
 74 41 74 41 93.5 62.5 c 128,-1,128
 113 84 113 84 124.5 98.5 c 128,-1,129
 136 113 136 113 154 141 c 0,130,131
 158 146 158 146 160 147 c 0,132,133
 318 376 318 376 423 575 c 1,134,-1
 364 589 l 1,135,-1
 364 608 l 1,14,-1
EndSplineSet
EndChar
StartChar: germandbls
Encoding: 223 223 197
Width: 453
Flags: W
LayerCount: 2
Fore
SplineSet
21 314 m 1,0,1
 25 330 25 330 39 330.5 c 128,-1,2
 53 331 53 331 68 331 c 128,-1,3
 83 331 83 331 88 342 c 0,4,5
 94 356 94 356 94 391.5 c 128,-1,6
 94 427 94 427 95 433 c 0,7,8
 100 473 100 473 112.5 506.5 c 128,-1,9
 125 540 125 540 145.5 569 c 128,-1,10
 166 598 166 598 199.5 611.5 c 128,-1,11
 233 625 233 625 275 620 c 0,12,13
 314 614 314 614 343.5 590.5 c 128,-1,14
 373 567 373 567 386.5 534.5 c 128,-1,15
 400 502 400 502 396.5 464 c 128,-1,16
 393 426 393 426 372 393 c 1,17,-1
 362 382 l 2,18,19
 357 376 357 376 353 372 c 128,-1,20
 349 368 349 368 341.5 363.5 c 128,-1,21
 334 359 334 359 330.5 356.5 c 128,-1,22
 327 354 327 354 317.5 350.5 c 128,-1,23
 308 347 308 347 305 345.5 c 128,-1,24
 302 344 302 344 291 340 c 128,-1,25
 280 336 280 336 278 335 c 1,26,27
 327 324 327 324 363 287 c 128,-1,28
 399 250 399 250 412 204.5 c 128,-1,29
 425 159 425 159 412.5 108.5 c 128,-1,30
 400 58 400 58 361 23 c 0,31,32
 348 12 348 12 320.5 -0.5 c 128,-1,33
 293 -13 293 -13 265.5 -12.5 c 128,-1,34
 238 -12 238 -12 236 14 c 0,35,36
 234 32 234 32 245.5 37 c 128,-1,37
 257 42 257 42 273.5 36.5 c 128,-1,38
 290 31 290 31 306.5 28 c 128,-1,39
 323 25 323 25 332 30 c 0,40,41
 357 50 357 50 361 90 c 128,-1,42
 365 130 365 130 356 166 c 128,-1,43
 347 202 347 202 331 230 c 0,44,45
 304 283 304 283 260 305 c 0,46,47
 254 309 254 309 235.5 313 c 128,-1,48
 217 317 217 317 208 324 c 128,-1,49
 199 331 199 331 199 346 c 1,50,51
 286 346 286 346 319 393 c 0,52,53
 336 416 336 416 339.5 449 c 128,-1,54
 343 482 343 482 335 512.5 c 128,-1,55
 327 543 327 543 306.5 567 c 128,-1,56
 286 591 286 591 256 598 c 0,57,58
 232 603 232 603 212.5 594.5 c 128,-1,59
 193 586 193 586 181.5 567.5 c 128,-1,60
 170 549 170 549 163.5 529.5 c 128,-1,61
 157 510 157 510 154 487 c 0,62,63
 127 314 127 314 144 57 c 0,64,65
 146 41 146 41 154.5 32.5 c 128,-1,66
 163 24 163 24 172.5 21.5 c 128,-1,67
 182 19 182 19 191.5 12.5 c 128,-1,68
 201 6 201 6 203 -5 c 1,69,-1
 18 -1 l 1,70,-1
 18 14 l 1,71,72
 61 18 61 18 74 30 c 0,73,74
 77 34 77 34 79 38 c 128,-1,75
 81 42 81 42 82.5 45.5 c 128,-1,76
 84 49 84 49 85 55 c 128,-1,77
 86 61 86 61 86 64 c 128,-1,78
 86 67 86 67 86.5 73.5 c 128,-1,79
 87 80 87 80 87 82 c 0,80,81
 91 126 91 126 91 205 c 0,82,83
 91 209 91 209 91.5 226 c 128,-1,84
 92 243 92 243 92 254 c 128,-1,85
 92 265 92 265 89 277.5 c 128,-1,86
 86 290 86 290 80 298 c 0,87,88
 74 305 74 305 64.5 308 c 128,-1,89
 55 311 55 311 41 312 c 128,-1,90
 27 313 27 313 21 314 c 1,0,1
EndSplineSet
EndChar
StartChar: atilde
Encoding: 227 227 201
Width: 344
Flags: W
LayerCount: 2
Fore
SplineSet
51 408 m 1,0,1
 52 431 52 431 60 453 c 0,2,3
 69 476 69 476 81.5 487.5 c 128,-1,4
 94 499 94 499 107 500.5 c 128,-1,5
 120 502 120 502 138 497 c 128,-1,6
 156 492 156 492 169 485 c 2,7,-1
 201 469 l 1,8,-1
 230 455 l 2,9,10
 254 445 254 445 271.5 460 c 128,-1,11
 289 475 289 475 293 501 c 1,12,-1
 312 501 l 1,13,14
 311 475 311 475 303 457 c 0,15,16
 294 435 294 435 281.5 423.5 c 128,-1,17
 269 412 269 412 255.5 410 c 128,-1,18
 242 408 242 408 223.5 412.5 c 128,-1,19
 205 417 205 417 192 423 c 2,20,-1
 159 439 l 2,21,22
 140 448 140 448 129 452 c 0,23,24
 106 462 106 462 89 447.5 c 128,-1,25
 72 433 72 433 70 408 c 1,26,-1
 51 408 l 1,0,1
230 316 m 0,27,28
 241 306 241 306 251 290 c 0,29,30
 261 271 261 271 263 246 c 0,31,32
 265 208 265 208 264 189 c 0,33,34
 264 177 264 177 261.5 144.5 c 128,-1,35
 259 112 259 112 259 95 c 0,36,37
 259 69 259 69 260 56 c 0,38,39
 260 48 260 48 263 40 c 0,40,41
 265 32 265 32 272 26 c 0,42,43
 279 19 279 19 285 18 c 2,44,-1
 291 18 l 2,45,46
 292 18 292 18 298 21 c 2,47,-1
 318 27 l 1,48,-1
 320 27 l 2,49,50
 322 27 322 27 323 26 c 2,51,-1
 325 25 l 1,52,-1
 325 24 l 2,53,54
 326 23 326 23 326 22 c 2,55,-1
 326 18 l 1,56,-1
 326 15 l 1,57,-1
 324 13 l 2,58,59
 322 11 322 11 321 11 c 2,60,-1
 253 -13 l 2,61,62
 249 -15 249 -15 248 -15 c 2,63,-1
 244 -15 l 2,64,65
 243 -15 243 -15 241 -13 c 0,66,67
 235 -10 235 -10 231 -6 c 0,68,69
 222 3 222 3 219 8 c 0,70,71
 214 16 214 16 211 32 c 1,72,73
 178 12 178 12 168 8 c 0,74,75
 145 -3 145 -3 120.5 -9 c 128,-1,76
 96 -15 96 -15 75 -14 c 0,77,78
 66 -14 66 -14 60 -11 c 0,79,80
 51 -7 51 -7 46 -4 c 0,81,82
 40 2 40 2 38 9 c 0,83,84
 36 14 36 14 34 23 c 0,85,86
 31 38 31 38 31 55 c 0,87,88
 31 71 31 71 36 90 c 0,89,90
 38 96 38 96 41 102 c 0,91,92
 43 105 43 105 45 107 c 0,93,94
 46 108 46 108 47.5 109 c 128,-1,95
 49 110 49 110 50 111 c 0,96,97
 79 127 79 127 115 137 c 0,98,99
 146 146 146 146 188 152 c 2,100,-1
 210 155 l 1,101,-1
 212 207 l 2,102,103
 214 233 214 233 212 246 c 0,104,105
 209 267 209 267 197 282 c 0,106,107
 190 290 190 290 177 299 c 0,108,109
 158 312 158 312 147 314 c 0,110,111
 133 316 133 316 119 311 c 0,112,113
 108 306 108 306 100 298 c 0,114,115
 94 291 94 291 95 281 c 0,116,117
 95 271 95 271 96 265 c 1,118,-1
 49 244 l 1,119,-1
 47 252 l 2,120,121
 45 263 45 263 45 268 c 0,122,123
 45 276 45 276 50 284 c 0,124,125
 55 293 55 293 71 302 c 0,126,127
 92 315 92 315 112.5 323.5 c 128,-1,128
 133 332 133 332 163 338 c 2,129,-1
 182 341 l 2,130,131
 188 341 188 341 201 335 c 0,132,133
 220 325 220 325 230 316 c 0,27,28
96 19 m 0,134,135
 105 12 105 12 120 12 c 0,136,137
 132 12 132 12 146 15 c 0,138,139
 159 19 159 19 176 26 c 0,140,141
 197 35 197 35 209 47 c 1,142,143
 207 77 207 77 207 92 c 0,144,145
 207 119 207 119 208 132 c 1,146,147
 200 134 200 134 198 134 c 0,148,149
 188 135 188 135 164 133 c 0,150,151
 134 128 134 128 130 127 c 0,152,153
 108 120 108 120 95 108 c 0,154,155
 86 99 86 99 81 79 c 0,156,157
 77 64 77 64 80 47 c 0,158,159
 81 39 81 39 86 32 c 0,160,161
 92 21 92 21 96 19 c 0,134,135
EndSplineSet
EndChar
StartChar: ntilde
Encoding: 241 241 215
Width: 446
Flags: W
LayerCount: 2
Fore
SplineSet
95 408 m 1,0,1
 96 431 96 431 104 453 c 0,2,3
 113 476 113 476 125.5 487.5 c 128,-1,4
 138 499 138 499 151 500.5 c 128,-1,5
 164 502 164 502 182 497 c 128,-1,6
 200 492 200 492 213 485 c 2,7,-1
 245 469 l 1,8,-1
 274 455 l 2,9,10
 298 445 298 445 315.5 460 c 128,-1,11
 333 475 333 475 337 501 c 1,12,-1
 356 501 l 1,13,14
 355 475 355 475 347 457 c 0,15,16
 338 435 338 435 325.5 423.5 c 128,-1,17
 313 412 313 412 299.5 410 c 128,-1,18
 286 408 286 408 267.5 412.5 c 128,-1,19
 249 417 249 417 236 423 c 2,20,-1
 203 439 l 2,21,22
 184 448 184 448 173 452 c 0,23,24
 150 462 150 462 133 447.5 c 128,-1,25
 116 433 116 433 114 408 c 1,26,-1
 95 408 l 1,0,1
176 292 m 0,27,28
 213 310 213 310 235 317 c 0,29,30
 286 331 286 331 320 318 c 0,31,32
 346 309 346 309 359 285 c 0,33,34
 366 276 366 276 369 261 c 0,35,36
 370 257 370 257 370.5 253 c 128,-1,37
 371 249 371 249 371.5 243.5 c 128,-1,38
 372 238 372 238 372 235 c 0,39,40
 374 201 374 201 375 133 c 0,41,42
 376 88 376 88 375 43 c 2,43,-1
 375 36 l 2,44,45
 375 33 375 33 377 29 c 0,46,47
 379 26 379 26 382 25 c 2,48,-1
 388 22 l 1,49,-1
 421 9 l 1,50,-1
 424 8 l 2,51,52
 427 7 427 7 427.5 6 c 128,-1,53
 428 5 428 5 428 2 c 2,54,-1
 428 -1 l 2,55,56
 428 -3 428 -3 427 -4 c 0,57,58
 426 -6 426 -6 424 -6 c 2,59,-1
 417 -6 l 1,60,61
 386 0 386 0 354 0 c 0,62,63
 309 0 309 0 271 -8 c 0,64,65
 270 -8 270 -8 268.5 -8.5 c 128,-1,66
 267 -9 267 -9 266 -9 c 0,67,68
 263 -9 263 -9 262 -8 c 0,69,70
 261 -8 261 -8 261 -7 c 128,-1,71
 261 -6 261 -6 260 -5 c 128,-1,72
 259 -4 259 -4 259 -2 c 0,73,74
 259 -1 259 -1 261 1 c 0,75,76
 261 2 261 2 262 2 c 2,77,-1
 263 4 l 2,78,79
 264 5 264 5 266 5 c 2,80,-1
 291 14 l 2,81,82
 299 17 299 17 303 21 c 0,83,84
 309 25 309 25 312 31 c 0,85,86
 316 38 316 38 317 44 c 0,87,88
 318 47 318 47 318 51 c 128,-1,89
 318 55 318 55 319 58 c 0,90,91
 324 101 324 101 323 134 c 0,92,93
 323 172 323 172 320 210 c 0,94,95
 318 231 318 231 315 240 c 0,96,97
 308 256 308 256 298.5 265.5 c 128,-1,98
 289 275 289 275 273 282 c 0,99,100
 264 286 264 286 244 287 c 0,101,102
 206 288 206 288 169 274 c 0,103,104
 152 267 152 267 134 257 c 1,105,-1
 131 70 l 1,106,-1
 131 51 l 2,107,108
 131 39 131 39 133 33 c 0,109,110
 136 24 136 24 144 18 c 0,111,112
 150 13 150 13 161 11 c 2,113,-1
 188 6 l 1,114,-1
 189 6 l 1,115,-1
 191 5 l 1,116,-1
 193 3 l 1,117,-1
 195 1 l 1,118,-1
 195 -2 l 1,119,-1
 195 -3 l 2,120,121
 194 -4 194 -4 194 -5 c 0,122,123
 194 -7 194 -7 192 -7 c 2,124,-1
 189 -7 l 1,125,-1
 186 -7 l 2,126,127
 176 -5 176 -5 155 -3 c 0,128,129
 126 0 126 0 66 -2 c 2,130,-1
 29 -3 l 1,131,-1
 26 -3 l 2,132,133
 25 -3 25 -3 24 -1 c 0,134,135
 23 0 23 0 23 3 c 2,136,-1
 23 6 l 2,137,138
 24 8 24 8 25.5 9.5 c 128,-1,139
 27 11 27 11 29 11 c 2,140,-1
 37 13 l 2,141,142
 48 17 48 17 54 20 c 0,143,144
 63 25 63 25 68 31 c 0,145,146
 72 36 72 36 76 47 c 0,147,148
 79 56 79 56 78 65 c 0,149,150
 81 106 81 106 81 147 c 0,151,152
 81 182 81 182 80 199 c 0,153,154
 78 229 78 229 76 245 c 0,155,156
 72 260 72 260 68 266 c 0,157,158
 64 271 64 271 60 273 c 0,159,160
 55 277 55 277 50 278 c 2,161,-1
 29 285 l 1,162,-1
 27 285 l 1,163,-1
 26 287 l 2,164,165
 25 287 25 287 26 288 c 2,166,-1
 26 290 l 1,167,-1
 27 291 l 2,168,169
 28 292 28 292 29 292 c 0,170,171
 61 303 61 303 77 310 c 0,172,173
 117 328 117 328 121 330 c 0,174,175
 123 332 123 332 125 332 c 0,176,177
 129 332 129 332 130 331 c 0,178,179
 132 329 132 329 131 327 c 0,180,181
 131 326 131 326 131.5 324.5 c 128,-1,182
 132 323 132 323 132 322 c 2,183,-1
 133 268 l 1,184,185
 153 281 153 281 176 292 c 0,27,28
EndSplineSet
EndChar
StartChar: ograve
Encoding: 242 242 216
Width: 411
Flags: W
LayerCount: 2
Fore
SplineSet
225 429 m 2,0,1
 227 425 227 425 227 422 c 0,2,3
 227 409 227 409 214 409 c 0,4,5
 204 409 204 409 200 419 c 2,6,-1
 143 512 l 2,7,8
 141 514 141 514 141 517 c 0,9,10
 141 526 141 526 155 533 c 0,11,12
 164 536 164 536 170 536 c 0,13,14
 179 536 179 536 180 530 c 2,15,-1
 225 429 l 2,0,1
133 331 m 0,16,17
 181 352 181 352 229 348 c 0,18,19
 279 343 279 343 319 314 c 0,20,21
 368 277 368 277 382 218 c 0,22,23
 397 158 397 158 373 104 c 0,24,25
 354 57 354 57 312 27 c 0,26,27
 255 -12 255 -12 182 -1 c 0,28,29
 116 9 116 9 72 56 c 0,30,31
 26 104 26 104 24 169 c 0,32,33
 24 223 24 223 54 267 c 0,34,35
 83 308 83 308 133 331 c 0,16,17
193 328 m 0,36,37
 165 328 165 328 143 316 c 0,38,39
 119 303 119 303 104 282 c 0,40,41
 78 247 78 247 78 196 c 0,42,43
 78 148 78 148 98 107 c 0,44,45
 116 66 116 66 149 41 c 0,46,47
 186 12 186 12 227 14 c 0,48,49
 253 15 253 15 276 32 c 0,50,51
 294 44 294 44 306 64 c 0,52,53
 331 104 331 104 333 150 c 0,54,55
 334 203 334 203 305 253 c 0,56,57
 283 288 283 288 259 305 c 0,58,59
 227 328 227 328 193 328 c 0,36,37
EndSplineSet
EndChar
StartChar: otilde
Encoding: 245 245 219
Width: 411
Flags: W
LayerCount: 2
Fore
SplineSet
83 409 m 1,0,1
 84 432 84 432 92 454 c 0,2,3
 101 477 101 477 113.5 488.5 c 128,-1,4
 126 500 126 500 139 501.5 c 128,-1,5
 152 503 152 503 170 498 c 128,-1,6
 188 493 188 493 201 486 c 2,7,-1
 233 470 l 1,8,-1
 262 456 l 2,9,10
 286 446 286 446 303.5 461 c 128,-1,11
 321 476 321 476 325 502 c 1,12,-1
 344 502 l 1,13,14
 343 476 343 476 335 458 c 0,15,16
 326 436 326 436 313.5 424.5 c 128,-1,17
 301 413 301 413 287.5 411 c 128,-1,18
 274 409 274 409 255.5 413.5 c 128,-1,19
 237 418 237 418 224 424 c 2,20,-1
 191 440 l 2,21,22
 172 449 172 449 161 453 c 0,23,24
 138 463 138 463 121 448.5 c 128,-1,25
 104 434 104 434 102 409 c 1,26,-1
 83 409 l 1,0,1
133 331 m 0,27,28
 181 352 181 352 229 348 c 0,29,30
 279 343 279 343 319 314 c 0,31,32
 368 277 368 277 382 218 c 0,33,34
 397 158 397 158 373 104 c 0,35,36
 354 57 354 57 312 27 c 0,37,38
 255 -12 255 -12 182 -1 c 0,39,40
 116 9 116 9 72 56 c 0,41,42
 26 104 26 104 24 169 c 0,43,44
 24 223 24 223 54 267 c 0,45,46
 83 308 83 308 133 331 c 0,27,28
193 328 m 0,47,48
 165 328 165 328 143 316 c 0,49,50
 119 303 119 303 104 282 c 0,51,52
 78 247 78 247 78 196 c 0,53,54
 78 148 78 148 98 107 c 0,55,56
 116 66 116 66 149 41 c 0,57,58
 186 12 186 12 227 14 c 0,59,60
 253 15 253 15 276 32 c 0,61,62
 294 44 294 44 306 64 c 0,63,64
 331 104 331 104 333 150 c 0,65,66
 334 203 334 203 305 253 c 0,67,68
 283 288 283 288 259 305 c 0,69,70
 227 328 227 328 193 328 c 0,47,48
EndSplineSet
EndChar
StartChar: amacron
Encoding: 257 257 230
Width: 344
Flags: W
LayerCount: 2
Fore
SplineSet
51 441 m 1,0,-1
 312 441 l 1,1,-1
 312 408 l 1,2,-1
 51 408 l 1,3,-1
 51 441 l 1,0,-1
230 316 m 0,4,5
 241 306 241 306 251 290 c 0,6,7
 261 271 261 271 263 246 c 0,8,9
 265 208 265 208 264 189 c 0,10,11
 264 177 264 177 261.5 144.5 c 128,-1,12
 259 112 259 112 259 95 c 0,13,14
 259 69 259 69 260 56 c 0,15,16
 260 48 260 48 263 40 c 0,17,18
 265 32 265 32 272 26 c 0,19,20
 279 19 279 19 285 18 c 2,21,-1
 291 18 l 2,22,23
 292 18 292 18 298 21 c 2,24,-1
 318 27 l 1,25,-1
 320 27 l 2,26,27
 322 27 322 27 323 26 c 2,28,-1
 325 25 l 1,29,-1
 325 24 l 2,30,31
 326 23 326 23 326 22 c 2,32,-1
 326 18 l 1,33,-1
 326 15 l 1,34,-1
 324 13 l 2,35,36
 322 11 322 11 321 11 c 2,37,-1
 253 -13 l 2,38,39
 249 -15 249 -15 248 -15 c 2,40,-1
 244 -15 l 2,41,42
 243 -15 243 -15 241 -13 c 0,43,44
 235 -10 235 -10 231 -6 c 0,45,46
 222 3 222 3 219 8 c 0,47,48
 214 16 214 16 211 32 c 1,49,50
 178 12 178 12 168 8 c 0,51,52
 145 -3 145 -3 120.5 -9 c 128,-1,53
 96 -15 96 -15 75 -14 c 0,54,55
 66 -14 66 -14 60 -11 c 0,56,57
 51 -7 51 -7 46 -4 c 0,58,59
 40 2 40 2 38 9 c 0,60,61
 36 14 36 14 34 23 c 0,62,63
 31 38 31 38 31 55 c 0,64,65
 31 71 31 71 36 90 c 0,66,67
 38 96 38 96 41 102 c 0,68,69
 43 105 43 105 45 107 c 0,70,71
 46 108 46 108 47.5 109 c 128,-1,72
 49 110 49 110 50 111 c 0,73,74
 79 127 79 127 115 137 c 0,75,76
 146 146 146 146 188 152 c 2,77,-1
 210 155 l 1,78,-1
 212 207 l 2,79,80
 214 233 214 233 212 246 c 0,81,82
 209 267 209 267 197 282 c 0,83,84
 190 290 190 290 177 299 c 0,85,86
 158 312 158 312 147 314 c 0,87,88
 133 316 133 316 119 311 c 0,89,90
 108 306 108 306 100 298 c 0,91,92
 94 291 94 291 95 281 c 0,93,94
 95 271 95 271 96 265 c 1,95,-1
 49 244 l 1,96,-1
 47 252 l 2,97,98
 45 263 45 263 45 268 c 0,99,100
 45 276 45 276 50 284 c 0,101,102
 55 293 55 293 71 302 c 0,103,104
 92 315 92 315 112.5 323.5 c 128,-1,105
 133 332 133 332 163 338 c 2,106,-1
 182 341 l 2,107,108
 188 341 188 341 201 335 c 0,109,110
 220 325 220 325 230 316 c 0,4,5
96 19 m 0,111,112
 105 12 105 12 120 12 c 0,113,114
 132 12 132 12 146 15 c 0,115,116
 159 19 159 19 176 26 c 0,117,118
 197 35 197 35 209 47 c 1,119,120
 207 77 207 77 207 92 c 0,121,122
 207 119 207 119 208 132 c 1,123,124
 200 134 200 134 198 134 c 0,125,126
 188 135 188 135 164 133 c 0,127,128
 134 128 134 128 130 127 c 0,129,130
 108 120 108 120 95 108 c 0,131,132
 86 99 86 99 81 79 c 0,133,134
 77 64 77 64 80 47 c 0,135,136
 81 39 81 39 86 32 c 0,137,138
 92 21 92 21 96 19 c 0,111,112
EndSplineSet
EndChar
StartChar: Aogonek
Encoding: 260 260 232
Width: 600
Flags: W
LayerCount: 2
Fore
SplineSet
253 -194 m 1,0,1
 221 -211 221 -211 193 -213 c 0,2,3
 158 -214 158 -214 133 -198 c 128,-1,4
 108 -182 108 -182 99 -157 c 128,-1,5
 90 -132 90 -132 94.5 -101.5 c 128,-1,6
 99 -71 99 -71 119 -46 c 0,7,8
 135 -24 135 -24 150 -12.5 c 128,-1,9
 165 -1 165 -1 187 -1 c 1,10,11
 183 -7 183 -7 169.5 -24 c 128,-1,12
 156 -41 156 -41 149.5 -53 c 128,-1,13
 143 -65 143 -65 140 -79 c 0,14,15
 129 -131 129 -131 162 -160.5 c 128,-1,16
 195 -190 195 -190 246 -179 c 1,17,-1
 253 -194 l 1,0,1
285 471 m 1,18,-1
 191 238 l 1,19,20
 216 235 216 235 251 234 c 128,-1,21
 286 233 286 233 316 233.5 c 128,-1,22
 346 234 346 234 379 233 c 1,23,24
 329 367 329 367 285 471 c 1,18,-1
309.5 592 m 128,-1,26
 318 592 318 592 320 583 c 0,27,28
 339 520 339 520 414.5 323.5 c 128,-1,29
 490 127 490 127 515 72 c 0,30,31
 532 37 532 37 542.5 26.5 c 128,-1,32
 553 16 553 16 576 14 c 0,33,34
 583 13 583 13 582.5 5.5 c 128,-1,35
 582 -2 582 -2 579 -2 c 2,36,-1
 513 -2 l 2,37,38
 453 -2 453 -2 408 -6 c 0,39,40
 400 -7 400 -7 399 -1 c 0,41,42
 397 8 397 8 403 9 c 2,43,-1
 408 9 l 2,44,45
 413 10 413 10 417.5 11 c 128,-1,46
 422 12 422 12 428.5 14.5 c 128,-1,47
 435 17 435 17 438 21.5 c 128,-1,48
 441 26 441 26 444 33 c 128,-1,49
 447 40 447 40 444 49 c 0,50,51
 435 93 435 93 390 202 c 1,52,53
 244 208 244 208 178 206 c 1,54,55
 155 157 155 157 127 81 c 0,56,57
 116 46 116 46 126 35 c 128,-1,58
 136 24 136 24 191 9 c 0,59,60
 195 8 195 8 193 0 c 0,61,62
 192 -5 192 -5 191 -7 c 128,-1,63
 190 -9 190 -9 187 -8 c 0,64,65
 157 -3 157 -3 100 -1 c 0,66,67
 60 1 60 1 27 -2 c 0,68,69
 18 -3 18 -3 19 5 c 0,70,71
 19 14 19 14 24 14 c 0,72,73
 47 18 47 18 61.5 33 c 128,-1,74
 76 48 76 48 92 85 c 0,75,76
 115 133 115 133 200.5 339 c 128,-1,77
 286 545 286 545 298 582 c 0,78,25
 301 592 301 592 309.5 592 c 128,-1,26
EndSplineSet
EndChar
StartChar: ccircumflex
Encoding: 265 265 235
Width: 341
Flags: W
LayerCount: 2
Fore
SplineSet
102 411 m 1,0,-1
 118 445 l 2,1,2
 127 464 127 464 135 476 c 2,3,-1
 154 510 l 2,4,5
 166 532 166 532 172 542 c 2,6,-1
 185 562 l 2,7,8
 189 568 189 568 199.5 574 c 128,-1,9
 210 580 210 580 224 578 c 0,10,11
 231 577 231 577 236.5 572 c 128,-1,12
 242 567 242 567 245 563 c 128,-1,13
 248 559 248 559 252.5 550 c 128,-1,14
 257 541 257 541 259 538 c 2,15,-1
 281 500 l 1,16,-1
 308 450 l 2,17,18
 319 430 319 430 328 411 c 1,19,20
 307 412 307 412 287 428.5 c 128,-1,21
 267 445 267 445 243 474 c 2,22,-1
 213 511 l 1,23,24
 197 480 197 480 163.5 446 c 128,-1,25
 130 412 130 412 102 411 c 1,0,-1
26 164 m 0,26,27
 31 217 31 217 58 259 c 0,28,29
 86 302 86 302 130 327 c 0,30,31
 155 342 155 342 186 348 c 0,32,33
 215 354 215 354 245 348 c 0,34,35
 259 345 259 345 287 334 c 0,36,37
 302 328 302 328 309 324 c 0,38,39
 310 323 310 323 311 323 c 128,-1,40
 312 323 312 323 313 322 c 128,-1,41
 314 321 314 321 315 320.5 c 128,-1,42
 316 320 316 320 316 319 c 0,43,44
 317 318 317 318 317 314 c 0,45,46
 317 312 317 312 315 310 c 2,47,-1
 303 292 l 2,48,49
 301 289 301 289 298 285 c 0,50,51
 293 279 293 279 291 280 c 0,52,53
 288 279 288 279 283 279 c 2,54,-1
 274 282 l 1,55,-1
 239 296 l 2,56,57
 194 313 194 313 168 312 c 0,58,59
 150 312 150 312 132 304 c 0,60,61
 116 297 116 297 104 283 c 0,62,63
 89 264 89 264 83 244 c 0,64,65
 67 188 67 188 85 131 c 0,66,67
 105 71 105 71 157 43 c 0,68,69
 217 12 217 12 280 38 c 0,70,71
 292 43 292 43 302 49 c 2,72,-1
 304 51 l 1,73,-1
 307 51 l 1,74,-1
 308 51 l 1,75,-1
 310 50 l 1,76,-1
 312 48 l 2,77,78
 313 47 313 47 313 46 c 2,79,-1
 313 43 l 2,80,81
 313 41 313 41 312 41 c 2,82,-1
 310 39 l 2,83,84
 303 34 303 34 290 26 c 0,85,86
 256 5 256 5 229 0 c 0,87,88
 170 -14 170 -14 110 12 c 0,89,90
 82 24 82 24 62 44 c 0,91,92
 39 69 39 69 30 106 c 0,93,94
 23 136 23 136 26 164 c 0,26,27
EndSplineSet
EndChar
StartChar: cdotaccent
Encoding: 267 267 236
Width: 341
Flags: W
LayerCount: 2
Fore
SplineSet
201.5 479 m 128,-1,1
 221 487 221 487 236 474 c 128,-1,2
 251 461 251 461 249 441.5 c 128,-1,3
 247 422 247 422 228 414 c 0,4,5
 208 406 208 406 193.5 419.5 c 128,-1,6
 179 433 179 433 180.5 452 c 128,-1,0
 182 471 182 471 201.5 479 c 128,-1,1
26 164 m 0,7,8
 31 217 31 217 58 259 c 0,9,10
 86 302 86 302 130 327 c 0,11,12
 155 342 155 342 186 348 c 0,13,14
 215 354 215 354 245 348 c 0,15,16
 259 345 259 345 287 334 c 0,17,18
 302 328 302 328 309 324 c 0,19,20
 310 323 310 323 311 323 c 128,-1,21
 312 323 312 323 313 322 c 128,-1,22
 314 321 314 321 315 320.5 c 128,-1,23
 316 320 316 320 316 319 c 0,24,25
 317 318 317 318 317 314 c 0,26,27
 317 312 317 312 315 310 c 2,28,-1
 303 292 l 2,29,30
 301 289 301 289 298 285 c 0,31,32
 293 279 293 279 291 280 c 0,33,34
 288 279 288 279 283 279 c 2,35,-1
 274 282 l 1,36,-1
 239 296 l 2,37,38
 194 313 194 313 168 312 c 0,39,40
 150 312 150 312 132 304 c 0,41,42
 116 297 116 297 104 283 c 0,43,44
 89 264 89 264 83 244 c 0,45,46
 67 188 67 188 85 131 c 0,47,48
 105 71 105 71 157 43 c 0,49,50
 217 12 217 12 280 38 c 0,51,52
 292 43 292 43 302 49 c 2,53,-1
 304 51 l 1,54,-1
 307 51 l 1,55,-1
 308 51 l 1,56,-1
 310 50 l 1,57,-1
 312 48 l 2,58,59
 313 47 313 47 313 46 c 2,60,-1
 313 43 l 2,61,62
 313 41 313 41 312 41 c 2,63,-1
 310 39 l 2,64,65
 303 34 303 34 290 26 c 0,66,67
 256 5 256 5 229 0 c 0,68,69
 170 -14 170 -14 110 12 c 0,70,71
 82 24 82 24 62 44 c 0,72,73
 39 69 39 69 30 106 c 0,74,75
 23 136 23 136 26 164 c 0,7,8
EndSplineSet
EndChar
StartChar: ccaron
Encoding: 269 269 237
Width: 341
Flags: W
LayerCount: 2
Fore
SplineSet
102 579 m 1,0,1
 123 578 123 578 143 561 c 128,-1,2
 163 544 163 544 186 514.5 c 128,-1,3
 209 485 209 485 217 478 c 1,4,5
 230 498 230 498 238.5 509 c 128,-1,6
 247 520 247 520 263.5 539 c 128,-1,7
 280 558 280 558 296.5 568 c 128,-1,8
 313 578 313 578 328 579 c 1,9,10
 321 563 321 563 311.5 544.5 c 128,-1,11
 302 526 302 526 294.5 513.5 c 128,-1,12
 287 501 287 501 275.5 479.5 c 128,-1,13
 264 458 264 458 258 448 c 0,14,15
 249 433 249 433 244.5 427 c 128,-1,16
 240 421 240 421 230 415 c 128,-1,17
 220 409 220 409 206 411 c 0,18,19
 199 412 199 412 193 417.5 c 128,-1,20
 187 423 187 423 184.5 426.5 c 128,-1,21
 182 430 182 430 177 439.5 c 128,-1,22
 172 449 172 449 170 452 c 0,23,24
 166 460 166 460 148.5 490 c 128,-1,25
 131 520 131 520 120.5 539.5 c 128,-1,26
 110 559 110 559 102 579 c 1,0,1
26 164 m 0,27,28
 31 217 31 217 58 259 c 0,29,30
 86 302 86 302 130 327 c 0,31,32
 155 342 155 342 186 348 c 0,33,34
 215 354 215 354 245 348 c 0,35,36
 259 345 259 345 287 334 c 0,37,38
 302 328 302 328 309 324 c 0,39,40
 310 323 310 323 311 323 c 128,-1,41
 312 323 312 323 313 322 c 128,-1,42
 314 321 314 321 315 320.5 c 128,-1,43
 316 320 316 320 316 319 c 0,44,45
 317 318 317 318 317 314 c 0,46,47
 317 312 317 312 315 310 c 2,48,-1
 303 292 l 2,49,50
 301 289 301 289 298 285 c 0,51,52
 293 279 293 279 291 280 c 0,53,54
 288 279 288 279 283 279 c 2,55,-1
 274 282 l 1,56,-1
 239 296 l 2,57,58
 194 313 194 313 168 312 c 0,59,60
 150 312 150 312 132 304 c 0,61,62
 116 297 116 297 104 283 c 0,63,64
 89 264 89 264 83 244 c 0,65,66
 67 188 67 188 85 131 c 0,67,68
 105 71 105 71 157 43 c 0,69,70
 217 12 217 12 280 38 c 0,71,72
 292 43 292 43 302 49 c 2,73,-1
 304 51 l 1,74,-1
 307 51 l 1,75,-1
 308 51 l 1,76,-1
 310 50 l 1,77,-1
 312 48 l 2,78,79
 313 47 313 47 313 46 c 2,80,-1
 313 43 l 2,81,82
 313 41 313 41 312 41 c 2,83,-1
 310 39 l 2,84,85
 303 34 303 34 290 26 c 0,86,87
 256 5 256 5 229 0 c 0,88,89
 170 -14 170 -14 110 12 c 0,90,91
 82 24 82 24 62 44 c 0,92,93
 39 69 39 69 30 106 c 0,94,95
 23 136 23 136 26 164 c 0,27,28
EndSplineSet
EndChar
StartChar: Dcroat
Encoding: 272 272 239
Width: 683
Flags: W
LayerCount: 2
Fore
SplineSet
152 314 m 1,0,-1
 319 314 l 1,1,-1
 319 289 l 1,2,-1
 152 289 l 1,3,4
 152 261 152 261 154 203.5 c 128,-1,5
 156 146 156 146 156 118 c 0,6,7
 156 115 156 115 154.5 98 c 128,-1,8
 153 81 153 81 154 68.5 c 128,-1,9
 155 56 155 56 160 50 c 0,10,11
 181 22 181 22 296 22 c 0,12,13
 419 22 419 22 491.5 104.5 c 128,-1,14
 564 187 564 187 564 311 c 0,15,16
 564 422 564 422 482.5 501.5 c 128,-1,17
 401 581 401 581 290 581 c 2,18,-1
 246 581 l 2,19,20
 231 581 231 581 204.5 575 c 128,-1,21
 178 569 178 569 167 557 c 128,-1,22
 156 545 156 545 156 485 c 0,23,24
 156 461 156 461 154 403 c 128,-1,25
 152 345 152 345 152 314 c 1,0,-1
97 3 m 1,26,-1
 97 -1 l 1,27,-1
 238 -1 l 1,28,29
 221 7 221 7 196.5 7.5 c 128,-1,30
 172 8 172 8 139.5 5.5 c 128,-1,31
 107 3 107 3 97 3 c 1,26,-1
22 589 m 1,32,33
 64 589 64 589 156.5 598 c 128,-1,34
 249 607 249 607 319 603.5 c 128,-1,35
 389 600 389 600 449 577 c 0,36,37
 513 551 513 551 559.5 502 c 128,-1,38
 606 453 606 453 625.5 393.5 c 128,-1,39
 645 334 645 334 642.5 273 c 128,-1,40
 640 212 640 212 606.5 154 c 128,-1,41
 573 96 573 96 512 58 c 0,42,43
 479 36 479 36 440.5 23 c 128,-1,44
 402 10 402 10 366.5 7 c 128,-1,45
 331 4 331 4 290.5 2.5 c 128,-1,46
 250 1 250 1 212 3 c 0,47,48
 177 4 177 4 111 1.5 c 128,-1,49
 45 -1 45 -1 15 -1 c 1,50,-1
 15 18 l 1,51,52
 57 18 57 18 71 37 c 0,53,54
 77 44 77 44 80 55 c 128,-1,55
 83 66 83 66 84 73.5 c 128,-1,56
 85 81 85 81 85.5 96.5 c 128,-1,57
 86 112 86 112 86 114 c 0,58,59
 90 162 90 162 89 289 c 1,60,-1
 19 289 l 1,61,-1
 19 314 l 1,62,-1
 89 314 l 1,63,-1
 89 358 l 1,64,-1
 89 408 l 2,65,66
 89 424 89 424 87.5 449.5 c 128,-1,67
 86 475 86 475 85 497 c 0,68,69
 80 535 80 535 68 553 c 128,-1,70
 56 571 56 571 22 571 c 1,71,-1
 22 589 l 1,32,33
EndSplineSet
EndChar
StartChar: Eogonek
Encoding: 280 280 244
Width: 534
Flags: W
LayerCount: 2
Fore
SplineSet
98 -193 m 1,0,1
 66 -210 66 -210 38 -212 c 0,2,3
 3 -213 3 -213 -22 -197 c 128,-1,4
 -47 -181 -47 -181 -56 -156 c 128,-1,5
 -65 -131 -65 -131 -60.5 -100.5 c 128,-1,6
 -56 -70 -56 -70 -36 -45 c 0,7,8
 -20 -23 -20 -23 -5 -11.5 c 128,-1,9
 10 0 10 0 32 0 c 1,10,11
 28 -6 28 -6 14.5 -23 c 128,-1,12
 1 -40 1 -40 -5.5 -52 c 128,-1,13
 -12 -64 -12 -64 -15 -78 c 0,14,15
 -26 -130 -26 -130 7 -159.5 c 128,-1,16
 40 -189 40 -189 91 -178 c 1,17,-1
 98 -193 l 1,0,1
416 209 m 0,18,19
 411 248 411 248 404 263 c 0,20,21
 395 277 395 277 381 280 c 0,22,23
 320 289 320 289 242 289 c 0,24,25
 185 289 185 289 170 288 c 0,26,27
 161 288 161 288 161 282 c 0,28,29
 161 88 161 88 168 45 c 0,30,31
 169 38 169 38 175 37 c 0,32,33
 206 23 206 23 302 23 c 0,34,35
 399 23 399 23 452 60 c 0,36,37
 484 83 484 83 505 135 c 0,38,39
 506 139 506 139 509.5 139 c 128,-1,40
 513 139 513 139 515 137 c 0,41,42
 520 132 520 132 519 130 c 0,43,44
 481 12 481 12 475 0 c 0,45,46
 475 -5 475 -5 468 -4 c 0,47,48
 449 0 449 0 257 0 c 2,49,-1
 116 0 l 2,50,51
 85 0 85 0 32 -7 c 0,52,53
 25 -8 25 -8 23.5 0 c 128,-1,54
 22 8 22 8 26 9 c 0,55,56
 59 15 59 15 75 23 c 0,57,58
 83 28 83 28 84 43 c 0,59,60
 95 129 95 129 97.5 270.5 c 128,-1,61
 100 412 100 412 92 530 c 0,62,63
 91 555 91 555 70 565 c 0,64,65
 58 571 58 571 41 574 c 0,66,67
 33 576 33 576 33 581.5 c 128,-1,68
 33 587 33 587 39 587 c 0,69,70
 417 584 417 584 456 590 c 0,71,72
 460 591 460 591 472 591 c 0,73,74
 481 591 481 591 477 583 c 0,75,76
 473 571 473 571 462 478 c 0,77,78
 460 468 460 468 455 468 c 0,79,80
 445 468 445 468 446.5 477.5 c 128,-1,81
 448 487 448 487 448 495 c 0,82,83
 449 534 449 534 430 544 c 0,84,85
 385 567 385 567 285 567 c 0,86,87
 228 567 228 567 179 557 c 0,88,89
 172 555 172 555 171 550 c 0,90,91
 167 524 167 524 161 323 c 0,92,93
 161 312 161 312 167 311 c 2,94,-1
 249 311 l 2,95,96
 335 311 335 311 384 318 c 0,97,98
 395 319 395 319 402 331 c 0,99,100
 414 357 414 357 419 373 c 0,101,102
 420 377 420 377 427.5 377 c 128,-1,103
 435 377 435 377 433 372 c 0,104,105
 422 290 422 290 431 212 c 0,106,107
 433 203 433 203 424.5 203 c 128,-1,108
 416 203 416 203 416 209 c 0,18,19
EndSplineSet
EndChar
StartChar: ecaron
Encoding: 283 283 246
Width: 338
Flags: W
LayerCount: 2
Fore
SplineSet
67 577 m 1,0,1
 88 576 88 576 108 559 c 128,-1,2
 128 542 128 542 151 512.5 c 128,-1,3
 174 483 174 483 182 476 c 1,4,5
 195 496 195 496 203.5 507 c 128,-1,6
 212 518 212 518 228.5 537 c 128,-1,7
 245 556 245 556 261.5 566 c 128,-1,8
 278 576 278 576 293 577 c 1,9,10
 286 561 286 561 276.5 542.5 c 128,-1,11
 267 524 267 524 259.5 511.5 c 128,-1,12
 252 499 252 499 240.5 477.5 c 128,-1,13
 229 456 229 456 223 446 c 0,14,15
 214 431 214 431 209.5 425 c 128,-1,16
 205 419 205 419 195 413 c 128,-1,17
 185 407 185 407 171 409 c 0,18,19
 164 410 164 410 158 415.5 c 128,-1,20
 152 421 152 421 149.5 424.5 c 128,-1,21
 147 428 147 428 142 437.5 c 128,-1,22
 137 447 137 447 135 450 c 0,23,24
 131 458 131 458 113.5 488 c 128,-1,25
 96 518 96 518 85.5 537.5 c 128,-1,26
 75 557 75 557 67 577 c 1,0,1
48 247 m 0,27,28
 74 294 74 294 126 319 c 0,29,30
 158 334 158 334 191 331 c 0,31,32
 232 327 232 327 266 296 c 0,33,34
 284 280 284 280 297 257 c 0,35,36
 301 251 301 251 302 251 c 2,37,-1
 308 245 l 2,38,39
 309 244 309 244 310.5 243 c 128,-1,40
 312 242 312 242 313 242 c 0,41,42
 316 241 316 241 317 238 c 2,43,-1
 317 235 l 2,44,45
 317 233 317 233 316 233 c 2,46,-1
 314 231 l 1,47,-1
 311 231 l 1,48,-1
 250 218 l 1,49,-1
 78 184 l 1,50,51
 75 145 75 145 87 111 c 0,52,53
 96 87 96 87 112 66 c 0,54,55
 127 47 127 47 151 35 c 0,56,57
 178 22 178 22 210 24 c 0,58,59
 234 25 234 25 268 39 c 0,60,61
 293 50 293 50 304 58 c 1,62,-1
 310 50 l 1,63,64
 286 32 286 32 258 17 c 0,65,66
 220 -3 220 -3 176 -6 c 0,67,68
 131 -9 131 -9 94 14 c 0,69,70
 57 38 57 38 39 82 c 0,71,72
 24 119 24 119 26 168 c 0,73,74
 29 214 29 214 48 247 c 0,27,28
211 294 m 0,75,76
 182 315 182 315 153 314 c 0,77,78
 131 314 131 314 114 299 c 0,79,80
 99 286 99 286 93 268 c 0,81,82
 88 256 88 256 83 235 c 0,83,84
 80 223 80 223 78 198 c 1,85,-1
 222 229 l 2,86,87
 224 229 224 229 227 230 c 128,-1,88
 230 231 230 231 232 231 c 2,89,-1
 241 234 l 2,90,91
 244 235 244 235 245 238 c 0,92,93
 247 242 247 242 247 243 c 2,94,-1
 247 248 l 2,95,96
 247 249 247 249 245 252 c 0,97,98
 233 278 233 278 211 294 c 0,75,76
EndSplineSet
EndChar
StartChar: gdotaccent
Encoding: 289 289 249
Width: 403
Flags: W
LayerCount: 2
Fore
SplineSet
186.5 476 m 128,-1,1
 206 484 206 484 221 471 c 128,-1,2
 236 458 236 458 234 438.5 c 128,-1,3
 232 419 232 419 213 411 c 0,4,5
 193 403 193 403 178.5 416.5 c 128,-1,6
 164 430 164 430 165.5 449 c 128,-1,0
 167 468 167 468 186.5 476 c 128,-1,1
41 175 m 0,7,8
 37 214 37 214 55 251 c 128,-1,9
 73 288 73 288 104 313 c 0,10,11
 128 333 128 333 159 341 c 0,12,13
 218 358 218 358 268 327 c 0,14,15
 273 323 273 323 281 320 c 0,16,17
 283 319 283 319 287.5 319.5 c 128,-1,18
 292 320 292 320 294 320 c 0,19,20
 306 323 306 323 333 325 c 0,21,22
 351 326 351 326 372 323 c 0,23,24
 376 323 376 323 377 322 c 128,-1,25
 378 321 378 321 379 320.5 c 128,-1,26
 380 320 380 320 381 320 c 0,27,28
 382 319 382 319 382 315 c 2,29,-1
 382 311 l 2,30,31
 382 302 382 302 379 296 c 0,32,33
 376 288 376 288 372 284 c 2,34,-1
 371 282 l 2,35,36
 370 281 370 281 369 281 c 2,37,-1
 366 281 l 2,38,39
 365 281 365 281 363 282 c 0,40,41
 348 286 348 286 340 286 c 0,42,43
 321 289 321 289 305 289 c 1,44,45
 318 259 318 259 324 230 c 0,46,47
 329 205 329 205 326 184 c 0,48,49
 323 160 323 160 312 139 c 0,50,51
 303 122 303 122 281 103 c 0,52,53
 257 83 257 83 199 57 c 2,54,-1
 170 44 l 2,55,56
 156 38 156 38 147 32 c 0,57,58
 126 19 126 19 123 17 c 0,59,60
 122 16 122 16 120 14.5 c 128,-1,61
 118 13 118 13 117 12 c 128,-1,62
 116 11 116 11 114 6 c 0,63,64
 113 2 113 2 114 -2 c 128,-1,65
 115 -6 115 -6 119 -9 c 0,66,67
 125 -15 125 -15 132 -18 c 0,68,69
 158 -29 158 -29 216 -27 c 0,70,71
 276 -25 276 -25 301 -32 c 0,72,73
 328 -41 328 -41 344 -55 c 0,74,75
 364 -74 364 -74 370 -96 c 0,76,77
 377 -123 377 -123 364 -154 c 0,78,79
 354 -179 354 -179 329 -200 c 0,80,81
 280 -243 280 -243 205 -262 c 0,82,83
 166 -271 166 -271 136 -270 c 0,84,85
 98 -268 98 -268 70 -252 c 0,86,87
 45 -238 45 -238 34 -218 c 0,88,89
 21 -195 21 -195 22 -171 c 0,90,91
 24 -145 24 -145 36 -124 c 0,92,93
 45 -108 45 -108 69 -86 c 0,94,95
 79 -77 79 -77 104 -61 c 1,96,-1
 83 -43 l 2,97,98
 74 -34 74 -34 66 -21 c 0,99,100
 60 -10 60 -10 59 -4 c 0,101,102
 59 -3 59 -3 58.5 -1.5 c 128,-1,103
 58 0 58 0 58 1 c 128,-1,104
 58 2 58 2 58.5 3.5 c 128,-1,105
 59 5 59 5 59 6 c 0,106,107
 58 8 58 8 60 9 c 0,108,109
 61 10 61 10 65 12 c 0,110,111
 88 25 88 25 92 26 c 2,112,-1
 125 41 l 1,113,-1
 150 53 l 1,114,115
 140 56 140 56 121 65 c 0,116,117
 88 81 88 81 67 110 c 128,-1,118
 46 139 46 139 41 175 c 0,7,8
124 310 m 0,119,120
 105 297 105 297 92 271 c 0,121,122
 81 248 81 248 80 222 c 0,123,124
 80 171 80 171 117 130 c 0,125,126
 153 89 153 89 204 78 c 1,127,128
 223 84 223 84 238 95 c 0,129,130
 264 115 264 115 273 147 c 0,131,132
 279 172 279 172 276 196 c 0,133,134
 273 224 273 224 263 252 c 0,135,136
 252 284 252 284 233 302 c 0,137,138
 209 325 209 325 180 325 c 0,139,140
 148 327 148 327 124 310 c 0,119,120
91 -88 m 0,141,142
 74 -100 74 -100 63 -114 c 0,143,144
 51 -130 51 -130 50 -150 c 0,145,146
 49 -173 49 -173 64 -193 c 0,147,148
 75 -208 75 -208 102 -220 c 0,149,150
 145 -240 145 -240 194 -235 c 0,151,152
 248 -230 248 -230 293 -204 c 0,153,154
 308 -195 308 -195 320 -182 c 0,155,156
 330 -171 330 -171 333 -152 c 0,157,158
 335 -138 335 -138 330 -117 c 0,159,160
 324 -100 324 -100 317.5 -91.5 c 128,-1,161
 311 -83 311 -83 298 -78 c 0,162,163
 290 -75 290 -75 275 -74 c 0,164,165
 251 -73 251 -73 228 -74 c 0,166,167
 188 -76 188 -76 161 -72 c 0,168,169
 149 -71 149 -71 130 -67 c 1,170,171
 108 -77 108 -77 91 -88 c 0,141,142
EndSplineSet
EndChar
StartChar: Hbar
Encoding: 294 294 252
Width: 727
Flags: W
LayerCount: 2
Fore
SplineSet
327 486 m 1,0,-1
 704 486 l 1,1,-1
 704 458 l 1,2,-1
 327 458 l 1,3,-1
 27 458 l 1,4,-1
 27 486 l 1,5,-1
 327 486 l 1,0,-1
37 591 m 0,6,7
 59 591 59 591 97 588.5 c 128,-1,8
 135 586 135 586 147 586 c 0,9,10
 202 586 202 586 230 589 c 0,11,12
 234 590 234 590 235 587.5 c 128,-1,13
 236 585 236 585 236 581 c 0,14,15
 236 574 236 574 231 574 c 0,16,17
 177 566 177 566 170 554 c 0,18,19
 168 552 168 552 168 549 c 0,20,21
 164 520 164 520 163 483.5 c 128,-1,22
 162 447 162 447 161 391 c 128,-1,23
 160 335 160 335 160 317 c 1,24,-1
 576 317 l 1,25,26
 576 331 576 331 576.5 371 c 128,-1,27
 577 411 577 411 576 449 c 128,-1,28
 575 487 575 487 571 526 c 0,29,30
 568 554 568 554 554 564 c 128,-1,31
 540 574 540 574 507 579 c 0,32,33
 503 580 503 580 503 586 c 0,34,35
 505 595 505 595 510 595 c 2,36,-1
 550 592 l 2,37,38
 590 589 590 589 614 589 c 0,39,40
 633 589 633 589 695 594 c 0,41,42
 700 594 700 594 701.5 586.5 c 128,-1,43
 703 579 703 579 698 578 c 0,44,45
 646 572 646 572 645 528 c 0,46,47
 636 176 636 176 644 62 c 0,48,49
 645 46 645 46 648 36.5 c 128,-1,50
 651 27 651 27 661 22.5 c 128,-1,51
 671 18 671 18 676.5 17 c 128,-1,52
 682 16 682 16 700 14 c 0,53,54
 706 13 706 13 705 3 c 0,55,56
 705 -1 705 -1 703 -4 c 128,-1,57
 701 -7 701 -7 697 -6 c 0,58,59
 659 1 659 1 613 1 c 0,60,61
 577 1 577 1 515 -8 c 0,62,63
 510 -9 510 -9 509 -8 c 128,-1,64
 508 -7 508 -7 507 0 c 0,65,66
 505 11 505 11 510 12 c 0,67,68
 530 16 530 16 537.5 18 c 128,-1,69
 545 20 545 20 554.5 25.5 c 128,-1,70
 564 31 564 31 567 40.5 c 128,-1,71
 570 50 570 50 571 66 c 0,72,73
 578 211 578 211 575 285 c 1,74,-1
 160 287 l 1,75,76
 159 250 159 250 160 206 c 0,77,78
 161 161 161 161 162 110 c 0,79,80
 163 58 163 58 163 57 c 0,81,82
 163 35 163 35 179.5 24.5 c 128,-1,83
 196 14 196 14 227 9 c 0,84,85
 234 8 234 8 232 -3 c 0,86,87
 230 -10 230 -10 223 -9 c 0,88,89
 185 0 185 0 130 0 c 0,90,91
 83 0 83 0 33 -7 c 0,92,93
 24 -8 24 -8 24 -1 c 0,94,95
 22 8 22 8 28 9 c 0,96,97
 62 14 62 14 74 22 c 128,-1,98
 86 30 86 30 88 57 c 0,99,100
 97 195 97 195 96 327.5 c 128,-1,101
 95 460 95 460 91 531 c 0,102,103
 89 557 89 557 77 565 c 128,-1,104
 65 573 65 573 34 574 c 0,105,106
 28 574 28 574 28 582 c 0,107,108
 30 591 30 591 37 591 c 0,6,7
EndSplineSet
EndChar
StartChar: ibreve
Encoding: 301 301 256
Width: 220
Flags: W
LayerCount: 2
Fore
SplineSet
27 539 m 1,0,1
 38 538 38 538 44.5 531.5 c 128,-1,2
 51 525 51 525 56 512.5 c 128,-1,3
 61 500 61 500 66 494 c 0,4,5
 92 465 92 465 134.5 465 c 128,-1,6
 177 465 177 465 203 494 c 0,7,8
 208 500 208 500 213 512.5 c 128,-1,9
 218 525 218 525 224.5 531.5 c 128,-1,10
 231 538 231 538 242 539 c 1,11,12
 239 474 239 474 204 441 c 0,13,14
 165 405 165 405 115.5 415.5 c 128,-1,15
 66 426 66 426 42 472 c 0,16,17
 28 501 28 501 27 539 c 1,0,1
81 317 m 0,18,19
 107 332 107 332 128 350 c 0,20,21
 129 350 129 350 129 351 c 2,22,-1
 130 352 l 2,23,24
 131 353 131 353 133 353 c 2,25,-1
 136 353 l 1,26,-1
 138 351 l 2,27,28
 141 350 141 350 141 346 c 0,29,30
 141 345 141 345 140.5 342.5 c 128,-1,31
 140 340 140 340 140 339 c 0,32,33
 136 314 136 314 132 268 c 0,34,35
 129 230 129 230 130 153 c 0,36,37
 130 108 130 108 132 62 c 0,38,39
 132 51 132 51 135 41 c 0,40,41
 138 30 138 30 145 22 c 0,42,43
 151 16 151 16 153 15 c 0,44,45
 157 14 157 14 164 14 c 2,46,-1
 190 15 l 1,47,-1
 198 15 l 2,48,49
 199 15 199 15 200 13 c 0,50,51
 203 10 203 10 203 9 c 2,52,-1
 202 8 l 1,53,-1
 202 6 l 1,54,-1
 201 5 l 2,55,56
 200 4 200 4 200 3 c 0,57,58
 198 1 198 1 197 1 c 2,59,-1
 193 1 l 2,60,61
 139 1 139 1 112 0 c 0,62,63
 83 -1 83 -1 29 -5 c 1,64,-1
 26 -5 l 1,65,-1
 25 -3 l 2,66,67
 24 -2 24 -2 24 -1 c 2,68,-1
 24 2 l 1,69,-1
 24 5 l 2,70,71
 24 6 24 6 25 7 c 2,72,-1
 26 9 l 1,73,-1
 29 9 l 1,74,-1
 57 12 l 2,75,76
 59 12 59 12 62.5 14 c 128,-1,77
 66 16 66 16 67 18 c 0,78,79
 69 22 69 22 69 24 c 0,80,81
 69 25 69 25 69.5 26.5 c 128,-1,82
 70 28 70 28 70 29 c 0,83,84
 74 75 74 75 76 123 c 0,85,86
 78 184 78 184 73 246 c 0,87,88
 73 251 73 251 71 260 c 128,-1,89
 69 269 69 269 64 273 c 0,90,91
 57 280 57 280 51 280 c 0,92,93
 43 280 43 280 37 277 c 2,94,-1
 34 276 l 1,95,-1
 33 276 l 2,96,97
 32 275 32 275 31 275 c 2,98,-1
 27 275 l 2,99,100
 25 275 25 275 26 278 c 2,101,-1
 26 281 l 1,102,-1
 26 285 l 1,103,-1
 26 288 l 1,104,-1
 27 290 l 2,105,106
 29 292 29 292 30 292 c 2,107,-1
 34 293 l 2,108,109
 54 302 54 302 81 317 c 0,18,19
EndSplineSet
EndChar
StartChar: Iogonek
Encoding: 302 302 257
Width: 311
Flags: W
LayerCount: 2
Fore
SplineSet
100 -190 m 1,0,1
 68 -207 68 -207 40 -209 c 0,2,3
 5 -210 5 -210 -20 -194 c 128,-1,4
 -45 -178 -45 -178 -54 -153 c 128,-1,5
 -63 -128 -63 -128 -58.5 -97.5 c 128,-1,6
 -54 -67 -54 -67 -34 -42 c 0,7,8
 -18 -20 -18 -20 -3 -8.5 c 128,-1,9
 12 3 12 3 34 3 c 1,10,11
 30 -3 30 -3 16.5 -20 c 128,-1,12
 3 -37 3 -37 -3.5 -49 c 128,-1,13
 -10 -61 -10 -61 -13 -75 c 0,14,15
 -24 -127 -24 -127 9 -156.5 c 128,-1,16
 42 -186 42 -186 93 -175 c 1,17,-1
 100 -190 l 1,0,1
36 593 m 0,18,19
 79 588 79 588 159 588 c 0,20,21
 225 588 225 588 280 594 c 0,22,23
 289 595 289 595 289 587 c 0,24,25
 289 576 289 576 283 576 c 2,26,-1
 272 576 l 2,27,28
 263 576 263 576 261 575.5 c 128,-1,29
 259 575 259 575 250.5 574.5 c 128,-1,30
 242 574 242 574 240 573 c 2,31,-1
 230 570 l 2,32,33
 224 567 224 567 221 564 c 2,34,-1
 214 558 l 2,35,36
 209 554 209 554 207 549 c 128,-1,37
 205 544 205 544 202.5 536.5 c 128,-1,38
 200 529 200 529 199 521 c 0,39,40
 192 466 192 466 191.5 312 c 128,-1,41
 191 158 191 158 195 66 c 0,42,43
 197 23 197 23 222 17 c 0,44,45
 241 12 241 12 279 12 c 0,46,47
 285 12 285 12 285 4 c 0,48,49
 285 -3 285 -3 276 -3 c 0,50,51
 266 -4 266 -4 219.5 -2 c 128,-1,52
 173 0 173 0 161 0 c 0,53,54
 71 0 71 0 34 -4 c 0,55,56
 23 -6 23 -6 23 3 c 0,57,58
 23 14 23 14 29 14 c 0,59,60
 76 16 76 16 89 21 c 0,61,62
 121 32 121 32 124 75 c 0,63,64
 131 171 131 171 130 313.5 c 128,-1,65
 129 456 129 456 123 516 c 0,66,67
 119 552 119 552 103.5 562 c 128,-1,68
 88 572 88 572 47 576 c 0,69,70
 39 577 39 577 36 577 c 0,71,72
 28 578 28 578 28 583 c 0,73,74
 28 593 28 593 36 593 c 0,18,19
EndSplineSet
EndChar
StartChar: iogonek
Encoding: 303 303 258
Width: 220
Flags: W
LayerCount: 2
Fore
SplineSet
93 -191 m 1,0,1
 61 -208 61 -208 33 -210 c 0,2,3
 -2 -211 -2 -211 -27 -195 c 128,-1,4
 -52 -179 -52 -179 -61 -154 c 128,-1,5
 -70 -129 -70 -129 -65.5 -98.5 c 128,-1,6
 -61 -68 -61 -68 -41 -43 c 0,7,8
 -25 -21 -25 -21 -10 -9.5 c 128,-1,9
 5 2 5 2 27 2 c 1,10,11
 23 -4 23 -4 9.5 -21 c 128,-1,12
 -4 -38 -4 -38 -10.5 -50 c 128,-1,13
 -17 -62 -17 -62 -20 -76 c 0,14,15
 -31 -128 -31 -128 2 -157.5 c 128,-1,16
 35 -187 35 -187 86 -176 c 1,17,-1
 93 -191 l 1,0,1
151 539 m 0,18,19
 167 532 167 532 166 531 c 0,20,21
 159 524 159 524 146 508 c 0,22,23
 127 483 127 483 125 479 c 1,24,-1
 101 509 l 1,25,-1
 82 529 l 1,26,27
 104 541 104 541 117 572 c 1,28,29
 121 571 121 571 135.5 556 c 128,-1,30
 150 541 150 541 151 539 c 0,18,19
81 317 m 0,31,32
 107 332 107 332 128 350 c 0,33,34
 129 350 129 350 129 351 c 2,35,-1
 130 352 l 2,36,37
 131 353 131 353 133 353 c 2,38,-1
 136 353 l 1,39,-1
 138 351 l 2,40,41
 141 350 141 350 141 346 c 0,42,43
 141 345 141 345 140.5 342.5 c 128,-1,44
 140 340 140 340 140 339 c 0,45,46
 136 314 136 314 132 268 c 0,47,48
 129 230 129 230 130 153 c 0,49,50
 130 108 130 108 132 62 c 0,51,52
 132 51 132 51 135 41 c 0,53,54
 138 30 138 30 145 22 c 0,55,56
 151 16 151 16 153 15 c 0,57,58
 157 14 157 14 164 14 c 2,59,-1
 190 15 l 1,60,-1
 198 15 l 2,61,62
 199 15 199 15 200 13 c 0,63,64
 203 10 203 10 203 9 c 2,65,-1
 202 8 l 1,66,-1
 202 6 l 1,67,-1
 201 5 l 2,68,69
 200 4 200 4 200 3 c 0,70,71
 198 1 198 1 197 1 c 2,72,-1
 193 1 l 2,73,74
 139 1 139 1 112 0 c 0,75,76
 83 -1 83 -1 29 -5 c 1,77,-1
 26 -5 l 1,78,-1
 25 -3 l 2,79,80
 24 -2 24 -2 24 -1 c 2,81,-1
 24 2 l 1,82,-1
 24 5 l 2,83,84
 24 6 24 6 25 7 c 2,85,-1
 26 9 l 1,86,-1
 29 9 l 1,87,-1
 57 12 l 2,88,89
 59 12 59 12 62.5 14 c 128,-1,90
 66 16 66 16 67 18 c 0,91,92
 69 22 69 22 69 24 c 0,93,94
 69 25 69 25 69.5 26.5 c 128,-1,95
 70 28 70 28 70 29 c 0,96,97
 74 75 74 75 76 123 c 0,98,99
 78 184 78 184 73 246 c 0,100,101
 73 251 73 251 71 260 c 128,-1,102
 69 269 69 269 64 273 c 0,103,104
 57 280 57 280 51 280 c 0,105,106
 43 280 43 280 37 277 c 2,107,-1
 34 276 l 1,108,-1
 33 276 l 2,109,110
 32 275 32 275 31 275 c 2,111,-1
 27 275 l 2,112,113
 25 275 25 275 26 278 c 2,114,-1
 26 281 l 1,115,-1
 26 285 l 1,116,-1
 26 288 l 1,117,-1
 27 290 l 2,118,119
 29 292 29 292 30 292 c 2,120,-1
 34 293 l 2,121,122
 54 302 54 302 81 317 c 0,31,32
EndSplineSet
EndChar
StartChar: dotlessi
Encoding: 305 305 259
Width: 220
Flags: W
LayerCount: 2
Fore
SplineSet
81 317 m 0,0,1
 107 332 107 332 128 350 c 0,2,3
 129 350 129 350 129 351 c 2,4,-1
 130 352 l 2,5,6
 131 353 131 353 133 353 c 2,7,-1
 136 353 l 1,8,-1
 138 351 l 2,9,10
 141 350 141 350 141 346 c 0,11,12
 141 345 141 345 140.5 342.5 c 128,-1,13
 140 340 140 340 140 339 c 0,14,15
 136 314 136 314 132 268 c 0,16,17
 129 230 129 230 130 153 c 0,18,19
 130 108 130 108 132 62 c 0,20,21
 132 51 132 51 135 41 c 0,22,23
 138 30 138 30 145 22 c 0,24,25
 151 16 151 16 153 15 c 0,26,27
 157 14 157 14 164 14 c 2,28,-1
 190 15 l 1,29,-1
 198 15 l 2,30,31
 199 15 199 15 200 13 c 0,32,33
 203 10 203 10 203 9 c 2,34,-1
 202 8 l 1,35,-1
 202 6 l 1,36,-1
 201 5 l 2,37,38
 200 4 200 4 200 3 c 0,39,40
 198 1 198 1 197 1 c 2,41,-1
 193 1 l 2,42,43
 139 1 139 1 112 0 c 0,44,45
 83 -1 83 -1 29 -5 c 1,46,-1
 26 -5 l 1,47,-1
 25 -3 l 2,48,49
 24 -2 24 -2 24 -1 c 2,50,-1
 24 2 l 1,51,-1
 24 5 l 2,52,53
 24 6 24 6 25 7 c 2,54,-1
 26 9 l 1,55,-1
 29 9 l 1,56,-1
 57 12 l 2,57,58
 59 12 59 12 62.5 14 c 128,-1,59
 66 16 66 16 67 18 c 0,60,61
 69 22 69 22 69 24 c 0,62,63
 69 25 69 25 69.5 26.5 c 128,-1,64
 70 28 70 28 70 29 c 0,65,66
 74 75 74 75 76 123 c 0,67,68
 78 184 78 184 73 246 c 0,69,70
 73 251 73 251 71 260 c 128,-1,71
 69 269 69 269 64 273 c 0,72,73
 57 280 57 280 51 280 c 0,74,75
 43 280 43 280 37 277 c 2,76,-1
 34 276 l 1,77,-1
 33 276 l 2,78,79
 32 275 32 275 31 275 c 2,80,-1
 27 275 l 2,81,82
 25 275 25 275 26 278 c 2,83,-1
 26 281 l 1,84,-1
 26 285 l 1,85,-1
 26 288 l 1,86,-1
 27 290 l 2,87,88
 29 292 29 292 30 292 c 2,89,-1
 34 293 l 2,90,91
 54 302 54 302 81 317 c 0,0,1
EndSplineSet
EndChar
StartChar: ij
Encoding: 307 307 261
Width: 446
Flags: W
LayerCount: 2
Fore
SplineSet
151 539 m 0,0,1
 167 532 167 532 166 531 c 0,2,3
 159 524 159 524 146 508 c 0,4,5
 127 483 127 483 125 479 c 1,6,-1
 101 509 l 1,7,-1
 82 529 l 1,8,9
 104 541 104 541 117 572 c 1,10,11
 121 571 121 571 135.5 556 c 128,-1,12
 150 541 150 541 151 539 c 0,0,1
281 539 m 0,13,14
 297 532 297 532 296 531 c 0,15,16
 289 524 289 524 276 508 c 0,17,18
 257 483 257 483 255 479 c 1,19,-1
 231 509 l 1,20,-1
 212 529 l 1,21,22
 234 541 234 541 247 572 c 1,23,24
 251 571 251 571 265.5 556 c 128,-1,25
 280 541 280 541 281 539 c 0,13,14
136 306 m 0,26,27
 120 290 120 290 122 146 c 0,28,29
 122 130 122 130 126.5 103 c 128,-1,30
 131 76 131 76 132 62 c 0,31,32
 132 51 132 51 135 41 c 0,33,34
 138 30 138 30 145 22 c 0,35,36
 151 16 151 16 153 15 c 0,37,38
 157 14 157 14 164 14 c 2,39,-1
 190 15 l 1,40,-1
 198 15 l 2,41,42
 199 15 199 15 200 13 c 0,43,44
 203 10 203 10 203 9 c 2,45,-1
 202 8 l 1,46,-1
 202 6 l 1,47,-1
 201 5 l 2,48,49
 200 4 200 4 200 3 c 0,50,51
 198 1 198 1 197 1 c 2,52,-1
 193 1 l 2,53,54
 139 1 139 1 112 0 c 0,55,56
 83 -1 83 -1 29 -5 c 1,57,-1
 26 -5 l 1,58,-1
 25 -3 l 2,59,60
 24 -2 24 -2 24 -1 c 2,61,-1
 24 2 l 1,62,-1
 24 5 l 2,63,64
 24 6 24 6 25 7 c 2,65,-1
 26 9 l 1,66,-1
 29 9 l 1,67,-1
 57 12 l 2,68,69
 59 12 59 12 62.5 14 c 128,-1,70
 66 16 66 16 67 18 c 0,71,72
 69 22 69 22 69 24 c 0,73,74
 69 25 69 25 69.5 26.5 c 128,-1,75
 70 28 70 28 70 29 c 0,76,77
 74 75 74 75 76 123 c 0,78,79
 78 184 78 184 73 246 c 0,80,81
 73 251 73 251 71 260 c 128,-1,82
 69 269 69 269 64 273 c 0,83,84
 57 280 57 280 51 280 c 0,85,86
 43 280 43 280 37 277 c 2,87,-1
 34 276 l 1,88,-1
 33 276 l 2,89,90
 32 275 32 275 31 275 c 2,91,-1
 27 275 l 2,92,93
 25 275 25 275 26 278 c 2,94,-1
 26 281 l 1,95,-1
 26 285 l 1,96,-1
 26 288 l 1,97,-1
 27 290 l 2,98,99
 29 292 29 292 30 292 c 2,100,-1
 34 293 l 2,101,102
 40 296 40 296 58.5 317.5 c 128,-1,103
 77 339 77 339 86 344 c 1,104,105
 125 338 125 338 194 341 c 128,-1,106
 263 344 263 344 272 352 c 0,107,108
 273 353 273 353 274 353 c 128,-1,109
 275 353 275 353 277 354 c 2,110,-1
 278 354 l 2,111,112
 279 353 279 353 280 353 c 128,-1,113
 281 353 281 353 282 352 c 2,114,-1
 284 349 l 2,115,116
 286 347 286 347 286 346 c 2,117,-1
 286 343 l 2,118,119
 286 342 286 342 285.5 341 c 128,-1,120
 285 340 285 340 285 339 c 0,121,122
 276 317 276 317 276 285 c 0,123,124
 275 259 275 259 275 204 c 128,-1,125
 275 149 275 149 274 123 c 0,126,127
 272 -40 272 -40 272 -121 c 0,128,129
 272 -135 272 -135 269 -142 c 0,130,131
 268 -145 268 -145 258 -160 c 0,132,133
 240 -185 240 -185 224 -200 c 0,134,135
 215 -209 215 -209 197 -224 c 0,136,137
 171 -245 171 -245 169 -247 c 0,138,139
 159 -260 159 -260 156 -276 c 0,140,141
 156 -278 156 -278 155 -279 c 0,142,143
 153 -281 153 -281 152 -281 c 2,144,-1
 149 -281 l 2,145,146
 148 -281 148 -281 146 -280 c 0,147,148
 145 -279 145 -279 144 -279 c 2,149,-1
 142 -277 l 2,150,151
 141 -276 141 -276 141 -275 c 2,152,-1
 141 -274 l 1,153,-1
 140 -272 l 1,154,155
 141 -263 141 -263 146 -247 c 0,156,157
 152 -231 152 -231 165 -212 c 0,158,159
 169 -206 169 -206 177 -195 c 128,-1,160
 185 -184 185 -184 189 -179 c 0,161,162
 205 -155 205 -155 212 -131 c 0,163,164
 218 -110 218 -110 219 -78 c 0,165,166
 220 -63 220 -63 224.5 -9.5 c 128,-1,167
 229 44 229 44 229 69 c 2,168,-1
 229 208 l 2,169,170
 227 231 227 231 225 240 c 0,171,172
 224 244 224 244 223 264 c 128,-1,173
 222 284 222 284 222 285 c 0,174,175
 219 293 219 293 214 298 c 0,176,177
 211 301 211 301 192.5 313 c 128,-1,178
 174 325 174 325 170 325 c 1,179,180
 170 324 170 324 153 316.5 c 128,-1,181
 136 309 136 309 136 306 c 0,26,27
EndSplineSet
EndChar
StartChar: kgreenlandic
Encoding: 312 312 265
Width: 437
Flags: W
LayerCount: 2
Fore
SplineSet
57 360 m 1,0,-1
 197 360 l 1,1,2
 191 350 191 350 175 342.5 c 128,-1,3
 159 335 159 335 153 328 c 0,4,5
 145 315 145 315 142 295 c 128,-1,6
 139 275 139 275 139 258.5 c 128,-1,7
 139 242 139 242 140 217.5 c 128,-1,8
 141 193 141 193 141 184 c 1,9,-1
 241 282 l 1,10,-1
 353 363 l 2,11,12
 352 361 352 361 358 363 c 0,13,14
 384 374 384 374 397 363 c 0,15,16
 403 357 403 357 395 342 c 128,-1,17
 387 327 387 327 383 327 c 0,18,19
 352 328 352 328 281 277 c 128,-1,20
 210 226 210 226 185 191 c 1,21,22
 214 177 214 177 245 152.5 c 128,-1,23
 276 128 276 128 312 93.5 c 128,-1,24
 348 59 348 59 365 45 c 0,25,26
 371 39 371 39 386.5 30.5 c 128,-1,27
 402 22 402 22 413.5 13.5 c 128,-1,28
 425 5 425 5 428 -5 c 1,29,-1
 413 -5 l 1,30,31
 395 2 395 2 373.5 3 c 128,-1,32
 352 4 352 4 322.5 1.5 c 128,-1,33
 293 -1 293 -1 282 -1 c 1,34,-1
 282 -5 l 1,35,-1
 271 -5 l 1,36,-1
 296 20 l 1,37,-1
 259 62 l 1,38,-1
 141 160 l 1,39,40
 141 150 141 150 140 129 c 128,-1,41
 139 108 139 108 139 94.5 c 128,-1,42
 139 81 139 81 141.5 63.5 c 128,-1,43
 144 46 144 46 150 34 c 0,44,45
 156 24 156 24 175 14.5 c 128,-1,46
 194 5 194 5 197 -5 c 1,47,-1
 174 -5 l 1,48,49
 157 2 157 2 133 3 c 0,50,51
 108 4 108 4 75.5 1.5 c 128,-1,52
 43 -1 43 -1 32 -1 c 1,53,-1
 32 9 l 1,54,55
 60 11 60 11 71 26 c 128,-1,56
 82 41 82 41 84 68 c 0,57,58
 94 200 94 200 84 293 c 0,59,60
 82 317 82 317 71 329.5 c 128,-1,61
 60 342 60 342 36 345 c 1,62,-1
 36 360 l 1,63,-1
 51 360 l 1,64,-1
 57 360 l 1,0,-1
174 -5 m 1,65,-1
 32 -1 l 1,66,-1
 32 -5 l 1,67,-1
 175 -5 l 1,68,-1
 174 -5 l 1,65,-1
EndSplineSet
EndChar
StartChar: Lcommaaccent
Encoding: 315 315 266
Width: 518
Flags: W
LayerCount: 2
Fore
SplineSet
203 -278 m 1,0,-1
 211 -289 l 1,1,-1
 203 -278 l 1,0,-1
262 -73 m 1,2,3
 267 -74 267 -74 271 -76.5 c 128,-1,4
 275 -79 275 -79 276 -81 c 2,5,-1
 282 -88 l 1,6,-1
 289 -94 l 2,7,8
 292 -98 292 -98 300 -103 c 128,-1,9
 308 -108 308 -108 314 -113 c 128,-1,10
 320 -118 320 -118 322 -125 c 128,-1,11
 324 -132 324 -132 317.5 -145 c 128,-1,12
 311 -158 311 -158 311 -160 c 0,13,14
 288 -255 288 -255 211 -289 c 1,15,-1
 203 -271 l 1,16,17
 234 -253 234 -253 251.5 -229.5 c 128,-1,18
 269 -206 269 -206 255 -179 c 0,19,20
 251 -172 251 -172 236 -156.5 c 128,-1,21
 221 -141 221 -141 218 -127 c 1,22,23
 246 -112 246 -112 262 -73 c 1,2,3
37 584 m 0,24,25
 38 584 38 584 50.5 583 c 128,-1,26
 63 582 63 582 87 580.5 c 128,-1,27
 111 579 111 579 136 579 c 0,28,29
 165 579 165 579 188.5 580.5 c 128,-1,30
 212 582 212 582 223 583.5 c 128,-1,31
 234 585 234 585 235 585 c 0,32,33
 243 585 243 585 243 576 c 0,34,35
 243 569 243 569 242 567.5 c 128,-1,36
 241 566 241 566 236 565 c 0,37,38
 197 561 197 561 183.5 553 c 128,-1,39
 170 545 170 545 168 521 c 0,40,41
 153 329 153 329 159 72 c 0,42,43
 160 48 160 48 171 38.5 c 128,-1,44
 182 29 182 29 216 28 c 0,45,46
 283 25 283 25 325 29 c 0,47,48
 410 37 410 37 442.5 58 c 128,-1,49
 475 79 475 79 486 116 c 0,50,51
 488 123 488 123 496 121 c 0,52,53
 505 118 505 118 503 110 c 0,54,55
 478 12 478 12 463 -13 c 1,56,57
 442 -6 442 -6 363 -3 c 0,58,59
 190 0 190 0 132 0 c 2,60,-1
 31 0 l 2,61,62
 23 0 23 0 24 9 c 0,63,64
 24 16 24 16 25 17.5 c 128,-1,65
 26 19 26 19 31 20 c 0,66,67
 69 26 69 26 79 35.5 c 128,-1,68
 89 45 89 45 90 78 c 0,69,70
 99 389 99 389 94 512 c 0,71,72
 93 532 93 532 90 542.5 c 128,-1,73
 87 553 87 553 77 558 c 128,-1,74
 67 563 67 563 62 564 c 2,75,-1
 37 566 l 2,76,77
 30 566 30 566 31 577 c 0,78,79
 32 584 32 584 37 584 c 0,24,25
EndSplineSet
EndChar
StartChar: Ldot
Encoding: 319 319 270
Width: 518
Flags: W
LayerCount: 2
Fore
SplineSet
348 311 m 0,0,1
 367 302 367 302 366 300 c 0,2,3
 358 292 358 292 342 271 c 0,4,5
 318 240 318 240 316 235 c 1,6,-1
 286 273 l 1,7,-1
 262 298 l 1,8,9
 290 313 290 313 306 352 c 1,10,11
 311 351 311 351 329 332 c 128,-1,12
 347 313 347 313 348 311 c 0,0,1
37 584 m 0,13,14
 38 584 38 584 50.5 583 c 128,-1,15
 63 582 63 582 87 580.5 c 128,-1,16
 111 579 111 579 136 579 c 0,17,18
 165 579 165 579 188.5 580.5 c 128,-1,19
 212 582 212 582 223 583.5 c 128,-1,20
 234 585 234 585 235 585 c 0,21,22
 243 585 243 585 243 576 c 0,23,24
 243 569 243 569 242 567.5 c 128,-1,25
 241 566 241 566 236 565 c 0,26,27
 197 561 197 561 183.5 553 c 128,-1,28
 170 545 170 545 168 521 c 0,29,30
 153 329 153 329 159 72 c 0,31,32
 160 48 160 48 171 38.5 c 128,-1,33
 182 29 182 29 216 28 c 0,34,35
 283 25 283 25 325 29 c 0,36,37
 410 37 410 37 442.5 58 c 128,-1,38
 475 79 475 79 486 116 c 0,39,40
 488 123 488 123 496 121 c 0,41,42
 505 118 505 118 503 110 c 0,43,44
 478 12 478 12 463 -13 c 1,45,46
 442 -6 442 -6 363 -3 c 0,47,48
 190 0 190 0 132 0 c 2,49,-1
 31 0 l 2,50,51
 23 0 23 0 24 9 c 0,52,53
 24 16 24 16 25 17.5 c 128,-1,54
 26 19 26 19 31 20 c 0,55,56
 69 26 69 26 79 35.5 c 128,-1,57
 89 45 89 45 90 78 c 0,58,59
 99 389 99 389 94 512 c 0,60,61
 93 532 93 532 90 542.5 c 128,-1,62
 87 553 87 553 77 558 c 128,-1,63
 67 563 67 563 62 564 c 2,64,-1
 37 566 l 2,65,66
 30 566 30 566 31 577 c 0,67,68
 32 584 32 584 37 584 c 0,13,14
EndSplineSet
EndChar
StartChar: Eng
Encoding: 330 330 279
Width: 434
Flags: W
LayerCount: 2
Fore
SplineSet
303 -84 m 1,0,1
 330 -82 330 -82 349.5 -70.5 c 128,-1,2
 369 -59 369 -59 378.5 -46 c 128,-1,3
 388 -33 388 -33 393.5 -17.5 c 128,-1,4
 399 -2 399 -2 400 5 c 128,-1,5
 401 12 401 12 401 15 c 2,6,-1
 405 47 l 1,7,8
 406 92 406 92 405 136 c 0,9,10
 405 152 405 152 404.5 232 c 128,-1,11
 404 312 404 312 403.5 383 c 128,-1,12
 403 454 403 454 402 464 c 0,13,14
 402 467 402 467 401.5 472.5 c 128,-1,15
 401 478 401 478 400.5 482 c 128,-1,16
 400 486 400 486 399 490 c 0,17,18
 395 505 395 505 388 514 c 0,19,20
 374 537 374 537 346 546 c 0,21,22
 309 559 309 559 253 545 c 0,23,24
 229 538 229 538 189 521 c 0,25,26
 164 510 164 510 143 497 c 1,27,-1
 142 550 l 2,28,29
 142 551 142 551 141.5 552.5 c 128,-1,30
 141 554 141 554 141 555 c 0,31,32
 142 557 142 557 139 559 c 0,33,34
 138 560 138 560 134 560 c 0,35,36
 132 560 132 560 130 558 c 2,37,-1
 82 538 l 2,38,39
 65 531 65 531 30 521 c 0,40,41
 29 521 29 521 28 520 c 2,42,-1
 27 519 l 1,43,-1
 27 517 l 2,44,45
 26 516 26 516 27 516 c 2,46,-1
 28 514 l 1,47,-1
 30 514 l 1,48,-1
 53 507 l 2,49,50
 58 506 58 506 63 502 c 0,51,52
 68 500 68 500 72 495 c 0,53,54
 77 489 77 489 81 474 c 0,55,56
 83 458 83 458 85 428 c 0,57,58
 86 411 86 411 86 150 c 0,59,60
 86 110 86 110 83 69 c 0,61,62
 84 60 84 60 81 51 c 0,63,64
 77 40 77 40 72 35 c 0,65,66
 67 29 67 29 57 24 c 0,67,68
 50 21 50 21 39 17 c 2,69,-1
 30 15 l 2,70,71
 28 15 28 15 26 13.5 c 128,-1,72
 24 12 24 12 23 10 c 2,73,-1
 23 7 l 2,74,75
 23 4 23 4 24 3 c 0,76,77
 26 1 26 1 27 1 c 2,78,-1
 30 1 l 1,79,-1
 70 2 l 2,80,81
 135 4 135 4 167 1 c 0,82,83
 189 -1 189 -1 200 -3 c 2,84,-1
 203 -3 l 1,85,-1
 207 -3 l 2,86,87
 209 -3 209 -3 209 -1 c 0,88,89
 209 0 209 0 210 1 c 2,90,-1
 210 2 l 1,91,-1
 210 5 l 1,92,-1
 208 7 l 1,93,-1
 206 9 l 1,94,-1
 203 10 l 1,95,-1
 202 10 l 1,96,-1
 173 15 l 2,97,98
 161 17 161 17 155 22 c 0,99,100
 146 28 146 28 143 37 c 0,101,102
 141 43 141 43 141 55 c 2,103,-1
 141 74 l 1,104,-1
 144 486 l 1,105,106
 163 496 163 496 182 503 c 0,107,108
 222 517 222 517 263 516 c 0,109,110
 285 515 285 515 295 511 c 0,111,112
 312 504 312 504 322.5 494.5 c 128,-1,113
 333 485 333 485 340 469 c 0,114,115
 343 460 343 460 346 439 c 0,116,117
 349 401 349 401 349 137 c 0,118,119
 349 131 349 131 351 111 c 128,-1,120
 353 91 353 91 353 79 c 128,-1,121
 353 67 353 67 352 48 c 0,122,123
 353 27 353 27 347 -10 c 0,124,125
 347 -11 347 -11 343 -19 c 128,-1,126
 339 -27 339 -27 332 -35.5 c 128,-1,127
 325 -44 325 -44 317 -48.5 c 128,-1,128
 309 -53 309 -53 299 -44 c 128,-1,129
 289 -35 289 -35 279 -12 c 1,130,131
 267 -11 267 -11 258 -14 c 128,-1,132
 249 -17 249 -17 245 -21.5 c 128,-1,133
 241 -26 241 -26 239 -30.5 c 128,-1,134
 237 -35 237 -35 237 -38 c 2,135,-1
 236 -41 l 2,136,137
 235 -45 235 -45 303 -84 c 1,0,1
EndSplineSet
EndChar
StartChar: omacron
Encoding: 333 333 281
Width: 411
Flags: W
LayerCount: 2
Fore
SplineSet
83 442 m 1,0,-1
 344 442 l 1,1,-1
 344 409 l 1,2,-1
 83 409 l 1,3,-1
 83 442 l 1,0,-1
133 331 m 0,4,5
 181 352 181 352 229 348 c 0,6,7
 279 343 279 343 319 314 c 0,8,9
 368 277 368 277 382 218 c 0,10,11
 397 158 397 158 373 104 c 0,12,13
 354 57 354 57 312 27 c 0,14,15
 255 -12 255 -12 182 -1 c 0,16,17
 116 9 116 9 72 56 c 0,18,19
 26 104 26 104 24 169 c 0,20,21
 24 223 24 223 54 267 c 0,22,23
 83 308 83 308 133 331 c 0,4,5
193 328 m 0,24,25
 165 328 165 328 143 316 c 0,26,27
 119 303 119 303 104 282 c 0,28,29
 78 247 78 247 78 196 c 0,30,31
 78 148 78 148 98 107 c 0,32,33
 116 66 116 66 149 41 c 0,34,35
 186 12 186 12 227 14 c 0,36,37
 253 15 253 15 276 32 c 0,38,39
 294 44 294 44 306 64 c 0,40,41
 331 104 331 104 333 150 c 0,42,43
 334 203 334 203 305 253 c 0,44,45
 283 288 283 288 259 305 c 0,46,47
 227 328 227 328 193 328 c 0,24,25
EndSplineSet
EndChar
StartChar: oe
Encoding: 339 339 285
Width: 653
Flags: W
LayerCount: 2
Fore
SplineSet
189 335 m 0,0,1
 156 329 156 329 133.5 307 c 128,-1,2
 111 285 111 285 103 254 c 128,-1,3
 95 223 95 223 95.5 188 c 128,-1,4
 96 153 96 153 109.5 120 c 128,-1,5
 123 87 123 87 141.5 61.5 c 128,-1,6
 160 36 160 36 188.5 23 c 128,-1,7
 217 10 217 10 249 16 c 0,8,9
 288 23 288 23 312 52 c 128,-1,10
 336 81 336 81 343 119 c 128,-1,11
 350 157 350 157 342.5 198 c 128,-1,12
 335 239 335 239 315.5 272.5 c 128,-1,13
 296 306 296 306 262.5 324 c 128,-1,14
 229 342 229 342 189 335 c 0,0,1
408 203 m 1,15,16
 421 204 421 204 437.5 207 c 128,-1,17
 454 210 454 210 466 213 c 2,18,-1
 496 220 l 2,19,20
 514 225 514 225 523 227 c 0,21,22
 525 227 525 227 533 228.5 c 128,-1,23
 541 230 541 230 545 231 c 128,-1,24
 549 232 549 232 554.5 235 c 128,-1,25
 560 238 560 238 561 242 c 0,26,27
 571 262 571 262 553.5 285.5 c 128,-1,28
 536 309 536 309 509 322 c 128,-1,29
 482 335 482 335 464 332 c 0,30,31
 408 321 408 321 408 203 c 1,15,16
368 63 m 1,32,33
 315 10 315 10 267 -3 c 0,34,35
 221 -14 221 -14 178 -2 c 128,-1,36
 135 10 135 10 104.5 37.5 c 128,-1,37
 74 65 74 65 55.5 103.5 c 128,-1,38
 37 142 37 142 35.5 182 c 128,-1,39
 34 222 34 222 54 261.5 c 128,-1,40
 74 301 74 301 115 328 c 0,41,42
 153 352 153 352 204 358 c 0,43,44
 252 364 252 364 296 347 c 0,45,46
 343 329 343 329 378 281 c 1,47,48
 401 324 401 324 451.5 344.5 c 128,-1,49
 502 365 502 365 545 343 c 0,50,51
 566 333 566 333 580.5 315 c 128,-1,52
 595 297 595 297 610 270 c 2,53,-1
 619 256 l 2,54,55
 626 245 626 245 630 237.5 c 128,-1,56
 634 230 634 230 635 222 c 1,57,58
 507 197 507 197 483 193 c 0,59,60
 477 192 477 192 461.5 190 c 128,-1,61
 446 188 446 188 435 185 c 128,-1,62
 424 182 424 182 417 177 c 0,63,64
 411 173 411 173 409.5 166.5 c 128,-1,65
 408 160 408 160 408 155 c 128,-1,66
 408 150 408 150 409.5 140.5 c 128,-1,67
 411 131 411 131 411 129 c 0,68,69
 416 90 416 90 445.5 64 c 128,-1,70
 475 38 475 38 516 30 c 0,71,72
 539 26 539 26 573.5 45 c 128,-1,73
 608 64 608 64 627 63 c 1,74,75
 623 51 623 51 611 40 c 128,-1,76
 599 29 599 29 592.5 26 c 128,-1,77
 586 23 586 23 568 13 c 0,78,79
 532 -5 532 -5 493.5 -7.5 c 128,-1,80
 455 -10 455 -10 420 7.5 c 128,-1,81
 385 25 385 25 368 63 c 1,32,33
EndSplineSet
EndChar
StartChar: scircumflex
Encoding: 349 349 291
Width: 279
Flags: W
LayerCount: 2
Fore
SplineSet
54 408 m 1,0,-1
 70 442 l 2,1,2
 79 461 79 461 87 473 c 2,3,-1
 106 507 l 2,4,5
 118 529 118 529 124 539 c 2,6,-1
 137 559 l 2,7,8
 141 565 141 565 151.5 571 c 128,-1,9
 162 577 162 577 176 575 c 0,10,11
 183 574 183 574 188.5 569 c 128,-1,12
 194 564 194 564 197 560 c 128,-1,13
 200 556 200 556 204.5 547 c 128,-1,14
 209 538 209 538 211 535 c 2,15,-1
 233 497 l 1,16,-1
 260 447 l 2,17,18
 271 427 271 427 280 408 c 1,19,20
 259 409 259 409 239 425.5 c 128,-1,21
 219 442 219 442 195 471 c 2,22,-1
 165 508 l 1,23,24
 149 477 149 477 115.5 443 c 128,-1,25
 82 409 82 409 54 408 c 1,0,-1
61 289 m 0,26,27
 78 307 78 307 106 319 c 0,28,29
 128 328 128 328 149 330 c 0,30,31
 163 332 163 332 193 330 c 0,32,33
 203 329 203 329 229 325 c 1,34,-1
 239 261 l 1,35,-1
 239 259 l 1,36,-1
 239 256 l 2,37,38
 239 255 239 255 238 254 c 128,-1,39
 237 253 237 253 235 253 c 2,40,-1
 233 253 l 2,41,42
 232 253 232 253 231.5 254 c 128,-1,43
 231 255 231 255 230 256 c 128,-1,44
 229 257 229 257 229 258 c 0,45,46
 222 271 222 271 204 287 c 0,47,48
 181 305 181 305 156 311 c 0,49,50
 137 315 137 315 125 311 c 0,51,52
 110 306 110 306 99 296 c 0,53,54
 85 282 85 282 85 260 c 0,55,56
 85 244 85 244 100 227 c 0,57,58
 109 217 109 217 130 206 c 0,59,60
 138 202 138 202 153.5 196.5 c 128,-1,61
 169 191 169 191 177 187 c 0,62,63
 198 178 198 178 218 162 c 0,64,65
 235 148 235 148 245.5 132.5 c 128,-1,66
 256 117 256 117 259 95 c 0,67,68
 264 69 264 69 250 45 c 0,69,70
 249 43 249 43 247 41.5 c 128,-1,71
 245 40 245 40 244 38 c 0,72,73
 241 34 241 34 237 31 c 0,74,75
 212 9 212 9 184 0 c 0,76,77
 138 -15 138 -15 87 -7 c 0,78,79
 59 -2 59 -2 40 7 c 1,80,81
 39 20 39 20 35 42 c 0,82,83
 29 67 29 67 25 79 c 1,84,-1
 25 81 l 1,85,-1
 24 83 l 1,86,-1
 24 86 l 2,87,88
 24 88 24 88 25 89 c 0,89,90
 27 91 27 91 28 91 c 2,91,-1
 31 91 l 2,92,93
 32 91 32 91 34 89 c 0,94,95
 38 85 38 85 39 83 c 0,96,97
 52 62 52 62 54 60 c 0,98,99
 69 39 69 39 88 26.5 c 128,-1,100
 107 14 107 14 131 11 c 0,101,102
 157 8 157 8 179 16 c 0,103,104
 189 20 189 20 198.5 29.5 c 128,-1,105
 208 39 208 39 211 49 c 0,106,107
 216 66 216 66 210 81 c 128,-1,108
 204 96 204 96 193 110 c 0,109,110
 175 130 175 130 140 147 c 2,111,-1
 112 159 l 2,112,113
 92 168 92 168 81 174 c 0,114,115
 66 183 66 183 56 195 c 128,-1,116
 46 207 46 207 41 223 c 0,117,118
 36 242 36 242 42 259 c 0,119,120
 47 274 47 274 61 289 c 0,26,27
EndSplineSet
EndChar
StartChar: tcaron
Encoding: 357 357 297
Width: 289
Flags: W
LayerCount: 2
Fore
SplineSet
220 194 m 1,0,-1
 228 183 l 1,1,-1
 220 194 l 1,0,-1
279 399 m 1,2,3
 284 398 284 398 288 395.5 c 128,-1,4
 292 393 292 393 293 391 c 2,5,-1
 299 384 l 1,6,-1
 306 378 l 2,7,8
 309 374 309 374 317 369 c 128,-1,9
 325 364 325 364 331 359 c 128,-1,10
 337 354 337 354 339 347 c 128,-1,11
 341 340 341 340 334.5 327 c 128,-1,12
 328 314 328 314 328 312 c 0,13,14
 305 217 305 217 228 183 c 1,15,-1
 220 201 l 1,16,17
 251 219 251 219 268.5 242.5 c 128,-1,18
 286 266 286 266 272 293 c 0,19,20
 268 300 268 300 253 315.5 c 128,-1,21
 238 331 238 331 235 345 c 1,22,23
 263 360 263 360 279 399 c 1,2,3
120 206 m 0,24,25
 120 134 120 134 122 98 c 0,26,27
 124 72 124 72 131 59 c 0,28,29
 140 41 140 41 162 33 c 0,30,31
 181 26 181 26 203 31 c 0,32,33
 213 33 213 33 242 43 c 2,34,-1
 252 47 l 2,35,36
 253 47 253 47 256 48 c 128,-1,37
 259 49 259 49 260 50 c 0,38,39
 261 50 261 50 262.5 50.5 c 128,-1,40
 264 51 264 51 265 51 c 2,41,-1
 266 51 l 1,42,-1
 267 50 l 2,43,44
 269 50 269 50 268 48 c 0,45,46
 268 47 268 47 268.5 47 c 128,-1,47
 269 47 269 47 269 46 c 128,-1,48
 269 45 269 45 268 43 c 128,-1,49
 267 41 267 41 266 40 c 128,-1,50
 265 39 265 39 262 37.5 c 128,-1,51
 259 36 259 36 258 35 c 0,52,53
 216 11 216 11 182 1 c 0,54,55
 156 -6 156 -6 138 -5 c 0,56,57
 114 -3 114 -3 97 9 c 128,-1,58
 80 21 80 21 73 43 c 0,59,60
 68 57 68 57 68 86 c 2,61,-1
 72 303 l 1,62,-1
 28 303 l 2,63,64
 25 303 25 303 25 304 c 2,65,-1
 24 305 l 2,66,67
 23 306 23 306 23 307 c 2,68,-1
 23 309 l 1,69,-1
 24 310 l 1,70,-1
 26 313 l 1,71,72
 46 322 46 322 62 333 c 0,73,74
 95 356 95 356 122 394 c 1,75,-1
 126 398 l 2,76,77
 127 399 127 399 128 399 c 2,78,-1
 130 399 l 2,79,80
 131 399 131 399 132 398 c 128,-1,81
 133 397 133 397 133 396 c 128,-1,82
 133 395 133 395 134 393 c 2,83,-1
 134 391 l 1,84,-1
 124 327 l 1,85,-1
 252 330 l 1,86,-1
 255 330 l 1,87,-1
 257 328 l 1,88,-1
 259 326 l 1,89,-1
 259 323 l 1,90,-1
 259 311 l 1,91,-1
 259 308 l 2,92,93
 259 307 259 307 257 305 c 0,94,95
 256 304 256 304 255 304 c 2,96,-1
 254 304 l 2,97,98
 253 303 253 303 252 303 c 2,99,-1
 124 303 l 1,100,101
 120 239 120 239 120 206 c 0,24,25
EndSplineSet
EndChar
StartChar: uhungarumlaut
Encoding: 369 369 304
Width: 449
Flags: W
LayerCount: 2
Fore
SplineSet
210 428 m 2,0,1
 212 424 212 424 212 421 c 0,2,3
 212 408 212 408 199 408 c 0,4,5
 189 408 189 408 185 418 c 2,6,-1
 128 511 l 2,7,8
 126 513 126 513 126 516 c 0,9,10
 126 525 126 525 140 532 c 0,11,12
 149 535 149 535 155 535 c 0,13,14
 164 535 164 535 165 529 c 2,15,-1
 210 428 l 2,0,1
290 428 m 2,16,17
 292 424 292 424 292 421 c 0,18,19
 292 408 292 408 279 408 c 0,20,21
 269 408 269 408 265 418 c 2,22,-1
 208 511 l 2,23,24
 206 513 206 513 206 516 c 0,25,26
 206 525 206 525 220 532 c 0,27,28
 229 535 229 535 235 535 c 0,29,30
 244 535 244 535 245 529 c 2,31,-1
 290 428 l 2,16,17
130 239 m 0,32,33
 128 213 128 213 128 163 c 128,-1,34
 128 113 128 113 133 89 c 0,35,36
 137 74 137 74 141 66 c 0,37,38
 148 54 148 54 156 47 c 0,39,40
 173 33 173 33 199 33 c 0,41,42
 222 32 222 32 253 43 c 0,43,44
 278 52 278 52 310 71 c 1,45,46
 312 115 312 115 314 200 c 0,47,48
 314 211 314 211 314.5 234 c 128,-1,49
 315 257 315 257 315 268 c 0,50,51
 315 278 315 278 313 284 c 0,52,53
 310 292 310 292 304 295 c 0,54,55
 299 299 299 299 290 301 c 2,56,-1
 274 301 l 1,57,-1
 267 301 l 1,58,-1
 264 301 l 1,59,-1
 263 301 l 1,60,-1
 261 302 l 1,61,-1
 260 302 l 1,62,-1
 259 303 l 1,63,-1
 259 304 l 1,64,-1
 259 306 l 1,65,-1
 260 310 l 1,66,-1
 261 311 l 1,67,-1
 261 312 l 2,68,69
 261 313 261 313 262 314 c 128,-1,70
 263 315 263 315 264 315 c 128,-1,71
 265 315 265 315 265 315.5 c 128,-1,72
 265 316 265 316 266 316 c 0,73,74
 284 319 284 319 318 326 c 0,75,76
 340 331 340 331 371 339 c 1,77,-1
 372 340 l 1,78,-1
 373 340 l 1,79,-1
 375 339 l 2,80,81
 376 338 376 338 376 337 c 2,82,-1
 376 334 l 1,83,-1
 376 330 l 2,84,85
 375 304 375 304 371 239.5 c 128,-1,86
 367 175 367 175 366 140 c 0,87,88
 364 106 364 106 367 79 c 0,89,90
 369 54 369 54 372 33 c 0,91,92
 372 32 372 32 372.5 31 c 128,-1,93
 373 30 373 30 373 29 c 0,94,95
 373 27 373 27 375 25.5 c 128,-1,96
 377 24 377 24 379 24 c 0,97,98
 380 24 380 24 381 24.5 c 128,-1,99
 382 25 382 25 383 25 c 2,100,-1
 423 33 l 1,101,-1
 425 33 l 2,102,103
 426 33 426 33 427 32 c 2,104,-1
 429 30 l 1,105,-1
 429 29 l 1,106,-1
 430 28 l 1,107,-1
 431 27 l 1,108,-1
 431 26 l 2,109,110
 431 25 431 25 430.5 25 c 128,-1,111
 430 25 430 25 430 24 c 0,112,113
 430 22 430 22 429 22 c 2,114,-1
 428 21 l 1,115,-1
 426 21 l 1,116,-1
 379 6 l 1,117,-1
 332 -9 l 2,118,119
 331 -9 331 -9 330 -9.5 c 128,-1,120
 329 -10 329 -10 328 -10 c 2,121,-1
 324 -10 l 1,122,-1
 321 -8 l 2,123,124
 319 -6 319 -6 320 -4 c 2,125,-1
 314 25 l 2,126,127
 312 37 312 37 310 54 c 1,128,129
 293 44 293 44 257 26 c 0,130,131
 204 1 204 1 175 -2 c 0,132,133
 158 -5 158 -5 141 -2 c 0,134,135
 122 1 122 1 109 10 c 0,136,137
 93 21 93 21 82 45 c 0,138,139
 74 64 74 64 73 88 c 0,140,141
 71 115 71 115 73 171 c 0,142,143
 74 198 74 198 74 253 c 0,144,145
 74 263 74 263 73 268 c 0,146,147
 71 277 71 277 66 283 c 0,148,149
 59 290 59 290 54 290 c 0,150,151
 45 292 45 292 38 290 c 2,152,-1
 29 289 l 1,153,-1
 27 289 l 2,154,155
 26 289 26 289 26 290 c 1,156,157
 25 290 25 290 25 291 c 2,158,-1
 25 292 l 1,159,-1
 24 293 l 1,160,-1
 23 294 l 1,161,-1
 23 296 l 2,162,163
 23 297 23 297 23.5 297 c 128,-1,164
 24 297 24 297 24 298 c 128,-1,165
 24 299 24 299 25 300 c 2,166,-1
 26 301 l 1,167,168
 56 311 56 311 83 322 c 0,169,170
 104 331 104 331 128 344 c 1,171,-1
 129 344 l 1,172,-1
 130 344 l 2,173,174
 132 344 132 344 134 342 c 2,175,-1
 135 342 l 1,176,-1
 136 341 l 2,177,178
 137 341 137 341 137 340 c 2,179,-1
 138 339 l 1,180,-1
 138 338 l 1,181,-1
 138 337 l 1,182,-1
 135 306 l 2,183,184
 136 306 136 306 130 239 c 0,32,33
EndSplineSet
EndChar
StartChar: wcircumflex
Encoding: 373 373 307
Width: 571
Flags: W
LayerCount: 2
Fore
SplineSet
177 408 m 1,0,-1
 193 442 l 2,1,2
 202 461 202 461 210 473 c 2,3,-1
 229 507 l 2,4,5
 241 529 241 529 247 539 c 2,6,-1
 260 559 l 2,7,8
 264 565 264 565 274.5 571 c 128,-1,9
 285 577 285 577 299 575 c 0,10,11
 306 574 306 574 311.5 569 c 128,-1,12
 317 564 317 564 320 560 c 128,-1,13
 323 556 323 556 327.5 547 c 128,-1,14
 332 538 332 538 334 535 c 2,15,-1
 356 497 l 1,16,-1
 383 447 l 2,17,18
 394 427 394 427 403 408 c 1,19,20
 382 409 382 409 362 425.5 c 128,-1,21
 342 442 342 442 318 471 c 2,22,-1
 288 508 l 1,23,24
 272 477 272 477 238.5 443 c 128,-1,25
 205 409 205 409 177 408 c 1,0,-1
35 323 m 0,26,27
 55 324 55 324 95 324 c 0,28,29
 122 324 122 324 155 329 c 0,30,31
 156 329 156 329 158 329.5 c 128,-1,32
 160 330 160 330 161 330 c 0,33,34
 163 330 163 330 164 329 c 2,35,-1
 166 326 l 1,36,-1
 166 323 l 2,37,38
 166 321 166 321 165 320.5 c 128,-1,39
 164 320 164 320 163 320 c 2,40,-1
 162 320 l 2,41,42
 161 319 161 319 160 319 c 2,43,-1
 152 318 l 2,44,45
 151 318 151 318 146.5 317 c 128,-1,46
 142 316 142 316 140 315 c 0,47,48
 131 310 131 310 129 308 c 0,49,50
 125 304 125 304 125 295.5 c 128,-1,51
 125 287 125 287 126 284 c 0,52,53
 132 258 132 258 147 204 c 0,54,55
 163 146 163 146 190 74 c 1,56,-1
 279 261 l 1,57,-1
 268 284 l 2,58,59
 259 299 259 299 254 303 c 0,60,61
 250 307 250 307 245 310 c 2,62,-1
 233 313 l 1,63,-1
 227 314 l 2,64,65
 223 314 223 314 221 315 c 0,66,67
 218 316 218 316 218 320 c 1,68,-1
 219 320 l 1,69,-1
 219 322 l 2,70,71
 219 323 219 323 221 325 c 0,72,73
 222 326 222 326 223 326 c 2,74,-1
 227 326 l 2,75,76
 255 325 255 325 283 326 c 0,77,78
 329 328 329 328 367 333 c 1,79,-1
 372 333 l 2,80,81
 373 333 373 333 374 332 c 128,-1,82
 375 331 375 331 375 330 c 2,83,-1
 375 327 l 2,84,85
 375 325 375 325 374 324 c 128,-1,86
 373 323 373 323 372 323 c 0,87,88
 371 322 371 322 370 322 c 2,89,-1
 357 319 l 2,90,91
 349 317 349 317 344 315 c 0,92,93
 336 312 336 312 331.5 308 c 128,-1,94
 327 304 327 304 325 297 c 2,95,-1
 325 290 l 2,96,97
 325 285 325 285 326 284 c 0,98,99
 341 231 341 231 353 195 c 2,100,-1
 392 77 l 1,101,-1
 434 161 l 1,102,-1
 460 220 l 2,103,104
 465 231 465 231 478 268 c 0,105,106
 482 277 482 277 483 284 c 0,107,108
 485 295 485 295 484 300 c 0,109,110
 482 309 482 309 475 313 c 0,111,112
 472 316 472 316 469 317 c 0,113,114
 467 318 467 318 464 318 c 128,-1,115
 461 318 461 318 460 319 c 2,116,-1
 450 320 l 1,117,-1
 449 321 l 1,118,-1
 448 321 l 2,119,120
 447 321 447 321 446 322 c 0,121,122
 444 324 444 324 444 325 c 2,123,-1
 444 327 l 1,124,-1
 444 328 l 2,125,126
 445 329 445 329 445 330 c 0,127,128
 445 332 445 332 446 333 c 128,-1,129
 447 334 447 334 449 334 c 2,130,-1
 452 334 l 1,131,132
 486 330 486 330 503 330 c 0,133,134
 535 330 535 330 550 332 c 2,135,-1
 552 332 l 1,136,-1
 554 332 l 2,137,138
 556 332 556 332 556 330 c 0,139,140
 556 329 556 329 556.5 329 c 128,-1,141
 557 329 557 329 557 328 c 128,-1,142
 557 327 557 327 556.5 327 c 128,-1,143
 556 327 556 327 556 326 c 128,-1,144
 556 325 556 325 555 324 c 2,145,-1
 552 321 l 1,146,-1
 546 318 l 2,147,148
 533 309 533 309 528 302 c 0,149,150
 521 293 521 293 516 281 c 2,151,-1
 425 96 l 1,152,-1
 395 33 l 2,153,154
 383 8 383 8 377 -9 c 1,155,-1
 377 -11 l 1,156,-1
 376 -12 l 1,157,-1
 376 -13 l 2,158,159
 376 -15 376 -15 374 -15 c 2,160,-1
 372 -15 l 1,161,-1
 366 -15 l 1,162,-1
 365 -15 l 1,163,-1
 363 -15 l 1,164,-1
 362 -14 l 1,165,-1
 362 -13 l 1,166,-1
 361 -12 l 1,167,-1
 361 -10 l 1,168,-1
 361 -8 l 1,169,170
 340 73 340 73 316 150 c 0,171,172
 297 207 297 207 286 235 c 1,173,-1
 210 77 l 1,174,-1
 169 -12 l 2,175,176
 169 -14 169 -14 168 -15 c 128,-1,177
 167 -16 167 -16 166 -16 c 0,178,179
 164 -17 164 -17 162 -17 c 2,180,-1
 159 -17 l 2,181,182
 158 -17 158 -17 157 -16 c 2,183,-1
 155 -14 l 1,184,-1
 155 -11 l 2,185,186
 154 11 154 11 146 39 c 2,187,-1
 108 161 l 1,188,-1
 78 246 l 2,189,190
 68 275 68 275 58 290 c 0,191,192
 49 301 49 301 46 303 c 128,-1,193
 43 305 43 305 37 307 c 128,-1,194
 31 309 31 309 28 309 c 2,195,-1
 21 310 l 1,196,-1
 18 310 l 2,197,198
 16 310 16 310 16 312 c 2,199,-1
 16 314 l 1,200,-1
 15 315 l 1,201,-1
 15 316 l 1,202,-1
 15 317 l 2,203,204
 16 318 16 318 16 319 c 128,-1,205
 16 320 16 320 17 320.5 c 128,-1,206
 18 321 18 321 20 321 c 2,207,-1
 21 321 l 1,208,-1
 23 322 l 2,209,210
 25 322 25 322 29 322.5 c 128,-1,211
 33 323 33 323 35 323 c 0,26,27
EndSplineSet
EndChar
StartChar: zdotaccent
Encoding: 380 380 310
Width: 397
Flags: W
LayerCount: 2
Fore
SplineSet
181.5 476 m 128,-1,1
 201 484 201 484 216 471 c 128,-1,2
 231 458 231 458 229 438.5 c 128,-1,3
 227 419 227 419 208 411 c 0,4,5
 188 403 188 403 173.5 416.5 c 128,-1,6
 159 430 159 430 160.5 449 c 128,-1,0
 162 468 162 468 181.5 476 c 128,-1,1
117 23 m 1,7,8
 127 23 127 23 178 22 c 128,-1,9
 229 21 229 21 239 22 c 0,10,11
 271 24 271 24 287 27 c 0,12,13
 311 33 311 33 330 49 c 0,14,15
 352 67 352 67 359 95 c 0,16,17
 359 98 359 98 360 98 c 128,-1,18
 361 98 361 98 361 99 c 128,-1,19
 361 100 361 100 362 101 c 0,20,21
 364 103 364 103 366 103 c 0,22,23
 369 103 369 103 370 102 c 0,24,25
 371 102 371 102 371 101 c 2,26,-1
 372 100 l 2,27,28
 373 99 373 99 373 96 c 0,29,30
 373 91 373 91 372 89 c 2,31,-1
 364 52 l 2,32,33
 358 29 358 29 350 6 c 0,34,35
 350 5 350 5 348 3 c 0,36,37
 348 2 348 2 347 1 c 2,38,-1
 346 0 l 2,39,40
 344 -2 344 -2 343 -2 c 2,41,-1
 339 -2 l 2,42,43
 307 0 307 0 247 2 c 0,44,45
 147 5 147 5 36 -3 c 1,46,-1
 33 -3 l 2,47,48
 32 -3 32 -3 30 -2 c 0,49,50
 29 -2 29 -2 28 -1 c 128,-1,51
 27 0 27 0 27 2 c 0,52,53
 27 5 27 5 28 7 c 128,-1,54
 29 9 29 9 31 10 c 0,55,56
 92 74 92 74 157 154 c 2,57,-1
 167 166 l 1,58,-1
 49 166 l 1,59,-1
 62 193 l 1,60,-1
 188 193 l 1,61,62
 231 250 231 250 272 311 c 1,63,64
 224 313 224 313 198 312 c 0,65,66
 138 310 138 310 95 305 c 0,67,68
 84 303 84 303 78 302 c 0,69,70
 69 299 69 299 61 293 c 0,71,72
 46 283 46 283 38 268 c 2,73,-1
 34 261 l 1,74,-1
 33 259 l 2,75,76
 32 257 32 257 31 257 c 0,77,78
 29 255 29 255 28 255 c 0,79,80
 24 255 24 255 24 256 c 0,81,82
 21 259 21 259 21 260 c 128,-1,83
 21 261 21 261 21.5 262.5 c 128,-1,84
 22 264 22 264 22 265 c 0,85,86
 22 268 22 268 24 269 c 0,87,88
 32 282 32 282 35 296 c 0,89,90
 41 311 41 311 43 329 c 0,91,92
 43 331 43 331 44 332 c 2,93,-1
 47 335 l 2,94,95
 48 336 48 336 50 336 c 0,96,97
 51 336 51 336 53 335 c 0,98,99
 66 333 66 333 95 331 c 0,100,101
 148 327 148 327 225 329 c 0,102,103
 274 330 274 330 356 334 c 1,104,-1
 358 334 l 1,105,-1
 360 334 l 2,106,107
 361 334 361 334 361 333 c 2,108,-1
 362 332 l 1,109,-1
 362 331 l 2,110,111
 362 328 362 328 361 327 c 2,112,-1
 360 326 l 2,113,114
 359 325 359 325 359 324 c 2,115,-1
 301 252 l 1,116,-1
 250 193 l 1,117,-1
 351 193 l 1,118,-1
 336 166 l 1,119,-1
 227 166 l 1,120,-1
 211 147 l 2,121,122
 162 89 162 89 117 23 c 1,7,8
EndSplineSet
EndChar
StartChar: uni01C0
Encoding: 448 448 315
Width: 182
Flags: W
LayerCount: 2
Fore
SplineSet
124 -116 m 1,0,-1
 79 -116 l 1,1,-1
 79 496 l 1,2,-1
 124 496 l 1,3,-1
 124 -116 l 1,0,-1
EndSplineSet
EndChar
StartChar: caron
Encoding: 711 711 320
Width: 316
Flags: W
LayerCount: 2
Fore
SplineSet
56 579 m 1,0,1
 77 578 77 578 97 561 c 128,-1,2
 117 544 117 544 140 514.5 c 128,-1,3
 163 485 163 485 171 478 c 1,4,5
 184 498 184 498 192.5 509 c 128,-1,6
 201 520 201 520 217.5 539 c 128,-1,7
 234 558 234 558 250.5 568 c 128,-1,8
 267 578 267 578 282 579 c 1,9,10
 275 563 275 563 265.5 544.5 c 128,-1,11
 256 526 256 526 248.5 513.5 c 128,-1,12
 241 501 241 501 229.5 479.5 c 128,-1,13
 218 458 218 458 212 448 c 0,14,15
 203 433 203 433 198.5 427 c 128,-1,16
 194 421 194 421 184 415 c 128,-1,17
 174 409 174 409 160 411 c 0,18,19
 153 412 153 412 147 417.5 c 128,-1,20
 141 423 141 423 138.5 426.5 c 128,-1,21
 136 430 136 430 131 439.5 c 128,-1,22
 126 449 126 449 124 452 c 0,23,24
 120 460 120 460 102.5 490 c 128,-1,25
 85 520 85 520 74.5 539.5 c 128,-1,26
 64 559 64 559 56 579 c 1,0,1
EndSplineSet
EndChar
StartChar: uni02CA
Encoding: 714 714 322
Width: 256
Flags: W
LayerCount: 2
Fore
SplineSet
73 374 m 2,0,1
 71 370 71 370 71 367 c 0,2,3
 71 354 71 354 84 354 c 0,4,5
 94 354 94 354 98 364 c 2,6,-1
 155 457 l 2,7,8
 157 459 157 459 157 462 c 0,9,10
 157 471 157 471 143 478 c 0,11,12
 134 481 134 481 128 481 c 0,13,14
 119 481 119 481 118 475 c 2,15,-1
 73 374 l 2,0,1
EndSplineSet
EndChar
StartChar: ring
Encoding: 730 730 326
Width: 316
Flags: W
LayerCount: 2
Fore
SplineSet
144.5 546.5 m 128,-1,1
 115 539 115 539 109.5 511 c 128,-1,2
 104 483 104 483 122 461 c 0,3,4
 141 438 141 438 171 446 c 0,5,6
 200 454 200 454 206 482 c 128,-1,7
 212 510 212 510 193 532 c 128,-1,0
 174 554 174 554 144.5 546.5 c 128,-1,1
141 568.5 m 128,-1,9
 167 575 167 575 188.5 564 c 128,-1,10
 210 553 210 553 219 533 c 128,-1,11
 228 513 228 513 228.5 490.5 c 128,-1,12
 229 468 229 468 214.5 449 c 128,-1,13
 200 430 200 430 174 424 c 128,-1,14
 148 418 148 418 126.5 429 c 128,-1,15
 105 440 105 440 96 460.5 c 128,-1,16
 87 481 87 481 86.5 502.5 c 128,-1,17
 86 524 86 524 100.5 543 c 128,-1,8
 115 562 115 562 141 568.5 c 128,-1,9
EndSplineSet
EndChar
StartChar: hungarumlaut
Encoding: 733 733 329
Width: 228
Flags: W
LayerCount: 2
Fore
SplineSet
117 374 m 2,0,1
 119 370 119 370 119 367 c 0,2,3
 119 354 119 354 106 354 c 0,4,5
 96 354 96 354 92 364 c 2,6,-1
 35 457 l 2,7,8
 33 459 33 459 33 462 c 0,9,10
 33 471 33 471 47 478 c 0,11,12
 56 481 56 481 62 481 c 0,13,14
 71 481 71 481 72 475 c 2,15,-1
 117 374 l 2,0,1
197 374 m 2,16,17
 199 370 199 370 199 367 c 0,18,19
 199 354 199 354 186 354 c 0,20,21
 176 354 176 354 172 364 c 2,22,-1
 115 457 l 2,23,24
 113 459 113 459 113 462 c 0,25,26
 113 471 113 471 127 478 c 0,27,28
 136 481 136 481 142 481 c 0,29,30
 151 481 151 481 152 475 c 2,31,-1
 197 374 l 2,16,17
EndSplineSet
EndChar
StartChar: emdash
Encoding: 8212 8212 334
Width: 950
Flags: W
LayerCount: 2
Fore
SplineSet
-8 203 m 1,0,-1
 958 203 l 1,1,-1
 958 151 l 1,2,-1
 -8 151 l 1,3,-1
 -8 203 l 1,0,-1
EndSplineSet
EndChar
StartChar: quotesinglbase
Encoding: 8218 8218 337
Width: 188
Flags: W
LayerCount: 2
Fore
SplineSet
29 -97 m 1,0,-1
 37 -108 l 1,1,-1
 29 -97 l 1,0,-1
89 110 m 1,2,3
 123 100 123 100 136.5 76.5 c 128,-1,4
 150 53 150 53 144 26 c 128,-1,5
 138 -1 138 -1 121.5 -28.5 c 128,-1,6
 105 -56 105 -56 82 -77.5 c 128,-1,7
 59 -99 59 -99 37 -108 c 1,8,-1
 29 -90 l 1,9,10
 59 -72 59 -72 78 -47.5 c 128,-1,11
 97 -23 97 -23 82 3 c 0,12,13
 79 8 79 8 64.5 20.5 c 128,-1,14
 50 33 50 33 49 44 c 0,15,16
 48 56 48 56 67 80 c 128,-1,17
 86 104 86 104 89 110 c 1,2,3
EndSplineSet
EndChar
StartChar: dagger
Encoding: 8224 8224 341
Width: 336
Flags: W
LayerCount: 2
Fore
SplineSet
93 622 m 1,0,-1
 241 622 l 1,1,-1
 187 560 l 1,2,-1
 197 485 l 1,3,-1
 175 396 l 1,4,-1
 256 420 l 1,5,-1
 315 448 l 1,6,-1
 315 326 l 1,7,-1
 253 354 l 1,8,-1
 175 378 l 1,9,-1
 215 277 l 1,10,-1
 190 137 l 1,11,-1
 179 -124 l 1,12,-1
 156 -124 l 1,13,-1
 143 137 l 1,14,-1
 119 277 l 1,15,-1
 160 378 l 1,16,-1
 19 326 l 1,17,-1
 19 448 l 1,18,-1
 78 420 l 1,19,-1
 156 396 l 1,20,-1
 138 482 l 1,21,-1
 145 563 l 1,22,-1
 93 622 l 1,0,-1
EndSplineSet
EndChar
StartChar: guilsinglleft
Encoding: 8249 8249 346
Width: 237
Flags: W
LayerCount: 2
Fore
SplineSet
206 358 m 1,0,-1
 209 357 l 1,1,-1
 206 358 l 1,0,-1
212 -5 m 1,2,3
 203 -4 203 -4 195.5 0.5 c 128,-1,4
 188 5 188 5 185 7 c 128,-1,5
 182 9 182 9 173 18.5 c 128,-1,6
 164 28 164 28 163 28 c 2,7,-1
 113 82 l 2,8,9
 81 118 81 118 70 129 c 0,10,11
 68 131 68 131 60 138 c 128,-1,12
 52 145 52 145 47 150.5 c 128,-1,13
 42 156 42 156 37.5 163.5 c 128,-1,14
 33 171 33 171 34 178 c 0,15,16
 35 191 35 191 50.5 209.5 c 128,-1,17
 66 228 66 228 90 250.5 c 128,-1,18
 114 273 114 273 119 277 c 0,19,20
 121 279 121 279 142 306 c 128,-1,21
 163 333 163 333 179.5 345.5 c 128,-1,22
 196 358 196 358 212 355 c 1,23,-1
 147 229 l 1,24,-1
 123 174 l 1,25,-1
 147 122 l 1,26,-1
 212 -5 l 1,2,3
EndSplineSet
Substitution2: "'rtla' Right to Left Alternates lookup 0 subtable" guilsinglright
EndChar
